<?xml version="1.0" encoding="utf-8" standalone="no"?>
<!DOCTYPE svg PUBLIC "-//W3C//DTD SVG 1.1//EN"
  "http://www.w3.org/Graphics/SVG/1.1/DTD/svg11.dtd">
<!-- Created with matplotlib (https://matplotlib.org/) -->
<svg height="405.57375pt" version="1.1" viewBox="0 0 911.947148 405.57375" width="911.947148pt" xmlns="http://www.w3.org/2000/svg" xmlns:xlink="http://www.w3.org/1999/xlink">
 <defs>
  <style type="text/css">
*{stroke-linecap:butt;stroke-linejoin:round;white-space:pre;}
  </style>
 </defs>
 <g id="figure_1">
  <g id="patch_1">
   <path d="M 0 405.57375 
L 911.947148 405.57375 
L 911.947148 0 
L 0 0 
z
" style="fill:#ffffff;"/>
  </g>
  <g id="axes_1">
   <g id="patch_2">
    <path d="M 70.478 300.96 
L 448.478 300.96 
L 448.478 20.16 
L 70.478 20.16 
z
" style="fill:#ffffff;"/>
   </g>
   <g id="PathCollection_1">
    <defs>
     <path d="M 0 3.535534 
C 0.937635 3.535534 1.836992 3.163008 2.5 2.5 
C 3.163008 1.836992 3.535534 0.937635 3.535534 0 
C 3.535534 -0.937635 3.163008 -1.836992 2.5 -2.5 
C 1.836992 -3.163008 0.937635 -3.535534 0 -3.535534 
C -0.937635 -3.535534 -1.836992 -3.163008 -2.5 -2.5 
C -3.163008 -1.836992 -3.535534 -0.937635 -3.535534 0 
C -3.535534 0.937635 -3.163008 1.836992 -2.5 2.5 
C -1.836992 3.163008 -0.937635 3.535534 0 3.535534 
z
" id="m9467779139" style="stroke:#1f77b4;stroke-width:0.8;"/>
    </defs>
    <g clip-path="url(#p585b5e132e)">
     <use style="fill:#1f77b4;stroke:#1f77b4;stroke-width:0.8;" x="90.204852" xlink:href="#m9467779139" y="256.793596"/>
     <use style="fill:#1f77b4;stroke:#1f77b4;stroke-width:0.8;" x="157.914111" xlink:href="#m9467779139" y="232.171332"/>
     <use style="fill:#1f77b4;stroke:#1f77b4;stroke-width:0.8;" x="225.62337" xlink:href="#m9467779139" y="202.747176"/>
     <use style="fill:#1f77b4;stroke:#1f77b4;stroke-width:0.8;" x="293.33263" xlink:href="#m9467779139" y="183.758263"/>
     <use style="fill:#1f77b4;stroke:#1f77b4;stroke-width:0.8;" x="361.041889" xlink:href="#m9467779139" y="124.71905"/>
     <use style="fill:#1f77b4;stroke:#1f77b4;stroke-width:0.8;" x="428.751148" xlink:href="#m9467779139" y="58.57873"/>
    </g>
   </g>
   <g id="PolyCollection_1">
    <path clip-path="url(#p585b5e132e)" d="M 90.204852 259.087781 
L 90.204852 288.196364 
L 93.624512 286.134738 
L 97.044171 284.019535 
L 100.463831 281.853205 
L 103.88349 279.813914 
L 107.30315 277.684758 
L 110.722809 275.554489 
L 114.142469 273.467744 
L 117.562129 271.28718 
L 120.981788 269.157848 
L 124.401448 267.02275 
L 127.821107 264.848393 
L 131.240767 262.532547 
L 134.660426 260.216702 
L 138.080086 257.89737 
L 141.499745 255.632521 
L 144.919405 253.514745 
L 148.339065 251.431241 
L 151.758724 249.317054 
L 155.178384 247.26906 
L 158.598043 245.405172 
L 162.017703 243.286334 
L 165.437362 241.255187 
L 168.857022 239.144261 
L 172.276681 237.06054 
L 175.696341 235.038789 
L 179.116 232.918088 
L 182.53566 230.870037 
L 185.95532 228.863192 
L 189.374979 226.93436 
L 192.794639 224.890466 
L 196.214298 222.978038 
L 199.633958 221.174036 
L 203.053617 219.244107 
L 206.473277 217.385657 
L 209.892936 215.553175 
L 213.312596 213.649048 
L 216.732256 211.888226 
L 220.151915 209.93576 
L 223.571575 208.174907 
L 226.991234 206.43016 
L 230.410894 204.658965 
L 233.830553 202.684498 
L 237.250213 200.591858 
L 240.669872 198.868438 
L 244.089532 197.264652 
L 247.509192 195.6189 
L 250.928851 193.974886 
L 254.348511 192.304464 
L 257.76817 190.620593 
L 261.18783 189.026275 
L 264.607489 187.185076 
L 268.027149 185.558381 
L 271.446808 183.82198 
L 274.866468 182.079773 
L 278.286128 180.346666 
L 281.705787 178.774937 
L 285.125447 176.989324 
L 288.545106 175.455722 
L 291.964766 173.633026 
L 295.384425 171.911097 
L 298.804085 170.36438 
L 302.223744 168.817664 
L 305.643404 167.270947 
L 309.063064 165.724231 
L 312.482723 164.176945 
L 315.902383 162.521053 
L 319.322042 160.724553 
L 322.741702 159.098715 
L 326.161361 157.665413 
L 329.581021 156.115866 
L 333.00068 154.475252 
L 336.42034 152.984273 
L 339.84 151.526818 
L 343.259659 150.008827 
L 346.679319 148.264953 
L 350.098978 146.762706 
L 353.518638 145.26046 
L 356.938297 143.755642 
L 360.357957 142.140509 
L 363.777616 140.525376 
L 367.197276 138.910243 
L 370.616935 137.295111 
L 374.036595 135.679978 
L 377.456255 134.064845 
L 380.875914 132.449712 
L 384.295574 130.833616 
L 387.715233 129.216 
L 391.134893 127.598384 
L 394.554552 126.030505 
L 397.974212 124.496308 
L 401.393871 122.962111 
L 404.813531 121.427914 
L 408.233191 119.893718 
L 411.65285 118.359521 
L 415.07251 116.825324 
L 418.492169 115.291127 
L 421.911829 113.756931 
L 425.331488 112.222734 
L 428.751148 110.688537 
L 428.751148 58.474295 
L 428.751148 58.474295 
L 425.331488 60.75445 
L 421.911829 63.023004 
L 418.492169 65.049405 
L 415.07251 67.242282 
L 411.65285 69.436161 
L 408.233191 71.632666 
L 404.813531 73.831417 
L 401.393871 75.979592 
L 397.974212 78.078188 
L 394.554552 80.119816 
L 391.134893 82.165423 
L 387.715233 84.297365 
L 384.295574 86.475708 
L 380.875914 88.654052 
L 377.456255 90.832395 
L 374.036595 93.010739 
L 370.616935 95.189083 
L 367.197276 97.367426 
L 363.777616 99.533208 
L 360.357957 101.623797 
L 356.938297 103.796079 
L 353.518638 105.993856 
L 350.098978 108.197245 
L 346.679319 110.400634 
L 343.259659 112.585945 
L 339.84 114.799936 
L 336.42034 116.981566 
L 333.00068 119.178662 
L 329.581021 121.375758 
L 326.161361 123.512464 
L 322.741702 125.686761 
L 319.322042 127.864237 
L 315.902383 130.043027 
L 312.482723 132.185076 
L 309.063064 134.196258 
L 305.643404 136.431326 
L 302.223744 138.616767 
L 298.804085 140.77293 
L 295.384425 143.061532 
L 291.964766 145.119045 
L 288.545106 147.178885 
L 285.125447 149.241853 
L 281.705787 151.331104 
L 278.286128 153.549143 
L 274.866468 155.720379 
L 271.446808 157.820557 
L 268.027149 159.839893 
L 264.607489 161.896395 
L 261.18783 163.957973 
L 257.76817 166.141583 
L 254.348511 168.209727 
L 250.928851 170.275852 
L 247.509192 172.315557 
L 244.089532 174.32788 
L 240.669872 176.340066 
L 237.250213 178.322242 
L 233.830553 180.273274 
L 230.410894 182.155543 
L 226.991234 184.138892 
L 223.571575 186.146995 
L 220.151915 188.173522 
L 216.732256 189.995966 
L 213.312596 192.048522 
L 209.892936 194.102385 
L 206.473277 196.074276 
L 203.053617 198.089108 
L 199.633958 200.026873 
L 196.214298 201.96342 
L 192.794639 204.01161 
L 189.374979 205.965821 
L 185.95532 207.93074 
L 182.53566 209.869806 
L 179.116 211.823163 
L 175.696341 213.82222 
L 172.276681 215.706465 
L 168.857022 217.589286 
L 165.437362 219.473813 
L 162.017703 221.358307 
L 158.598043 223.269709 
L 155.178384 225.30702 
L 151.758724 227.143715 
L 148.339065 229.078144 
L 144.919405 231.014338 
L 141.499745 232.945414 
L 138.080086 234.67599 
L 134.660426 236.582461 
L 131.240767 238.311963 
L 127.821107 240.19541 
L 124.401448 241.903251 
L 120.981788 243.522664 
L 117.562129 245.4908 
L 114.142469 247.281454 
L 110.722809 248.930592 
L 107.30315 250.543976 
L 103.88349 252.138054 
L 100.463831 253.83989 
L 97.044171 255.584534 
L 93.624512 257.360979 
L 90.204852 259.087781 
z
" style="fill:#1f77b4;fill-opacity:0.15;"/>
   </g>
   <g id="PathCollection_2">
    <defs>
     <path d="M 0 3.535534 
C 0.937635 3.535534 1.836992 3.163008 2.5 2.5 
C 3.163008 1.836992 3.535534 0.937635 3.535534 0 
C 3.535534 -0.937635 3.163008 -1.836992 2.5 -2.5 
C 1.836992 -3.163008 0.937635 -3.535534 0 -3.535534 
C -0.937635 -3.535534 -1.836992 -3.163008 -2.5 -2.5 
C -3.163008 -1.836992 -3.535534 -0.937635 -3.535534 0 
C -3.535534 0.937635 -3.163008 1.836992 -2.5 2.5 
C -1.836992 3.163008 -0.937635 3.535534 0 3.535534 
z
" id="m1affe13428" style="stroke:#ff7f0e;stroke-width:0.8;"/>
    </defs>
    <g clip-path="url(#p585b5e132e)">
     <use style="fill:#ff7f0e;stroke:#ff7f0e;stroke-width:0.8;" x="90.204852" xlink:href="#m1affe13428" y="274.792117"/>
     <use style="fill:#ff7f0e;stroke:#ff7f0e;stroke-width:0.8;" x="157.914111" xlink:href="#m1affe13428" y="266.985889"/>
     <use style="fill:#ff7f0e;stroke:#ff7f0e;stroke-width:0.8;" x="225.62337" xlink:href="#m1affe13428" y="255.882757"/>
     <use style="fill:#ff7f0e;stroke:#ff7f0e;stroke-width:0.8;" x="293.33263" xlink:href="#m1affe13428" y="256.886329"/>
     <use style="fill:#ff7f0e;stroke:#ff7f0e;stroke-width:0.8;" x="361.041889" xlink:href="#m1affe13428" y="239.494248"/>
     <use style="fill:#ff7f0e;stroke:#ff7f0e;stroke-width:0.8;" x="428.751148" xlink:href="#m1affe13428" y="221.309485"/>
    </g>
   </g>
   <g id="PolyCollection_2">
    <path clip-path="url(#p585b5e132e)" d="M 90.204852 274.022497 
L 90.204852 281.771028 
L 93.624512 281.228757 
L 97.044171 280.66206 
L 100.463831 280.095364 
L 103.88349 279.528668 
L 107.30315 278.96063 
L 110.722809 278.411765 
L 114.142469 277.83533 
L 117.562129 277.258752 
L 120.981788 276.692064 
L 124.401448 276.124545 
L 127.821107 275.567166 
L 131.240767 275.079469 
L 134.660426 274.523107 
L 138.080086 273.97833 
L 141.499745 273.430117 
L 144.919405 272.905362 
L 148.339065 272.353441 
L 151.758724 271.764981 
L 155.178384 271.192522 
L 158.598043 270.650412 
L 162.017703 270.119209 
L 165.437362 269.599097 
L 168.857022 269.124852 
L 172.276681 268.578732 
L 175.696341 267.971038 
L 179.116 267.407559 
L 182.53566 266.976826 
L 185.95532 266.449153 
L 189.374979 265.904427 
L 192.794639 265.339898 
L 196.214298 264.842295 
L 199.633958 264.30743 
L 203.053617 263.788618 
L 206.473277 263.298479 
L 209.892936 262.75452 
L 213.312596 262.265719 
L 216.732256 261.779541 
L 220.151915 261.260265 
L 223.571575 260.76683 
L 226.991234 260.238738 
L 230.410894 259.755458 
L 233.830553 259.271947 
L 237.250213 258.783571 
L 240.669872 258.303964 
L 244.089532 257.821232 
L 247.509192 257.369295 
L 250.928851 256.887973 
L 254.348511 256.461345 
L 257.76817 256.045694 
L 261.18783 255.568877 
L 264.607489 255.090848 
L 268.027149 254.636822 
L 271.446808 254.186833 
L 274.866468 253.764739 
L 278.286128 253.350989 
L 281.705787 252.94187 
L 285.125447 252.503448 
L 288.545106 252.074271 
L 291.964766 251.617615 
L 295.384425 251.200948 
L 298.804085 250.766205 
L 302.223744 250.377594 
L 305.643404 249.973394 
L 309.063064 249.555234 
L 312.482723 249.134571 
L 315.902383 248.713907 
L 319.322042 248.293058 
L 322.741702 247.870943 
L 326.161361 247.403104 
L 329.581021 246.945753 
L 333.00068 246.542273 
L 336.42034 246.138792 
L 339.84 245.735312 
L 343.259659 245.331831 
L 346.679319 244.924679 
L 350.098978 244.504178 
L 353.518638 244.083678 
L 356.938297 243.663177 
L 360.357957 243.242677 
L 363.777616 242.822176 
L 367.197276 242.401676 
L 370.616935 241.981175 
L 374.036595 241.560675 
L 377.456255 241.157785 
L 380.875914 240.755743 
L 384.295574 240.353702 
L 387.715233 239.95166 
L 391.134893 239.550176 
L 394.554552 239.149576 
L 397.974212 238.748976 
L 401.393871 238.348376 
L 404.813531 237.947289 
L 408.233191 237.545558 
L 411.65285 237.143828 
L 415.07251 236.742097 
L 418.492169 236.340367 
L 421.911829 235.930569 
L 425.331488 235.535586 
L 428.751148 235.136847 
L 428.751148 222.002597 
L 428.751148 222.002597 
L 425.331488 222.530601 
L 421.911829 223.058605 
L 418.492169 223.597392 
L 415.07251 224.155477 
L 411.65285 224.714268 
L 408.233191 225.268389 
L 404.813531 225.830955 
L 401.393871 226.388806 
L 397.974212 226.947839 
L 394.554552 227.506898 
L 391.134893 228.071647 
L 387.715233 228.651323 
L 384.295574 229.230999 
L 380.875914 229.810674 
L 377.456255 230.389523 
L 374.036595 230.958723 
L 370.616935 231.527922 
L 367.197276 232.097122 
L 363.777616 232.666791 
L 360.357957 233.236763 
L 356.938297 233.806735 
L 353.518638 234.362869 
L 350.098978 234.910826 
L 346.679319 235.498688 
L 343.259659 236.073852 
L 339.84 236.644724 
L 336.42034 237.189122 
L 333.00068 237.751026 
L 329.581021 238.284039 
L 326.161361 238.862037 
L 322.741702 239.440685 
L 319.322042 239.985306 
L 315.902383 240.522498 
L 312.482723 241.058159 
L 309.063064 241.644499 
L 305.643404 242.187641 
L 302.223744 242.743885 
L 298.804085 243.26059 
L 295.384425 243.785022 
L 291.964766 244.335599 
L 288.545106 244.873248 
L 285.125447 245.411721 
L 281.705787 245.950193 
L 278.286128 246.496644 
L 274.866468 247.054647 
L 271.446808 247.612649 
L 268.027149 248.153264 
L 264.607489 248.704147 
L 261.18783 249.216988 
L 257.76817 249.723069 
L 254.348511 250.26207 
L 250.928851 250.792784 
L 247.509192 251.332823 
L 244.089532 251.876653 
L 240.669872 252.405874 
L 237.250213 252.943738 
L 233.830553 253.481845 
L 230.410894 254.019113 
L 226.991234 254.556681 
L 223.571575 255.080328 
L 220.151915 255.618625 
L 216.732256 256.136662 
L 213.312596 256.649255 
L 209.892936 257.154183 
L 206.473277 257.643763 
L 203.053617 258.119469 
L 199.633958 258.634372 
L 196.214298 259.145342 
L 192.794639 259.64441 
L 189.374979 260.150878 
L 185.95532 260.658087 
L 182.53566 261.164709 
L 179.116 261.646884 
L 175.696341 262.136444 
L 172.276681 262.622093 
L 168.857022 263.107334 
L 165.437362 263.606354 
L 162.017703 264.110562 
L 158.598043 264.590254 
L 155.178384 265.090993 
L 151.758724 265.566215 
L 148.339065 266.059387 
L 144.919405 266.520936 
L 141.499745 267.000774 
L 138.080086 267.477655 
L 134.660426 267.961291 
L 131.240767 268.435244 
L 127.821107 268.917528 
L 124.401448 269.412465 
L 120.981788 269.883423 
L 117.562129 270.355405 
L 114.142469 270.84566 
L 110.722809 271.330752 
L 107.30315 271.78626 
L 103.88349 272.225839 
L 100.463831 272.681444 
L 97.044171 273.14497 
L 93.624512 273.602309 
L 90.204852 274.022497 
z
" style="fill:#ff7f0e;fill-opacity:0.15;"/>
   </g>
   <g id="matplotlib.axis_1">
    <g id="xtick_1">
     <g id="line2d_1">
      <defs>
       <path d="M 0 0 
L 0 4.8 
" id="m50d43ca01c" style="stroke:#000000;"/>
      </defs>
      <g>
       <use style="stroke:#000000;" x="88.850667" xlink:href="#m50d43ca01c" y="310.96"/>
      </g>
     </g>
     <g id="text_1">
      <!-- 100 -->
      <defs>
       <path d="M 12.40625 8.296875 
L 28.515625 8.296875 
L 28.515625 63.921875 
L 10.984375 60.40625 
L 10.984375 69.390625 
L 28.421875 72.90625 
L 38.28125 72.90625 
L 38.28125 8.296875 
L 54.390625 8.296875 
L 54.390625 0 
L 12.40625 0 
z
" id="DejaVuSans-49"/>
       <path d="M 31.78125 66.40625 
Q 24.171875 66.40625 20.328125 58.90625 
Q 16.5 51.421875 16.5 36.375 
Q 16.5 21.390625 20.328125 13.890625 
Q 24.171875 6.390625 31.78125 6.390625 
Q 39.453125 6.390625 43.28125 13.890625 
Q 47.125 21.390625 47.125 36.375 
Q 47.125 51.421875 43.28125 58.90625 
Q 39.453125 66.40625 31.78125 66.40625 
z
M 31.78125 74.21875 
Q 44.046875 74.21875 50.515625 64.515625 
Q 56.984375 54.828125 56.984375 36.375 
Q 56.984375 17.96875 50.515625 8.265625 
Q 44.046875 -1.421875 31.78125 -1.421875 
Q 19.53125 -1.421875 13.0625 8.265625 
Q 6.59375 17.96875 6.59375 36.375 
Q 6.59375 54.828125 13.0625 64.515625 
Q 19.53125 74.21875 31.78125 74.21875 
z
" id="DejaVuSans-48"/>
      </defs>
      <g transform="translate(72.053667 332.63325)scale(0.176 -0.176)">
       <use xlink:href="#DejaVuSans-49"/>
       <use x="63.623047" xlink:href="#DejaVuSans-48"/>
       <use x="127.246094" xlink:href="#DejaVuSans-48"/>
      </g>
     </g>
    </g>
    <g id="xtick_2">
     <g id="line2d_2">
      <g>
       <use style="stroke:#000000;" x="156.559926" xlink:href="#m50d43ca01c" y="310.96"/>
      </g>
     </g>
     <g id="text_2">
      <!-- 150 -->
      <defs>
       <path d="M 10.796875 72.90625 
L 49.515625 72.90625 
L 49.515625 64.59375 
L 19.828125 64.59375 
L 19.828125 46.734375 
Q 21.96875 47.46875 24.109375 47.828125 
Q 26.265625 48.1875 28.421875 48.1875 
Q 40.625 48.1875 47.75 41.5 
Q 54.890625 34.8125 54.890625 23.390625 
Q 54.890625 11.625 47.5625 5.09375 
Q 40.234375 -1.421875 26.90625 -1.421875 
Q 22.3125 -1.421875 17.546875 -0.640625 
Q 12.796875 0.140625 7.71875 1.703125 
L 7.71875 11.625 
Q 12.109375 9.234375 16.796875 8.0625 
Q 21.484375 6.890625 26.703125 6.890625 
Q 35.15625 6.890625 40.078125 11.328125 
Q 45.015625 15.765625 45.015625 23.390625 
Q 45.015625 31 40.078125 35.4375 
Q 35.15625 39.890625 26.703125 39.890625 
Q 22.75 39.890625 18.8125 39.015625 
Q 14.890625 38.140625 10.796875 36.28125 
z
" id="DejaVuSans-53"/>
      </defs>
      <g transform="translate(139.762926 332.63325)scale(0.176 -0.176)">
       <use xlink:href="#DejaVuSans-49"/>
       <use x="63.623047" xlink:href="#DejaVuSans-53"/>
       <use x="127.246094" xlink:href="#DejaVuSans-48"/>
      </g>
     </g>
    </g>
    <g id="xtick_3">
     <g id="line2d_3">
      <g>
       <use style="stroke:#000000;" x="224.269185" xlink:href="#m50d43ca01c" y="310.96"/>
      </g>
     </g>
     <g id="text_3">
      <!-- 200 -->
      <defs>
       <path d="M 19.1875 8.296875 
L 53.609375 8.296875 
L 53.609375 0 
L 7.328125 0 
L 7.328125 8.296875 
Q 12.9375 14.109375 22.625 23.890625 
Q 32.328125 33.6875 34.8125 36.53125 
Q 39.546875 41.84375 41.421875 45.53125 
Q 43.3125 49.21875 43.3125 52.78125 
Q 43.3125 58.59375 39.234375 62.25 
Q 35.15625 65.921875 28.609375 65.921875 
Q 23.96875 65.921875 18.8125 64.3125 
Q 13.671875 62.703125 7.8125 59.421875 
L 7.8125 69.390625 
Q 13.765625 71.78125 18.9375 73 
Q 24.125 74.21875 28.421875 74.21875 
Q 39.75 74.21875 46.484375 68.546875 
Q 53.21875 62.890625 53.21875 53.421875 
Q 53.21875 48.921875 51.53125 44.890625 
Q 49.859375 40.875 45.40625 35.40625 
Q 44.1875 33.984375 37.640625 27.21875 
Q 31.109375 20.453125 19.1875 8.296875 
z
" id="DejaVuSans-50"/>
      </defs>
      <g transform="translate(207.472185 332.63325)scale(0.176 -0.176)">
       <use xlink:href="#DejaVuSans-50"/>
       <use x="63.623047" xlink:href="#DejaVuSans-48"/>
       <use x="127.246094" xlink:href="#DejaVuSans-48"/>
      </g>
     </g>
    </g>
    <g id="xtick_4">
     <g id="line2d_4">
      <g>
       <use style="stroke:#000000;" x="291.978444" xlink:href="#m50d43ca01c" y="310.96"/>
      </g>
     </g>
     <g id="text_4">
      <!-- 250 -->
      <g transform="translate(275.181444 332.63325)scale(0.176 -0.176)">
       <use xlink:href="#DejaVuSans-50"/>
       <use x="63.623047" xlink:href="#DejaVuSans-53"/>
       <use x="127.246094" xlink:href="#DejaVuSans-48"/>
      </g>
     </g>
    </g>
    <g id="xtick_5">
     <g id="line2d_5">
      <g>
       <use style="stroke:#000000;" x="359.687704" xlink:href="#m50d43ca01c" y="310.96"/>
      </g>
     </g>
     <g id="text_5">
      <!-- 300 -->
      <defs>
       <path d="M 40.578125 39.3125 
Q 47.65625 37.796875 51.625 33 
Q 55.609375 28.21875 55.609375 21.1875 
Q 55.609375 10.40625 48.1875 4.484375 
Q 40.765625 -1.421875 27.09375 -1.421875 
Q 22.515625 -1.421875 17.65625 -0.515625 
Q 12.796875 0.390625 7.625 2.203125 
L 7.625 11.71875 
Q 11.71875 9.328125 16.59375 8.109375 
Q 21.484375 6.890625 26.8125 6.890625 
Q 36.078125 6.890625 40.9375 10.546875 
Q 45.796875 14.203125 45.796875 21.1875 
Q 45.796875 27.640625 41.28125 31.265625 
Q 36.765625 34.90625 28.71875 34.90625 
L 20.21875 34.90625 
L 20.21875 43.015625 
L 29.109375 43.015625 
Q 36.375 43.015625 40.234375 45.921875 
Q 44.09375 48.828125 44.09375 54.296875 
Q 44.09375 59.90625 40.109375 62.90625 
Q 36.140625 65.921875 28.71875 65.921875 
Q 24.65625 65.921875 20.015625 65.03125 
Q 15.375 64.15625 9.8125 62.3125 
L 9.8125 71.09375 
Q 15.4375 72.65625 20.34375 73.4375 
Q 25.25 74.21875 29.59375 74.21875 
Q 40.828125 74.21875 47.359375 69.109375 
Q 53.90625 64.015625 53.90625 55.328125 
Q 53.90625 49.265625 50.4375 45.09375 
Q 46.96875 40.921875 40.578125 39.3125 
z
" id="DejaVuSans-51"/>
      </defs>
      <g transform="translate(342.890704 332.63325)scale(0.176 -0.176)">
       <use xlink:href="#DejaVuSans-51"/>
       <use x="63.623047" xlink:href="#DejaVuSans-48"/>
       <use x="127.246094" xlink:href="#DejaVuSans-48"/>
      </g>
     </g>
    </g>
    <g id="xtick_6">
     <g id="line2d_6">
      <g>
       <use style="stroke:#000000;" x="427.396963" xlink:href="#m50d43ca01c" y="310.96"/>
      </g>
     </g>
     <g id="text_6">
      <!-- 350 -->
      <g transform="translate(410.599963 332.63325)scale(0.176 -0.176)">
       <use xlink:href="#DejaVuSans-51"/>
       <use x="63.623047" xlink:href="#DejaVuSans-53"/>
       <use x="127.246094" xlink:href="#DejaVuSans-48"/>
      </g>
     </g>
    </g>
    <g id="text_7">
     <!-- Number of samples -->
     <defs>
      <path d="M 9.8125 72.90625 
L 23.09375 72.90625 
L 55.421875 11.921875 
L 55.421875 72.90625 
L 64.984375 72.90625 
L 64.984375 0 
L 51.703125 0 
L 19.390625 60.984375 
L 19.390625 0 
L 9.8125 0 
z
" id="DejaVuSans-78"/>
      <path d="M 8.5 21.578125 
L 8.5 54.6875 
L 17.484375 54.6875 
L 17.484375 21.921875 
Q 17.484375 14.15625 20.5 10.265625 
Q 23.53125 6.390625 29.59375 6.390625 
Q 36.859375 6.390625 41.078125 11.03125 
Q 45.3125 15.671875 45.3125 23.6875 
L 45.3125 54.6875 
L 54.296875 54.6875 
L 54.296875 0 
L 45.3125 0 
L 45.3125 8.40625 
Q 42.046875 3.421875 37.71875 1 
Q 33.40625 -1.421875 27.6875 -1.421875 
Q 18.265625 -1.421875 13.375 4.4375 
Q 8.5 10.296875 8.5 21.578125 
z
M 31.109375 56 
z
" id="DejaVuSans-117"/>
      <path d="M 52 44.1875 
Q 55.375 50.25 60.0625 53.125 
Q 64.75 56 71.09375 56 
Q 79.640625 56 84.28125 50.015625 
Q 88.921875 44.046875 88.921875 33.015625 
L 88.921875 0 
L 79.890625 0 
L 79.890625 32.71875 
Q 79.890625 40.578125 77.09375 44.375 
Q 74.3125 48.1875 68.609375 48.1875 
Q 61.625 48.1875 57.5625 43.546875 
Q 53.515625 38.921875 53.515625 30.90625 
L 53.515625 0 
L 44.484375 0 
L 44.484375 32.71875 
Q 44.484375 40.625 41.703125 44.40625 
Q 38.921875 48.1875 33.109375 48.1875 
Q 26.21875 48.1875 22.15625 43.53125 
Q 18.109375 38.875 18.109375 30.90625 
L 18.109375 0 
L 9.078125 0 
L 9.078125 54.6875 
L 18.109375 54.6875 
L 18.109375 46.1875 
Q 21.1875 51.21875 25.484375 53.609375 
Q 29.78125 56 35.6875 56 
Q 41.65625 56 45.828125 52.96875 
Q 50 49.953125 52 44.1875 
z
" id="DejaVuSans-109"/>
      <path d="M 48.6875 27.296875 
Q 48.6875 37.203125 44.609375 42.84375 
Q 40.53125 48.484375 33.40625 48.484375 
Q 26.265625 48.484375 22.1875 42.84375 
Q 18.109375 37.203125 18.109375 27.296875 
Q 18.109375 17.390625 22.1875 11.75 
Q 26.265625 6.109375 33.40625 6.109375 
Q 40.53125 6.109375 44.609375 11.75 
Q 48.6875 17.390625 48.6875 27.296875 
z
M 18.109375 46.390625 
Q 20.953125 51.265625 25.265625 53.625 
Q 29.59375 56 35.59375 56 
Q 45.5625 56 51.78125 48.09375 
Q 58.015625 40.1875 58.015625 27.296875 
Q 58.015625 14.40625 51.78125 6.484375 
Q 45.5625 -1.421875 35.59375 -1.421875 
Q 29.59375 -1.421875 25.265625 0.953125 
Q 20.953125 3.328125 18.109375 8.203125 
L 18.109375 0 
L 9.078125 0 
L 9.078125 75.984375 
L 18.109375 75.984375 
z
" id="DejaVuSans-98"/>
      <path d="M 56.203125 29.59375 
L 56.203125 25.203125 
L 14.890625 25.203125 
Q 15.484375 15.921875 20.484375 11.0625 
Q 25.484375 6.203125 34.421875 6.203125 
Q 39.59375 6.203125 44.453125 7.46875 
Q 49.3125 8.734375 54.109375 11.28125 
L 54.109375 2.78125 
Q 49.265625 0.734375 44.1875 -0.34375 
Q 39.109375 -1.421875 33.890625 -1.421875 
Q 20.796875 -1.421875 13.15625 6.1875 
Q 5.515625 13.8125 5.515625 26.8125 
Q 5.515625 40.234375 12.765625 48.109375 
Q 20.015625 56 32.328125 56 
Q 43.359375 56 49.78125 48.890625 
Q 56.203125 41.796875 56.203125 29.59375 
z
M 47.21875 32.234375 
Q 47.125 39.59375 43.09375 43.984375 
Q 39.0625 48.390625 32.421875 48.390625 
Q 24.90625 48.390625 20.390625 44.140625 
Q 15.875 39.890625 15.1875 32.171875 
z
" id="DejaVuSans-101"/>
      <path d="M 41.109375 46.296875 
Q 39.59375 47.171875 37.8125 47.578125 
Q 36.03125 48 33.890625 48 
Q 26.265625 48 22.1875 43.046875 
Q 18.109375 38.09375 18.109375 28.8125 
L 18.109375 0 
L 9.078125 0 
L 9.078125 54.6875 
L 18.109375 54.6875 
L 18.109375 46.1875 
Q 20.953125 51.171875 25.484375 53.578125 
Q 30.03125 56 36.53125 56 
Q 37.453125 56 38.578125 55.875 
Q 39.703125 55.765625 41.0625 55.515625 
z
" id="DejaVuSans-114"/>
      <path id="DejaVuSans-32"/>
      <path d="M 30.609375 48.390625 
Q 23.390625 48.390625 19.1875 42.75 
Q 14.984375 37.109375 14.984375 27.296875 
Q 14.984375 17.484375 19.15625 11.84375 
Q 23.34375 6.203125 30.609375 6.203125 
Q 37.796875 6.203125 41.984375 11.859375 
Q 46.1875 17.53125 46.1875 27.296875 
Q 46.1875 37.015625 41.984375 42.703125 
Q 37.796875 48.390625 30.609375 48.390625 
z
M 30.609375 56 
Q 42.328125 56 49.015625 48.375 
Q 55.71875 40.765625 55.71875 27.296875 
Q 55.71875 13.875 49.015625 6.21875 
Q 42.328125 -1.421875 30.609375 -1.421875 
Q 18.84375 -1.421875 12.171875 6.21875 
Q 5.515625 13.875 5.515625 27.296875 
Q 5.515625 40.765625 12.171875 48.375 
Q 18.84375 56 30.609375 56 
z
" id="DejaVuSans-111"/>
      <path d="M 37.109375 75.984375 
L 37.109375 68.5 
L 28.515625 68.5 
Q 23.6875 68.5 21.796875 66.546875 
Q 19.921875 64.59375 19.921875 59.515625 
L 19.921875 54.6875 
L 34.71875 54.6875 
L 34.71875 47.703125 
L 19.921875 47.703125 
L 19.921875 0 
L 10.890625 0 
L 10.890625 47.703125 
L 2.296875 47.703125 
L 2.296875 54.6875 
L 10.890625 54.6875 
L 10.890625 58.5 
Q 10.890625 67.625 15.140625 71.796875 
Q 19.390625 75.984375 28.609375 75.984375 
z
" id="DejaVuSans-102"/>
      <path d="M 44.28125 53.078125 
L 44.28125 44.578125 
Q 40.484375 46.53125 36.375 47.5 
Q 32.28125 48.484375 27.875 48.484375 
Q 21.1875 48.484375 17.84375 46.4375 
Q 14.5 44.390625 14.5 40.28125 
Q 14.5 37.15625 16.890625 35.375 
Q 19.28125 33.59375 26.515625 31.984375 
L 29.59375 31.296875 
Q 39.15625 29.25 43.1875 25.515625 
Q 47.21875 21.78125 47.21875 15.09375 
Q 47.21875 7.46875 41.1875 3.015625 
Q 35.15625 -1.421875 24.609375 -1.421875 
Q 20.21875 -1.421875 15.453125 -0.5625 
Q 10.6875 0.296875 5.421875 2 
L 5.421875 11.28125 
Q 10.40625 8.6875 15.234375 7.390625 
Q 20.0625 6.109375 24.8125 6.109375 
Q 31.15625 6.109375 34.5625 8.28125 
Q 37.984375 10.453125 37.984375 14.40625 
Q 37.984375 18.0625 35.515625 20.015625 
Q 33.0625 21.96875 24.703125 23.78125 
L 21.578125 24.515625 
Q 13.234375 26.265625 9.515625 29.90625 
Q 5.8125 33.546875 5.8125 39.890625 
Q 5.8125 47.609375 11.28125 51.796875 
Q 16.75 56 26.8125 56 
Q 31.78125 56 36.171875 55.265625 
Q 40.578125 54.546875 44.28125 53.078125 
z
" id="DejaVuSans-115"/>
      <path d="M 34.28125 27.484375 
Q 23.390625 27.484375 19.1875 25 
Q 14.984375 22.515625 14.984375 16.5 
Q 14.984375 11.71875 18.140625 8.90625 
Q 21.296875 6.109375 26.703125 6.109375 
Q 34.1875 6.109375 38.703125 11.40625 
Q 43.21875 16.703125 43.21875 25.484375 
L 43.21875 27.484375 
z
M 52.203125 31.203125 
L 52.203125 0 
L 43.21875 0 
L 43.21875 8.296875 
Q 40.140625 3.328125 35.546875 0.953125 
Q 30.953125 -1.421875 24.3125 -1.421875 
Q 15.921875 -1.421875 10.953125 3.296875 
Q 6 8.015625 6 15.921875 
Q 6 25.140625 12.171875 29.828125 
Q 18.359375 34.515625 30.609375 34.515625 
L 43.21875 34.515625 
L 43.21875 35.40625 
Q 43.21875 41.609375 39.140625 45 
Q 35.0625 48.390625 27.6875 48.390625 
Q 23 48.390625 18.546875 47.265625 
Q 14.109375 46.140625 10.015625 43.890625 
L 10.015625 52.203125 
Q 14.9375 54.109375 19.578125 55.046875 
Q 24.21875 56 28.609375 56 
Q 40.484375 56 46.34375 49.84375 
Q 52.203125 43.703125 52.203125 31.203125 
z
" id="DejaVuSans-97"/>
      <path d="M 18.109375 8.203125 
L 18.109375 -20.796875 
L 9.078125 -20.796875 
L 9.078125 54.6875 
L 18.109375 54.6875 
L 18.109375 46.390625 
Q 20.953125 51.265625 25.265625 53.625 
Q 29.59375 56 35.59375 56 
Q 45.5625 56 51.78125 48.09375 
Q 58.015625 40.1875 58.015625 27.296875 
Q 58.015625 14.40625 51.78125 6.484375 
Q 45.5625 -1.421875 35.59375 -1.421875 
Q 29.59375 -1.421875 25.265625 0.953125 
Q 20.953125 3.328125 18.109375 8.203125 
z
M 48.6875 27.296875 
Q 48.6875 37.203125 44.609375 42.84375 
Q 40.53125 48.484375 33.40625 48.484375 
Q 26.265625 48.484375 22.1875 42.84375 
Q 18.109375 37.203125 18.109375 27.296875 
Q 18.109375 17.390625 22.1875 11.75 
Q 26.265625 6.109375 33.40625 6.109375 
Q 40.53125 6.109375 44.609375 11.75 
Q 48.6875 17.390625 48.6875 27.296875 
z
" id="DejaVuSans-112"/>
      <path d="M 9.421875 75.984375 
L 18.40625 75.984375 
L 18.40625 0 
L 9.421875 0 
z
" id="DejaVuSans-108"/>
     </defs>
     <g transform="translate(165.653 354.8825)scale(0.192 -0.192)">
      <use xlink:href="#DejaVuSans-78"/>
      <use x="74.804688" xlink:href="#DejaVuSans-117"/>
      <use x="138.183594" xlink:href="#DejaVuSans-109"/>
      <use x="235.595703" xlink:href="#DejaVuSans-98"/>
      <use x="299.072266" xlink:href="#DejaVuSans-101"/>
      <use x="360.595703" xlink:href="#DejaVuSans-114"/>
      <use x="401.708984" xlink:href="#DejaVuSans-32"/>
      <use x="433.496094" xlink:href="#DejaVuSans-111"/>
      <use x="494.677734" xlink:href="#DejaVuSans-102"/>
      <use x="529.882812" xlink:href="#DejaVuSans-32"/>
      <use x="561.669922" xlink:href="#DejaVuSans-115"/>
      <use x="613.769531" xlink:href="#DejaVuSans-97"/>
      <use x="675.048828" xlink:href="#DejaVuSans-109"/>
      <use x="772.460938" xlink:href="#DejaVuSans-112"/>
      <use x="835.9375" xlink:href="#DejaVuSans-108"/>
      <use x="863.720703" xlink:href="#DejaVuSans-101"/>
      <use x="925.244141" xlink:href="#DejaVuSans-115"/>
     </g>
    </g>
   </g>
   <g id="matplotlib.axis_2">
    <g id="ytick_1">
     <g id="line2d_7">
      <path clip-path="url(#p585b5e132e)" d="M 70.478 286.658747 
L 448.478 286.658747 
" style="fill:none;stroke:#b0b0b0;stroke-linecap:square;stroke-opacity:0.5;stroke-width:0.8;"/>
     </g>
     <g id="line2d_8">
      <defs>
       <path d="M 0 0 
L -4.8 0 
" id="m6180f580d5" style="stroke:#000000;"/>
      </defs>
      <g>
       <use style="stroke:#000000;" x="60.478" xlink:href="#m6180f580d5" y="286.658747"/>
      </g>
     </g>
     <g id="text_8">
      <!-- 0 -->
      <g transform="translate(40.98 293.345372)scale(0.176 -0.176)">
       <use xlink:href="#DejaVuSans-48"/>
      </g>
     </g>
    </g>
    <g id="ytick_2">
     <g id="line2d_9">
      <path clip-path="url(#p585b5e132e)" d="M 70.478 227.60446 
L 448.478 227.60446 
" style="fill:none;stroke:#b0b0b0;stroke-linecap:square;stroke-opacity:0.5;stroke-width:0.8;"/>
     </g>
     <g id="line2d_10">
      <g>
       <use style="stroke:#000000;" x="60.478" xlink:href="#m6180f580d5" y="227.60446"/>
      </g>
     </g>
     <g id="text_9">
      <!-- 5 -->
      <g transform="translate(40.98 234.291085)scale(0.176 -0.176)">
       <use xlink:href="#DejaVuSans-53"/>
      </g>
     </g>
    </g>
    <g id="ytick_3">
     <g id="line2d_11">
      <path clip-path="url(#p585b5e132e)" d="M 70.478 168.550173 
L 448.478 168.550173 
" style="fill:none;stroke:#b0b0b0;stroke-linecap:square;stroke-opacity:0.5;stroke-width:0.8;"/>
     </g>
     <g id="line2d_12">
      <g>
       <use style="stroke:#000000;" x="60.478" xlink:href="#m6180f580d5" y="168.550173"/>
      </g>
     </g>
     <g id="text_10">
      <!-- 10 -->
      <g transform="translate(29.782 175.236798)scale(0.176 -0.176)">
       <use xlink:href="#DejaVuSans-49"/>
       <use x="63.623047" xlink:href="#DejaVuSans-48"/>
      </g>
     </g>
    </g>
    <g id="ytick_4">
     <g id="line2d_13">
      <path clip-path="url(#p585b5e132e)" d="M 70.478 109.495885 
L 448.478 109.495885 
" style="fill:none;stroke:#b0b0b0;stroke-linecap:square;stroke-opacity:0.5;stroke-width:0.8;"/>
     </g>
     <g id="line2d_14">
      <g>
       <use style="stroke:#000000;" x="60.478" xlink:href="#m6180f580d5" y="109.495885"/>
      </g>
     </g>
     <g id="text_11">
      <!-- 15 -->
      <g transform="translate(29.782 116.18251)scale(0.176 -0.176)">
       <use xlink:href="#DejaVuSans-49"/>
       <use x="63.623047" xlink:href="#DejaVuSans-53"/>
      </g>
     </g>
    </g>
    <g id="ytick_5">
     <g id="line2d_15">
      <path clip-path="url(#p585b5e132e)" d="M 70.478 50.441598 
L 448.478 50.441598 
" style="fill:none;stroke:#b0b0b0;stroke-linecap:square;stroke-opacity:0.5;stroke-width:0.8;"/>
     </g>
     <g id="line2d_16">
      <g>
       <use style="stroke:#000000;" x="60.478" xlink:href="#m6180f580d5" y="50.441598"/>
      </g>
     </g>
     <g id="text_12">
      <!-- 20 -->
      <g transform="translate(29.782 57.128223)scale(0.176 -0.176)">
       <use xlink:href="#DejaVuSans-50"/>
       <use x="63.623047" xlink:href="#DejaVuSans-48"/>
      </g>
     </g>
    </g>
    <g id="text_13">
     <!-- Runtime (s) -->
     <defs>
      <path d="M 44.390625 34.1875 
Q 47.5625 33.109375 50.5625 29.59375 
Q 53.5625 26.078125 56.59375 19.921875 
L 66.609375 0 
L 56 0 
L 46.6875 18.703125 
Q 43.0625 26.03125 39.671875 28.421875 
Q 36.28125 30.8125 30.421875 30.8125 
L 19.671875 30.8125 
L 19.671875 0 
L 9.8125 0 
L 9.8125 72.90625 
L 32.078125 72.90625 
Q 44.578125 72.90625 50.734375 67.671875 
Q 56.890625 62.453125 56.890625 51.90625 
Q 56.890625 45.015625 53.6875 40.46875 
Q 50.484375 35.9375 44.390625 34.1875 
z
M 19.671875 64.796875 
L 19.671875 38.921875 
L 32.078125 38.921875 
Q 39.203125 38.921875 42.84375 42.21875 
Q 46.484375 45.515625 46.484375 51.90625 
Q 46.484375 58.296875 42.84375 61.546875 
Q 39.203125 64.796875 32.078125 64.796875 
z
" id="DejaVuSans-82"/>
      <path d="M 54.890625 33.015625 
L 54.890625 0 
L 45.90625 0 
L 45.90625 32.71875 
Q 45.90625 40.484375 42.875 44.328125 
Q 39.84375 48.1875 33.796875 48.1875 
Q 26.515625 48.1875 22.3125 43.546875 
Q 18.109375 38.921875 18.109375 30.90625 
L 18.109375 0 
L 9.078125 0 
L 9.078125 54.6875 
L 18.109375 54.6875 
L 18.109375 46.1875 
Q 21.34375 51.125 25.703125 53.5625 
Q 30.078125 56 35.796875 56 
Q 45.21875 56 50.046875 50.171875 
Q 54.890625 44.34375 54.890625 33.015625 
z
" id="DejaVuSans-110"/>
      <path d="M 18.3125 70.21875 
L 18.3125 54.6875 
L 36.8125 54.6875 
L 36.8125 47.703125 
L 18.3125 47.703125 
L 18.3125 18.015625 
Q 18.3125 11.328125 20.140625 9.421875 
Q 21.96875 7.515625 27.59375 7.515625 
L 36.8125 7.515625 
L 36.8125 0 
L 27.59375 0 
Q 17.1875 0 13.234375 3.875 
Q 9.28125 7.765625 9.28125 18.015625 
L 9.28125 47.703125 
L 2.6875 47.703125 
L 2.6875 54.6875 
L 9.28125 54.6875 
L 9.28125 70.21875 
z
" id="DejaVuSans-116"/>
      <path d="M 9.421875 54.6875 
L 18.40625 54.6875 
L 18.40625 0 
L 9.421875 0 
z
M 9.421875 75.984375 
L 18.40625 75.984375 
L 18.40625 64.59375 
L 9.421875 64.59375 
z
" id="DejaVuSans-105"/>
      <path d="M 31 75.875 
Q 24.46875 64.65625 21.28125 53.65625 
Q 18.109375 42.671875 18.109375 31.390625 
Q 18.109375 20.125 21.3125 9.0625 
Q 24.515625 -2 31 -13.1875 
L 23.1875 -13.1875 
Q 15.875 -1.703125 12.234375 9.375 
Q 8.59375 20.453125 8.59375 31.390625 
Q 8.59375 42.28125 12.203125 53.3125 
Q 15.828125 64.359375 23.1875 75.875 
z
" id="DejaVuSans-40"/>
      <path d="M 8.015625 75.875 
L 15.828125 75.875 
Q 23.140625 64.359375 26.78125 53.3125 
Q 30.421875 42.28125 30.421875 31.390625 
Q 30.421875 20.453125 26.78125 9.375 
Q 23.140625 -1.703125 15.828125 -13.1875 
L 8.015625 -13.1875 
Q 14.5 -2 17.703125 9.0625 
Q 20.90625 20.125 20.90625 31.390625 
Q 20.90625 42.671875 17.703125 53.65625 
Q 14.5 64.65625 8.015625 75.875 
z
" id="DejaVuSans-41"/>
     </defs>
     <g transform="translate(21.789 216.624)rotate(-90)scale(0.192 -0.192)">
      <use xlink:href="#DejaVuSans-82"/>
      <use x="69.419922" xlink:href="#DejaVuSans-117"/>
      <use x="132.798828" xlink:href="#DejaVuSans-110"/>
      <use x="196.177734" xlink:href="#DejaVuSans-116"/>
      <use x="235.386719" xlink:href="#DejaVuSans-105"/>
      <use x="263.169922" xlink:href="#DejaVuSans-109"/>
      <use x="360.582031" xlink:href="#DejaVuSans-101"/>
      <use x="422.105469" xlink:href="#DejaVuSans-32"/>
      <use x="453.892578" xlink:href="#DejaVuSans-40"/>
      <use x="492.90625" xlink:href="#DejaVuSans-115"/>
      <use x="545.005859" xlink:href="#DejaVuSans-41"/>
     </g>
    </g>
   </g>
   <g id="line2d_17">
    <path clip-path="url(#p585b5e132e)" d="M 90.204852 267.804991 
L 90.204852 245.095748 
" style="fill:none;stroke:#1f77b4;stroke-linecap:square;stroke-width:2.1;"/>
   </g>
   <g id="line2d_18">
    <path clip-path="url(#p585b5e132e)" d="M 157.914111 250.218767 
L 157.914111 215.365491 
" style="fill:none;stroke:#1f77b4;stroke-linecap:square;stroke-width:2.1;"/>
   </g>
   <g id="line2d_19">
    <path clip-path="url(#p585b5e132e)" d="M 225.62337 218.516232 
L 225.62337 186.232049 
" style="fill:none;stroke:#1f77b4;stroke-linecap:square;stroke-width:2.1;"/>
   </g>
   <g id="line2d_20">
    <path clip-path="url(#p585b5e132e)" d="M 293.33263 211.715956 
L 293.33263 156.581246 
" style="fill:none;stroke:#1f77b4;stroke-linecap:square;stroke-width:2.1;"/>
   </g>
   <g id="line2d_21">
    <path clip-path="url(#p585b5e132e)" d="M 361.041889 161.032128 
L 361.041889 82.080918 
" style="fill:none;stroke:#1f77b4;stroke-linecap:square;stroke-width:2.1;"/>
   </g>
   <g id="line2d_22">
    <path clip-path="url(#p585b5e132e)" d="M 428.751148 78.36518 
L 428.751148 32.923636 
" style="fill:none;stroke:#1f77b4;stroke-linecap:square;stroke-width:2.1;"/>
   </g>
   <g id="line2d_23">
    <path clip-path="url(#p585b5e132e)" d="M 90.204852 271.634221 
L 93.624512 269.711537 
L 97.044171 267.788853 
L 100.463831 265.866169 
L 103.88349 263.943485 
L 107.30315 262.020801 
L 110.722809 260.098117 
L 114.142469 258.175433 
L 117.562129 256.252748 
L 120.981788 254.330064 
L 124.401448 252.40738 
L 127.821107 250.484696 
L 131.240767 248.562012 
L 134.660426 246.639328 
L 138.080086 244.716644 
L 141.499745 242.79396 
L 144.919405 240.871276 
L 148.339065 238.948591 
L 151.758724 237.025907 
L 155.178384 235.103223 
L 158.598043 233.180539 
L 162.017703 231.257855 
L 165.437362 229.335171 
L 168.857022 227.412487 
L 172.276681 225.489803 
L 175.696341 223.567119 
L 179.116 221.644434 
L 182.53566 219.72175 
L 185.95532 217.799066 
L 189.374979 215.876382 
L 192.794639 213.953698 
L 196.214298 212.031014 
L 199.633958 210.10833 
L 203.053617 208.185646 
L 206.473277 206.262962 
L 209.892936 204.340277 
L 213.312596 202.417593 
L 216.732256 200.494909 
L 220.151915 198.572225 
L 223.571575 196.649541 
L 226.991234 194.726857 
L 230.410894 192.804173 
L 233.830553 190.881489 
L 237.250213 188.958804 
L 240.669872 187.03612 
L 244.089532 185.113436 
L 247.509192 183.190752 
L 250.928851 181.268068 
L 254.348511 179.345384 
L 257.76817 177.4227 
L 261.18783 175.500016 
L 264.607489 173.577332 
L 268.027149 171.654647 
L 271.446808 169.731963 
L 274.866468 167.809279 
L 278.286128 165.886595 
L 281.705787 163.963911 
L 285.125447 162.041227 
L 288.545106 160.118543 
L 291.964766 158.195859 
L 295.384425 156.273175 
L 298.804085 154.35049 
L 302.223744 152.427806 
L 305.643404 150.505122 
L 309.063064 148.582438 
L 312.482723 146.659754 
L 315.902383 144.73707 
L 319.322042 142.814386 
L 322.741702 140.891702 
L 326.161361 138.969018 
L 329.581021 137.046333 
L 333.00068 135.123649 
L 336.42034 133.200965 
L 339.84 131.278281 
L 343.259659 129.355597 
L 346.679319 127.432913 
L 350.098978 125.510229 
L 353.518638 123.587545 
L 356.938297 121.66486 
L 360.357957 119.742176 
L 363.777616 117.819492 
L 367.197276 115.896808 
L 370.616935 113.974124 
L 374.036595 112.05144 
L 377.456255 110.128756 
L 380.875914 108.206072 
L 384.295574 106.283388 
L 387.715233 104.360703 
L 391.134893 102.438019 
L 394.554552 100.515335 
L 397.974212 98.592651 
L 401.393871 96.669967 
L 404.813531 94.747283 
L 408.233191 92.824599 
L 411.65285 90.901915 
L 415.07251 88.979231 
L 418.492169 87.056546 
L 421.911829 85.133862 
L 425.331488 83.211178 
L 428.751148 81.288494 
" style="fill:none;stroke:#1f77b4;stroke-linecap:square;stroke-width:1.8;"/>
   </g>
   <g id="line2d_24">
    <path clip-path="url(#p585b5e132e)" d="M 90.204852 276.352568 
L 90.204852 272.560056 
" style="fill:none;stroke:#ff7f0e;stroke-linecap:square;stroke-width:2.1;"/>
   </g>
   <g id="line2d_25">
    <path clip-path="url(#p585b5e132e)" d="M 157.914111 273.258014 
L 157.914111 260.713763 
" style="fill:none;stroke:#ff7f0e;stroke-linecap:square;stroke-width:2.1;"/>
   </g>
   <g id="line2d_26">
    <path clip-path="url(#p585b5e132e)" d="M 225.62337 259.50586 
L 225.62337 252.259653 
" style="fill:none;stroke:#ff7f0e;stroke-linecap:square;stroke-width:2.1;"/>
   </g>
   <g id="line2d_27">
    <path clip-path="url(#p585b5e132e)" d="M 293.33263 262.361694 
L 293.33263 253.04232 
" style="fill:none;stroke:#ff7f0e;stroke-linecap:square;stroke-width:2.1;"/>
   </g>
   <g id="line2d_28">
    <path clip-path="url(#p585b5e132e)" d="M 361.041889 248.445908 
L 361.041889 229.358064 
" style="fill:none;stroke:#ff7f0e;stroke-linecap:square;stroke-width:2.1;"/>
   </g>
   <g id="line2d_29">
    <path clip-path="url(#p585b5e132e)" d="M 428.751148 228.320684 
L 428.751148 214.827183 
" style="fill:none;stroke:#ff7f0e;stroke-linecap:square;stroke-width:2.1;"/>
   </g>
   <g id="line2d_30">
    <path clip-path="url(#p585b5e132e)" d="M 90.204852 277.478793 
L 93.624512 276.975352 
L 97.044171 276.471911 
L 100.463831 275.96847 
L 103.88349 275.465029 
L 107.30315 274.961588 
L 110.722809 274.458148 
L 114.142469 273.954707 
L 117.562129 273.451266 
L 120.981788 272.947825 
L 124.401448 272.444384 
L 127.821107 271.940943 
L 131.240767 271.437502 
L 134.660426 270.934062 
L 138.080086 270.430621 
L 141.499745 269.92718 
L 144.919405 269.423739 
L 148.339065 268.920298 
L 151.758724 268.416857 
L 155.178384 267.913417 
L 158.598043 267.409976 
L 162.017703 266.906535 
L 165.437362 266.403094 
L 168.857022 265.899653 
L 172.276681 265.396212 
L 175.696341 264.892771 
L 179.116 264.389331 
L 182.53566 263.88589 
L 185.95532 263.382449 
L 189.374979 262.879008 
L 192.794639 262.375567 
L 196.214298 261.872126 
L 199.633958 261.368686 
L 203.053617 260.865245 
L 206.473277 260.361804 
L 209.892936 259.858363 
L 213.312596 259.354922 
L 216.732256 258.851481 
L 220.151915 258.34804 
L 223.571575 257.8446 
L 226.991234 257.341159 
L 230.410894 256.837718 
L 233.830553 256.334277 
L 237.250213 255.830836 
L 240.669872 255.327395 
L 244.089532 254.823955 
L 247.509192 254.320514 
L 250.928851 253.817073 
L 254.348511 253.313632 
L 257.76817 252.810191 
L 261.18783 252.30675 
L 264.607489 251.803309 
L 268.027149 251.299869 
L 271.446808 250.796428 
L 274.866468 250.292987 
L 278.286128 249.789546 
L 281.705787 249.286105 
L 285.125447 248.782664 
L 288.545106 248.279223 
L 291.964766 247.775783 
L 295.384425 247.272342 
L 298.804085 246.768901 
L 302.223744 246.26546 
L 305.643404 245.762019 
L 309.063064 245.258578 
L 312.482723 244.755138 
L 315.902383 244.251697 
L 319.322042 243.748256 
L 322.741702 243.244815 
L 326.161361 242.741374 
L 329.581021 242.237933 
L 333.00068 241.734492 
L 336.42034 241.231052 
L 339.84 240.727611 
L 343.259659 240.22417 
L 346.679319 239.720729 
L 350.098978 239.217288 
L 353.518638 238.713847 
L 356.938297 238.210407 
L 360.357957 237.706966 
L 363.777616 237.203525 
L 367.197276 236.700084 
L 370.616935 236.196643 
L 374.036595 235.693202 
L 377.456255 235.189761 
L 380.875914 234.686321 
L 384.295574 234.18288 
L 387.715233 233.679439 
L 391.134893 233.175998 
L 394.554552 232.672557 
L 397.974212 232.169116 
L 401.393871 231.665676 
L 404.813531 231.162235 
L 408.233191 230.658794 
L 411.65285 230.155353 
L 415.07251 229.651912 
L 418.492169 229.148471 
L 421.911829 228.64503 
L 425.331488 228.14159 
L 428.751148 227.638149 
" style="fill:none;stroke:#ff7f0e;stroke-linecap:square;stroke-width:1.8;"/>
   </g>
   <g id="patch_3">
    <path d="M 60.478 300.96 
L 60.478 20.16 
" style="fill:none;stroke:#000000;stroke-linecap:square;stroke-linejoin:miter;"/>
   </g>
   <g id="patch_4">
    <path d="M 70.478 310.96 
L 448.478 310.96 
" style="fill:none;stroke:#000000;stroke-linecap:square;stroke-linejoin:miter;"/>
   </g>
   <g id="legend_1">
    <g id="patch_5">
     <path d="M 434.627375 398.37375 
L 593.678 398.37375 
L 593.678 377.16 
L 434.627375 377.16 
z
" style="fill:#ffffff;opacity:0.8;stroke:#cccccc;stroke-linejoin:miter;stroke-width:0.8;"/>
    </g>
    <g id="line2d_31">
     <path d="M 439.427375 386.878125 
L 463.427375 386.878125 
" style="fill:none;stroke:#1f77b4;stroke-linecap:square;stroke-width:2;"/>
    </g>
    <g id="line2d_32">
     <defs>
      <path d="M 0 3.5 
C 0.928211 3.5 1.81853 3.131218 2.474874 2.474874 
C 3.131218 1.81853 3.5 0.928211 3.5 0 
C 3.5 -0.928211 3.131218 -1.81853 2.474874 -2.474874 
C 1.81853 -3.131218 0.928211 -3.5 0 -3.5 
C -0.928211 -3.5 -1.81853 -3.131218 -2.474874 -2.474874 
C -3.131218 -1.81853 -3.5 -0.928211 -3.5 0 
C -3.5 0.928211 -3.131218 1.81853 -2.474874 2.474874 
C -1.81853 3.131218 -0.928211 3.5 0 3.5 
z
" id="mb764a55787" style="stroke:#1f77b4;"/>
     </defs>
     <g>
      <use style="fill:#1f77b4;stroke:#1f77b4;" x="451.427375" xlink:href="#mb764a55787" y="386.878125"/>
     </g>
    </g>
    <g id="text_14">
     <!-- Julia -->
     <defs>
      <path d="M 9.1875 72.90625 
L 27.984375 72.90625 
L 27.984375 7.078125 
Q 27.984375 -6.546875 20.578125 -13.28125 
Q 13.1875 -20.015625 -1.8125 -20.015625 
L -5.609375 -20.015625 
L -5.609375 -5.8125 
L -2.6875 -5.8125 
Q 3.171875 -5.8125 6.171875 -2.53125 
Q 9.1875 0.734375 9.1875 7.078125 
z
" id="DejaVuSans-Bold-74"/>
      <path d="M 7.8125 21.296875 
L 7.8125 54.6875 
L 25.390625 54.6875 
L 25.390625 49.21875 
Q 25.390625 44.78125 25.34375 38.0625 
Q 25.296875 31.34375 25.296875 29.109375 
Q 25.296875 22.515625 25.640625 19.609375 
Q 25.984375 16.703125 26.8125 15.375 
Q 27.875 13.671875 29.609375 12.734375 
Q 31.34375 11.8125 33.59375 11.8125 
Q 39.0625 11.8125 42.1875 16.015625 
Q 45.3125 20.21875 45.3125 27.6875 
L 45.3125 54.6875 
L 62.796875 54.6875 
L 62.796875 0 
L 45.3125 0 
L 45.3125 7.90625 
Q 41.359375 3.125 36.9375 0.84375 
Q 32.515625 -1.421875 27.203125 -1.421875 
Q 17.71875 -1.421875 12.765625 4.390625 
Q 7.8125 10.203125 7.8125 21.296875 
z
" id="DejaVuSans-Bold-117"/>
      <path d="M 8.40625 75.984375 
L 25.875 75.984375 
L 25.875 0 
L 8.40625 0 
z
" id="DejaVuSans-Bold-108"/>
      <path d="M 8.40625 54.6875 
L 25.875 54.6875 
L 25.875 0 
L 8.40625 0 
z
M 8.40625 75.984375 
L 25.875 75.984375 
L 25.875 61.71875 
L 8.40625 61.71875 
z
" id="DejaVuSans-Bold-105"/>
      <path d="M 32.90625 24.609375 
Q 27.4375 24.609375 24.671875 22.75 
Q 21.921875 20.90625 21.921875 17.28125 
Q 21.921875 13.96875 24.140625 12.078125 
Q 26.375 10.203125 30.328125 10.203125 
Q 35.25 10.203125 38.625 13.734375 
Q 42 17.28125 42 22.609375 
L 42 24.609375 
z
M 59.625 31.203125 
L 59.625 0 
L 42 0 
L 42 8.109375 
Q 38.484375 3.125 34.078125 0.84375 
Q 29.6875 -1.421875 23.390625 -1.421875 
Q 14.890625 -1.421875 9.59375 3.53125 
Q 4.296875 8.5 4.296875 16.40625 
Q 4.296875 26.03125 10.90625 30.515625 
Q 17.53125 35.015625 31.6875 35.015625 
L 42 35.015625 
L 42 36.375 
Q 42 40.53125 38.71875 42.453125 
Q 35.453125 44.390625 28.515625 44.390625 
Q 22.90625 44.390625 18.0625 43.265625 
Q 13.234375 42.140625 9.078125 39.890625 
L 9.078125 53.21875 
Q 14.703125 54.59375 20.359375 55.296875 
Q 26.03125 56 31.6875 56 
Q 46.484375 56 53.046875 50.171875 
Q 59.625 44.34375 59.625 31.203125 
z
" id="DejaVuSans-Bold-97"/>
     </defs>
     <g transform="translate(473.027375 391.078125)scale(0.12 -0.12)">
      <use xlink:href="#DejaVuSans-Bold-74"/>
      <use x="37.207031" xlink:href="#DejaVuSans-Bold-117"/>
      <use x="108.398438" xlink:href="#DejaVuSans-Bold-108"/>
      <use x="142.675781" xlink:href="#DejaVuSans-Bold-105"/>
      <use x="176.953125" xlink:href="#DejaVuSans-Bold-97"/>
     </g>
    </g>
    <g id="line2d_33">
     <path d="M 526.359875 386.878125 
L 550.359875 386.878125 
" style="fill:none;stroke:#ff7f0e;stroke-linecap:square;stroke-width:2;"/>
    </g>
    <g id="line2d_34">
     <defs>
      <path d="M 0 3.5 
C 0.928211 3.5 1.81853 3.131218 2.474874 2.474874 
C 3.131218 1.81853 3.5 0.928211 3.5 0 
C 3.5 -0.928211 3.131218 -1.81853 2.474874 -2.474874 
C 1.81853 -3.131218 0.928211 -3.5 0 -3.5 
C -0.928211 -3.5 -1.81853 -3.131218 -2.474874 -2.474874 
C -3.131218 -1.81853 -3.5 -0.928211 -3.5 0 
C -3.5 0.928211 -3.131218 1.81853 -2.474874 2.474874 
C -1.81853 3.131218 -0.928211 3.5 0 3.5 
z
" id="m7e2cd7591a" style="stroke:#ff7f0e;"/>
     </defs>
     <g>
      <use style="fill:#ff7f0e;stroke:#ff7f0e;" x="538.359875" xlink:href="#m7e2cd7591a" y="386.878125"/>
     </g>
    </g>
    <g id="text_15">
     <!-- C++ -->
     <defs>
      <path d="M 67 4 
Q 61.8125 1.3125 56.203125 -0.046875 
Q 50.59375 -1.421875 44.484375 -1.421875 
Q 26.265625 -1.421875 15.625 8.765625 
Q 4.984375 18.953125 4.984375 36.375 
Q 4.984375 53.859375 15.625 64.03125 
Q 26.265625 74.21875 44.484375 74.21875 
Q 50.59375 74.21875 56.203125 72.84375 
Q 61.8125 71.484375 67 68.796875 
L 67 53.71875 
Q 61.765625 57.28125 56.6875 58.9375 
Q 51.609375 60.59375 46 60.59375 
Q 35.9375 60.59375 30.171875 54.140625 
Q 24.421875 47.703125 24.421875 36.375 
Q 24.421875 25.09375 30.171875 18.640625 
Q 35.9375 12.203125 46 12.203125 
Q 51.609375 12.203125 56.6875 13.859375 
Q 61.765625 15.53125 67 19.09375 
z
" id="DejaVuSans-Bold-67"/>
      <path d="M 47.703125 62.703125 
L 47.703125 37.109375 
L 73.1875 37.109375 
L 73.1875 25.59375 
L 47.703125 25.59375 
L 47.703125 0 
L 36.078125 0 
L 36.078125 25.59375 
L 10.59375 25.59375 
L 10.59375 37.109375 
L 36.078125 37.109375 
L 36.078125 62.703125 
z
" id="DejaVuSans-Bold-43"/>
     </defs>
     <g transform="translate(559.959875 391.078125)scale(0.12 -0.12)">
      <use xlink:href="#DejaVuSans-Bold-67"/>
      <use x="73.388672" xlink:href="#DejaVuSans-Bold-43"/>
      <use x="157.177734" xlink:href="#DejaVuSans-Bold-43"/>
     </g>
    </g>
   </g>
  </g>
  <g id="axes_2">
   <g id="patch_6">
    <path d="M 524.078 300.96 
L 902.078 300.96 
L 902.078 20.16 
L 524.078 20.16 
z
" style="fill:#ffffff;"/>
   </g>
   <g id="PathCollection_3">
    <g clip-path="url(#p207c3e339b)">
     <use style="fill:#1f77b4;stroke:#1f77b4;stroke-width:0.8;" x="543.804852" xlink:href="#m9467779139" y="192.718693"/>
     <use style="fill:#1f77b4;stroke:#1f77b4;stroke-width:0.8;" x="628.441426" xlink:href="#m9467779139" y="200.137079"/>
     <use style="fill:#1f77b4;stroke:#1f77b4;stroke-width:0.8;" x="713.078" xlink:href="#m9467779139" y="182.566447"/>
     <use style="fill:#1f77b4;stroke:#1f77b4;stroke-width:0.8;" x="797.714574" xlink:href="#m9467779139" y="172.545764"/>
     <use style="fill:#1f77b4;stroke:#1f77b4;stroke-width:0.8;" x="882.351148" xlink:href="#m9467779139" y="134.338807"/>
    </g>
   </g>
   <g id="PolyCollection_3">
    <path clip-path="url(#p207c3e339b)" d="M 543.804852 159.403984 
L 543.804852 250.444023 
L 547.224512 249.239557 
L 550.644171 247.710365 
L 554.063831 246.181172 
L 557.48349 245.133294 
L 560.90315 244.127947 
L 564.322809 243.110198 
L 567.742469 241.884428 
L 571.162129 240.443981 
L 574.581788 239.076827 
L 578.001448 237.434707 
L 581.421107 236.262995 
L 584.840767 235.108883 
L 588.260426 233.837269 
L 591.680086 232.891557 
L 595.099745 232.025849 
L 598.519405 231.154881 
L 601.939065 229.910044 
L 605.358724 228.555131 
L 608.778384 227.349715 
L 612.198043 226.413806 
L 615.617703 225.396385 
L 619.037362 224.191187 
L 622.457022 222.778633 
L 625.876681 221.965547 
L 629.296341 220.809778 
L 632.716 219.990564 
L 636.13566 218.918578 
L 639.55532 218.020542 
L 642.974979 216.560771 
L 646.394639 215.732582 
L 649.814298 214.723788 
L 653.233958 213.604768 
L 656.653617 212.486259 
L 660.073277 211.368293 
L 663.492936 210.551399 
L 666.912596 209.596536 
L 670.332256 208.548449 
L 673.751915 207.70343 
L 677.171575 206.950505 
L 680.591234 206.24735 
L 684.010894 205.129612 
L 687.430553 204.424174 
L 690.850213 203.747608 
L 694.269872 203.028725 
L 697.689532 202.462585 
L 701.109192 201.992488 
L 704.528851 201.495692 
L 707.948511 200.968001 
L 711.36817 200.135948 
L 714.78783 200.047041 
L 718.207489 199.510808 
L 721.627149 198.771313 
L 725.046808 198.504303 
L 728.466468 197.904515 
L 731.886128 197.471116 
L 735.305787 197.006417 
L 738.725447 196.607793 
L 742.145106 196.344162 
L 745.564766 195.757664 
L 748.984425 196.119259 
L 752.404085 195.232062 
L 755.823744 194.53805 
L 759.243404 194.024585 
L 762.663064 193.979002 
L 766.082723 193.789313 
L 769.502383 193.644056 
L 772.922042 193.333996 
L 776.341702 193.274181 
L 779.761361 192.874983 
L 783.181021 192.609328 
L 786.60068 192.594112 
L 790.02034 192.548452 
L 793.44 192.797238 
L 796.859659 192.74454 
L 800.279319 192.791002 
L 803.698978 192.715008 
L 807.118638 192.71854 
L 810.538297 192.631705 
L 813.957957 192.799893 
L 817.377616 193.346835 
L 820.797276 193.154581 
L 824.216935 192.861585 
L 827.636595 192.95385 
L 831.056255 193.127014 
L 834.475914 193.404629 
L 837.895574 193.689415 
L 841.315233 193.981555 
L 844.734893 194.263151 
L 848.154552 194.303935 
L 851.574212 194.532508 
L 854.993871 194.870926 
L 858.413531 195.209021 
L 861.833191 195.359889 
L 865.25285 195.340835 
L 868.67251 195.30747 
L 872.092169 195.271341 
L 875.511829 195.20916 
L 878.931488 195.225217 
L 882.351148 195.209141 
L 882.351148 102.690374 
L 882.351148 102.690374 
L 878.931488 103.911838 
L 875.511829 105.133301 
L 872.092169 106.391644 
L 868.67251 107.734565 
L 865.25285 108.78582 
L 861.833191 109.990196 
L 858.413531 111.194573 
L 854.993871 112.214851 
L 851.574212 112.969152 
L 848.154552 114.353786 
L 844.734893 115.386927 
L 841.315233 116.716581 
L 837.895574 118.245273 
L 834.475914 119.735039 
L 831.056255 120.850875 
L 827.636595 121.777455 
L 824.216935 122.739879 
L 820.797276 124.188764 
L 817.377616 125.443663 
L 813.957957 126.420782 
L 810.538297 127.397902 
L 807.118638 128.375651 
L 803.698978 129.368398 
L 800.279319 130.460775 
L 796.859659 132.006962 
L 793.44 133.387166 
L 790.02034 135.019004 
L 786.60068 136.034872 
L 783.181021 136.923084 
L 779.761361 137.896223 
L 776.341702 138.897534 
L 772.922042 139.793678 
L 769.502383 140.841865 
L 766.082723 141.417856 
L 762.663064 141.884786 
L 759.243404 142.427536 
L 755.823744 143.13229 
L 752.404085 144.051333 
L 748.984425 145.022925 
L 745.564766 145.411864 
L 742.145106 146.28914 
L 738.725447 147.166432 
L 735.305787 147.700327 
L 731.886128 148.165033 
L 728.466468 148.621512 
L 725.046808 149.461118 
L 721.627149 150.056382 
L 718.207489 150.876883 
L 714.78783 151.580304 
L 711.36817 152.117985 
L 707.948511 152.704406 
L 704.528851 152.947709 
L 701.109192 153.824399 
L 697.689532 154.198397 
L 694.269872 154.557968 
L 690.850213 154.706517 
L 687.430553 154.986331 
L 684.010894 155.409625 
L 680.591234 155.546576 
L 677.171575 156.158482 
L 673.751915 156.495945 
L 670.332256 156.376059 
L 666.912596 156.764882 
L 663.492936 156.835691 
L 660.073277 157.293699 
L 656.653617 157.360669 
L 653.233958 157.495546 
L 649.814298 157.350521 
L 646.394639 157.547811 
L 642.974979 157.618893 
L 639.55532 157.661861 
L 636.13566 157.701596 
L 632.716 157.820168 
L 629.296341 157.953196 
L 625.876681 157.938512 
L 622.457022 158.167745 
L 619.037362 158.316183 
L 615.617703 158.418544 
L 612.198043 158.396373 
L 608.778384 158.595815 
L 605.358724 158.801081 
L 601.939065 158.492879 
L 598.519405 158.392646 
L 595.099745 158.697201 
L 591.680086 159.150154 
L 588.260426 159.523608 
L 584.840767 159.649884 
L 581.421107 159.195887 
L 578.001448 158.800983 
L 574.581788 158.406435 
L 571.162129 158.443848 
L 567.742469 158.485997 
L 564.322809 158.528146 
L 560.90315 158.672388 
L 557.48349 158.820433 
L 554.063831 158.964834 
L 550.644171 159.111057 
L 547.224512 159.25728 
L 543.804852 159.403984 
z
" style="fill:#1f77b4;fill-opacity:0.15;"/>
   </g>
   <g id="PathCollection_4">
    <g clip-path="url(#p207c3e339b)">
     <use style="fill:#ff7f0e;stroke:#ff7f0e;stroke-width:0.8;" x="543.804852" xlink:href="#m1affe13428" y="250.540619"/>
     <use style="fill:#ff7f0e;stroke:#ff7f0e;stroke-width:0.8;" x="628.441426" xlink:href="#m1affe13428" y="256.961317"/>
     <use style="fill:#ff7f0e;stroke:#ff7f0e;stroke-width:0.8;" x="713.078" xlink:href="#m1affe13428" y="255.997426"/>
     <use style="fill:#ff7f0e;stroke:#ff7f0e;stroke-width:0.8;" x="797.714574" xlink:href="#m1affe13428" y="253.146542"/>
     <use style="fill:#ff7f0e;stroke:#ff7f0e;stroke-width:0.8;" x="882.351148" xlink:href="#m1affe13428" y="246.146449"/>
    </g>
   </g>
   <g id="PolyCollection_4">
    <path clip-path="url(#p207c3e339b)" d="M 543.804852 240.106702 
L 543.804852 268.904512 
L 547.224512 268.672113 
L 550.644171 268.448082 
L 554.063831 268.223825 
L 557.48349 267.998953 
L 560.90315 267.774082 
L 564.322809 267.54921 
L 567.742469 267.324339 
L 571.162129 267.099467 
L 574.581788 266.874596 
L 578.001448 266.649724 
L 581.421107 266.416832 
L 584.840767 266.202143 
L 588.260426 266.047202 
L 591.680086 265.777933 
L 595.099745 265.650277 
L 598.519405 265.455016 
L 601.939065 265.138522 
L 605.358724 264.838499 
L 608.778384 264.520015 
L 612.198043 264.256312 
L 615.617703 264.022648 
L 619.037362 263.685342 
L 622.457022 263.427243 
L 625.876681 263.278462 
L 629.296341 263.096111 
L 632.716 262.86679 
L 636.13566 262.634599 
L 639.55532 262.403537 
L 642.974979 262.173557 
L 646.394639 261.96471 
L 649.814298 261.783853 
L 653.233958 261.689815 
L 656.653617 261.488485 
L 660.073277 261.289637 
L 663.492936 261.156307 
L 666.912596 260.883308 
L 670.332256 260.782709 
L 673.751915 260.519769 
L 677.171575 260.376997 
L 680.591234 260.271892 
L 684.010894 260.134829 
L 687.430553 260.013653 
L 690.850213 259.895416 
L 694.269872 259.722975 
L 697.689532 259.521285 
L 701.109192 259.403571 
L 704.528851 259.370164 
L 707.948511 259.286967 
L 711.36817 259.166721 
L 714.78783 259.046475 
L 718.207489 259.053763 
L 721.627149 259.010974 
L 725.046808 258.935497 
L 728.466468 258.802092 
L 731.886128 258.731221 
L 735.305787 258.631654 
L 738.725447 258.554456 
L 742.145106 258.58708 
L 745.564766 258.611045 
L 748.984425 258.540608 
L 752.404085 258.491719 
L 755.823744 258.564313 
L 759.243404 258.678207 
L 762.663064 258.681186 
L 766.082723 258.752193 
L 769.502383 258.843425 
L 772.922042 258.897624 
L 776.341702 258.934615 
L 779.761361 258.893302 
L 783.181021 258.878798 
L 786.60068 258.853249 
L 790.02034 258.960072 
L 793.44 258.954015 
L 796.859659 258.984751 
L 800.279319 259.14194 
L 803.698978 259.175864 
L 807.118638 259.209088 
L 810.538297 259.318573 
L 813.957957 259.320737 
L 817.377616 259.359347 
L 820.797276 259.416191 
L 824.216935 259.626221 
L 827.636595 259.775945 
L 831.056255 259.96165 
L 834.475914 260.147355 
L 837.895574 260.33306 
L 841.315233 260.515839 
L 844.734893 260.639187 
L 848.154552 260.676468 
L 851.574212 260.849119 
L 854.993871 260.966677 
L 858.413531 261.190054 
L 861.833191 261.374954 
L 865.25285 261.431759 
L 868.67251 261.485052 
L 872.092169 261.537191 
L 875.511829 261.710425 
L 878.931488 261.840804 
L 882.351148 261.974669 
L 882.351148 238.824243 
L 882.351148 238.824243 
L 878.931488 239.031658 
L 875.511829 239.251463 
L 872.092169 239.471267 
L 868.67251 239.691072 
L 865.25285 239.910876 
L 861.833191 240.102084 
L 858.413531 240.265535 
L 854.993871 240.428985 
L 851.574212 240.622691 
L 848.154552 240.853326 
L 844.734893 241.08396 
L 841.315233 241.226625 
L 837.895574 241.450571 
L 834.475914 241.754178 
L 831.056255 241.842239 
L 827.636595 242.019039 
L 824.216935 242.22136 
L 820.797276 242.362089 
L 817.377616 242.624986 
L 813.957957 242.825087 
L 810.538297 243.041996 
L 807.118638 243.225526 
L 803.698978 243.40614 
L 800.279319 243.582473 
L 796.859659 243.74501 
L 793.44 243.80248 
L 790.02034 243.860356 
L 786.60068 244.02993 
L 783.181021 244.249125 
L 779.761361 244.324998 
L 776.341702 244.336521 
L 772.922042 244.516091 
L 769.502383 244.635127 
L 766.082723 244.648473 
L 762.663064 244.692174 
L 759.243404 244.737695 
L 755.823744 244.822638 
L 752.404085 244.893049 
L 748.984425 244.949324 
L 745.564766 244.96445 
L 742.145106 244.9988 
L 738.725447 244.971746 
L 735.305787 244.988089 
L 731.886128 245.071214 
L 728.466468 244.985388 
L 725.046808 245.04044 
L 721.627149 245.076087 
L 718.207489 245.120766 
L 714.78783 245.10834 
L 711.36817 245.164456 
L 707.948511 245.194559 
L 704.528851 245.151486 
L 701.109192 245.079261 
L 697.689532 245.037271 
L 694.269872 244.978337 
L 690.850213 244.980065 
L 687.430553 244.976625 
L 684.010894 244.848368 
L 680.591234 244.855688 
L 677.171575 244.8779 
L 673.751915 244.766243 
L 670.332256 244.694314 
L 666.912596 244.681387 
L 663.492936 244.577505 
L 660.073277 244.3896 
L 656.653617 244.297274 
L 653.233958 244.287959 
L 649.814298 244.227762 
L 646.394639 244.092624 
L 642.974979 243.876326 
L 639.55532 243.827155 
L 636.13566 243.777239 
L 632.716 243.623591 
L 629.296341 243.555501 
L 625.876681 243.463863 
L 622.457022 243.323581 
L 619.037362 243.183299 
L 615.617703 243.031952 
L 612.198043 242.920291 
L 608.778384 242.8646 
L 605.358724 242.80891 
L 601.939065 242.753654 
L 598.519405 242.699377 
L 595.099745 242.621307 
L 591.680086 242.464643 
L 588.260426 242.236568 
L 584.840767 242.085982 
L 581.421107 241.999104 
L 578.001448 241.892233 
L 574.581788 241.674195 
L 571.162129 241.420618 
L 567.742469 241.16704 
L 564.322809 240.949031 
L 560.90315 240.806428 
L 557.48349 240.663826 
L 554.063831 240.522328 
L 550.644171 240.383786 
L 547.224512 240.245244 
L 543.804852 240.106702 
z
" style="fill:#ff7f0e;fill-opacity:0.15;"/>
   </g>
   <g id="matplotlib.axis_3">
    <g id="xtick_7">
     <g id="line2d_35">
      <g>
       <use style="stroke:#000000;" x="543.804852" xlink:href="#m50d43ca01c" y="310.96"/>
      </g>
     </g>
     <g id="text_16">
      <!-- 1000 -->
      <g transform="translate(521.408852 332.63325)scale(0.176 -0.176)">
       <use xlink:href="#DejaVuSans-49"/>
       <use x="63.623047" xlink:href="#DejaVuSans-48"/>
       <use x="127.246094" xlink:href="#DejaVuSans-48"/>
       <use x="190.869141" xlink:href="#DejaVuSans-48"/>
      </g>
     </g>
    </g>
    <g id="xtick_8">
     <g id="line2d_36">
      <g>
       <use style="stroke:#000000;" x="628.441426" xlink:href="#m50d43ca01c" y="310.96"/>
      </g>
     </g>
     <g id="text_17">
      <!-- 2000 -->
      <g transform="translate(606.045426 332.63325)scale(0.176 -0.176)">
       <use xlink:href="#DejaVuSans-50"/>
       <use x="63.623047" xlink:href="#DejaVuSans-48"/>
       <use x="127.246094" xlink:href="#DejaVuSans-48"/>
       <use x="190.869141" xlink:href="#DejaVuSans-48"/>
      </g>
     </g>
    </g>
    <g id="xtick_9">
     <g id="line2d_37">
      <g>
       <use style="stroke:#000000;" x="713.078" xlink:href="#m50d43ca01c" y="310.96"/>
      </g>
     </g>
     <g id="text_18">
      <!-- 3000 -->
      <g transform="translate(690.682 332.63325)scale(0.176 -0.176)">
       <use xlink:href="#DejaVuSans-51"/>
       <use x="63.623047" xlink:href="#DejaVuSans-48"/>
       <use x="127.246094" xlink:href="#DejaVuSans-48"/>
       <use x="190.869141" xlink:href="#DejaVuSans-48"/>
      </g>
     </g>
    </g>
    <g id="xtick_10">
     <g id="line2d_38">
      <g>
       <use style="stroke:#000000;" x="797.714574" xlink:href="#m50d43ca01c" y="310.96"/>
      </g>
     </g>
     <g id="text_19">
      <!-- 4000 -->
      <defs>
       <path d="M 37.796875 64.3125 
L 12.890625 25.390625 
L 37.796875 25.390625 
z
M 35.203125 72.90625 
L 47.609375 72.90625 
L 47.609375 25.390625 
L 58.015625 25.390625 
L 58.015625 17.1875 
L 47.609375 17.1875 
L 47.609375 0 
L 37.796875 0 
L 37.796875 17.1875 
L 4.890625 17.1875 
L 4.890625 26.703125 
z
" id="DejaVuSans-52"/>
      </defs>
      <g transform="translate(775.318574 332.63325)scale(0.176 -0.176)">
       <use xlink:href="#DejaVuSans-52"/>
       <use x="63.623047" xlink:href="#DejaVuSans-48"/>
       <use x="127.246094" xlink:href="#DejaVuSans-48"/>
       <use x="190.869141" xlink:href="#DejaVuSans-48"/>
      </g>
     </g>
    </g>
    <g id="xtick_11">
     <g id="line2d_39">
      <g>
       <use style="stroke:#000000;" x="882.351148" xlink:href="#m50d43ca01c" y="310.96"/>
      </g>
     </g>
     <g id="text_20">
      <!-- 5000 -->
      <g transform="translate(859.955148 332.63325)scale(0.176 -0.176)">
       <use xlink:href="#DejaVuSans-53"/>
       <use x="63.623047" xlink:href="#DejaVuSans-48"/>
       <use x="127.246094" xlink:href="#DejaVuSans-48"/>
       <use x="190.869141" xlink:href="#DejaVuSans-48"/>
      </g>
     </g>
    </g>
    <g id="text_21">
     <!-- Number of features -->
     <g transform="translate(619.289 354.8825)scale(0.192 -0.192)">
      <use xlink:href="#DejaVuSans-78"/>
      <use x="74.804688" xlink:href="#DejaVuSans-117"/>
      <use x="138.183594" xlink:href="#DejaVuSans-109"/>
      <use x="235.595703" xlink:href="#DejaVuSans-98"/>
      <use x="299.072266" xlink:href="#DejaVuSans-101"/>
      <use x="360.595703" xlink:href="#DejaVuSans-114"/>
      <use x="401.708984" xlink:href="#DejaVuSans-32"/>
      <use x="433.496094" xlink:href="#DejaVuSans-111"/>
      <use x="494.677734" xlink:href="#DejaVuSans-102"/>
      <use x="529.882812" xlink:href="#DejaVuSans-32"/>
      <use x="561.669922" xlink:href="#DejaVuSans-102"/>
      <use x="596.875" xlink:href="#DejaVuSans-101"/>
      <use x="658.398438" xlink:href="#DejaVuSans-97"/>
      <use x="719.677734" xlink:href="#DejaVuSans-116"/>
      <use x="758.886719" xlink:href="#DejaVuSans-117"/>
      <use x="822.265625" xlink:href="#DejaVuSans-114"/>
      <use x="863.347656" xlink:href="#DejaVuSans-101"/>
      <use x="924.871094" xlink:href="#DejaVuSans-115"/>
     </g>
    </g>
   </g>
   <g id="matplotlib.axis_4">
    <g id="ytick_6">
     <g id="line2d_40">
      <path clip-path="url(#p207c3e339b)" d="M 524.078 286.658747 
L 902.078 286.658747 
" style="fill:none;stroke:#b0b0b0;stroke-linecap:square;stroke-opacity:0.5;stroke-width:0.8;"/>
     </g>
     <g id="line2d_41">
      <g>
       <use style="stroke:#000000;" x="514.078" xlink:href="#m6180f580d5" y="286.658747"/>
      </g>
     </g>
    </g>
    <g id="ytick_7">
     <g id="line2d_42">
      <path clip-path="url(#p207c3e339b)" d="M 524.078 227.60446 
L 902.078 227.60446 
" style="fill:none;stroke:#b0b0b0;stroke-linecap:square;stroke-opacity:0.5;stroke-width:0.8;"/>
     </g>
     <g id="line2d_43">
      <g>
       <use style="stroke:#000000;" x="514.078" xlink:href="#m6180f580d5" y="227.60446"/>
      </g>
     </g>
    </g>
    <g id="ytick_8">
     <g id="line2d_44">
      <path clip-path="url(#p207c3e339b)" d="M 524.078 168.550173 
L 902.078 168.550173 
" style="fill:none;stroke:#b0b0b0;stroke-linecap:square;stroke-opacity:0.5;stroke-width:0.8;"/>
     </g>
     <g id="line2d_45">
      <g>
       <use style="stroke:#000000;" x="514.078" xlink:href="#m6180f580d5" y="168.550173"/>
      </g>
     </g>
    </g>
    <g id="ytick_9">
     <g id="line2d_46">
      <path clip-path="url(#p207c3e339b)" d="M 524.078 109.495885 
L 902.078 109.495885 
" style="fill:none;stroke:#b0b0b0;stroke-linecap:square;stroke-opacity:0.5;stroke-width:0.8;"/>
     </g>
     <g id="line2d_47">
      <g>
       <use style="stroke:#000000;" x="514.078" xlink:href="#m6180f580d5" y="109.495885"/>
      </g>
     </g>
    </g>
    <g id="ytick_10">
     <g id="line2d_48">
      <path clip-path="url(#p207c3e339b)" d="M 524.078 50.441598 
L 902.078 50.441598 
" style="fill:none;stroke:#b0b0b0;stroke-linecap:square;stroke-opacity:0.5;stroke-width:0.8;"/>
     </g>
     <g id="line2d_49">
      <g>
       <use style="stroke:#000000;" x="514.078" xlink:href="#m6180f580d5" y="50.441598"/>
      </g>
     </g>
    </g>
   </g>
   <g id="line2d_50">
    <path clip-path="url(#p207c3e339b)" d="M 543.804852 246.677033 
L 543.804852 134.65088 
" style="fill:none;stroke:#1f77b4;stroke-linecap:square;stroke-width:2.1;"/>
   </g>
   <g id="line2d_51">
    <path clip-path="url(#p207c3e339b)" d="M 628.441426 247.392589 
L 628.441426 142.801796 
" style="fill:none;stroke:#1f77b4;stroke-linecap:square;stroke-width:2.1;"/>
   </g>
   <g id="line2d_52">
    <path clip-path="url(#p207c3e339b)" d="M 713.078 228.658152 
L 713.078 130.11829 
" style="fill:none;stroke:#1f77b4;stroke-linecap:square;stroke-width:2.1;"/>
   </g>
   <g id="line2d_53">
    <path clip-path="url(#p207c3e339b)" d="M 797.714574 209.881515 
L 797.714574 127.063622 
" style="fill:none;stroke:#1f77b4;stroke-linecap:square;stroke-width:2.1;"/>
   </g>
   <g id="line2d_54">
    <path clip-path="url(#p207c3e339b)" d="M 882.351148 197.423641 
L 882.351148 70.745226 
" style="fill:none;stroke:#1f77b4;stroke-linecap:square;stroke-width:2.1;"/>
   </g>
   <g id="line2d_55">
    <path clip-path="url(#p207c3e339b)" d="M 543.804852 205.331575 
L 547.224512 204.748338 
L 550.644171 204.165102 
L 554.063831 203.581865 
L 557.48349 202.998628 
L 560.90315 202.415392 
L 564.322809 201.832155 
L 567.742469 201.248918 
L 571.162129 200.665681 
L 574.581788 200.082445 
L 578.001448 199.499208 
L 581.421107 198.915971 
L 584.840767 198.332735 
L 588.260426 197.749498 
L 591.680086 197.166261 
L 595.099745 196.583024 
L 598.519405 195.999788 
L 601.939065 195.416551 
L 605.358724 194.833314 
L 608.778384 194.250078 
L 612.198043 193.666841 
L 615.617703 193.083604 
L 619.037362 192.500367 
L 622.457022 191.917131 
L 625.876681 191.333894 
L 629.296341 190.750657 
L 632.716 190.167421 
L 636.13566 189.584184 
L 639.55532 189.000947 
L 642.974979 188.41771 
L 646.394639 187.834474 
L 649.814298 187.251237 
L 653.233958 186.668 
L 656.653617 186.084764 
L 660.073277 185.501527 
L 663.492936 184.91829 
L 666.912596 184.335053 
L 670.332256 183.751817 
L 673.751915 183.16858 
L 677.171575 182.585343 
L 680.591234 182.002107 
L 684.010894 181.41887 
L 687.430553 180.835633 
L 690.850213 180.252396 
L 694.269872 179.66916 
L 697.689532 179.085923 
L 701.109192 178.502686 
L 704.528851 177.91945 
L 707.948511 177.336213 
L 711.36817 176.752976 
L 714.78783 176.169739 
L 718.207489 175.586503 
L 721.627149 175.003266 
L 725.046808 174.420029 
L 728.466468 173.836793 
L 731.886128 173.253556 
L 735.305787 172.670319 
L 738.725447 172.087082 
L 742.145106 171.503846 
L 745.564766 170.920609 
L 748.984425 170.337372 
L 752.404085 169.754136 
L 755.823744 169.170899 
L 759.243404 168.587662 
L 762.663064 168.004425 
L 766.082723 167.421189 
L 769.502383 166.837952 
L 772.922042 166.254715 
L 776.341702 165.671479 
L 779.761361 165.088242 
L 783.181021 164.505005 
L 786.60068 163.921768 
L 790.02034 163.338532 
L 793.44 162.755295 
L 796.859659 162.172058 
L 800.279319 161.588822 
L 803.698978 161.005585 
L 807.118638 160.422348 
L 810.538297 159.839111 
L 813.957957 159.255875 
L 817.377616 158.672638 
L 820.797276 158.089401 
L 824.216935 157.506165 
L 827.636595 156.922928 
L 831.056255 156.339691 
L 834.475914 155.756454 
L 837.895574 155.173218 
L 841.315233 154.589981 
L 844.734893 154.006744 
L 848.154552 153.423508 
L 851.574212 152.840271 
L 854.993871 152.257034 
L 858.413531 151.673797 
L 861.833191 151.090561 
L 865.25285 150.507324 
L 868.67251 149.924087 
L 872.092169 149.340851 
L 875.511829 148.757614 
L 878.931488 148.174377 
L 882.351148 147.59114 
" style="fill:none;stroke:#1f77b4;stroke-linecap:square;stroke-width:1.8;"/>
   </g>
   <g id="line2d_56">
    <path clip-path="url(#p207c3e339b)" d="M 543.804852 267.451424 
L 543.804852 232.873667 
" style="fill:none;stroke:#ff7f0e;stroke-linecap:square;stroke-width:2.1;"/>
   </g>
   <g id="line2d_57">
    <path clip-path="url(#p207c3e339b)" d="M 628.441426 271.613993 
L 628.441426 237.598338 
" style="fill:none;stroke:#ff7f0e;stroke-linecap:square;stroke-width:2.1;"/>
   </g>
   <g id="line2d_58">
    <path clip-path="url(#p207c3e339b)" d="M 713.078 267.683102 
L 713.078 242.26436 
" style="fill:none;stroke:#ff7f0e;stroke-linecap:square;stroke-width:2.1;"/>
   </g>
   <g id="line2d_59">
    <path clip-path="url(#p207c3e339b)" d="M 797.714574 264.044289 
L 797.714574 242.095243 
" style="fill:none;stroke:#ff7f0e;stroke-linecap:square;stroke-width:2.1;"/>
   </g>
   <g id="line2d_60">
    <path clip-path="url(#p207c3e339b)" d="M 882.351148 260.203006 
L 882.351148 232.480001 
" style="fill:none;stroke:#ff7f0e;stroke-linecap:square;stroke-width:2.1;"/>
   </g>
   <g id="line2d_61">
    <path clip-path="url(#p207c3e339b)" d="M 543.804852 255.079094 
L 547.224512 255.028172 
L 550.644171 254.97725 
L 554.063831 254.926329 
L 557.48349 254.875407 
L 560.90315 254.824485 
L 564.322809 254.773564 
L 567.742469 254.722642 
L 571.162129 254.67172 
L 574.581788 254.620799 
L 578.001448 254.569877 
L 581.421107 254.518955 
L 584.840767 254.468034 
L 588.260426 254.417112 
L 591.680086 254.36619 
L 595.099745 254.315269 
L 598.519405 254.264347 
L 601.939065 254.213425 
L 605.358724 254.162504 
L 608.778384 254.111582 
L 612.198043 254.06066 
L 615.617703 254.009739 
L 619.037362 253.958817 
L 622.457022 253.907895 
L 625.876681 253.856974 
L 629.296341 253.806052 
L 632.716 253.75513 
L 636.13566 253.704208 
L 639.55532 253.653287 
L 642.974979 253.602365 
L 646.394639 253.551443 
L 649.814298 253.500522 
L 653.233958 253.4496 
L 656.653617 253.398678 
L 660.073277 253.347757 
L 663.492936 253.296835 
L 666.912596 253.245913 
L 670.332256 253.194992 
L 673.751915 253.14407 
L 677.171575 253.093148 
L 680.591234 253.042227 
L 684.010894 252.991305 
L 687.430553 252.940383 
L 690.850213 252.889462 
L 694.269872 252.83854 
L 697.689532 252.787618 
L 701.109192 252.736697 
L 704.528851 252.685775 
L 707.948511 252.634853 
L 711.36817 252.583932 
L 714.78783 252.53301 
L 718.207489 252.482088 
L 721.627149 252.431167 
L 725.046808 252.380245 
L 728.466468 252.329323 
L 731.886128 252.278401 
L 735.305787 252.22748 
L 738.725447 252.176558 
L 742.145106 252.125636 
L 745.564766 252.074715 
L 748.984425 252.023793 
L 752.404085 251.972871 
L 755.823744 251.92195 
L 759.243404 251.871028 
L 762.663064 251.820106 
L 766.082723 251.769185 
L 769.502383 251.718263 
L 772.922042 251.667341 
L 776.341702 251.61642 
L 779.761361 251.565498 
L 783.181021 251.514576 
L 786.60068 251.463655 
L 790.02034 251.412733 
L 793.44 251.361811 
L 796.859659 251.31089 
L 800.279319 251.259968 
L 803.698978 251.209046 
L 807.118638 251.158125 
L 810.538297 251.107203 
L 813.957957 251.056281 
L 817.377616 251.005359 
L 820.797276 250.954438 
L 824.216935 250.903516 
L 827.636595 250.852594 
L 831.056255 250.801673 
L 834.475914 250.750751 
L 837.895574 250.699829 
L 841.315233 250.648908 
L 844.734893 250.597986 
L 848.154552 250.547064 
L 851.574212 250.496143 
L 854.993871 250.445221 
L 858.413531 250.394299 
L 861.833191 250.343378 
L 865.25285 250.292456 
L 868.67251 250.241534 
L 872.092169 250.190613 
L 875.511829 250.139691 
L 878.931488 250.088769 
L 882.351148 250.037848 
" style="fill:none;stroke:#ff7f0e;stroke-linecap:square;stroke-width:1.8;"/>
   </g>
   <g id="patch_7">
    <path d="M 514.078 300.96 
L 514.078 20.16 
" style="fill:none;stroke:#000000;stroke-linecap:square;stroke-linejoin:miter;"/>
   </g>
   <g id="patch_8">
    <path d="M 524.078 310.96 
L 902.078 310.96 
" style="fill:none;stroke:#000000;stroke-linecap:square;stroke-linejoin:miter;"/>
   </g>
  </g>
  <g id="text_22">
   <!-- MagT64 -->
   <defs>
    <path d="M 9.8125 72.90625 
L 24.515625 72.90625 
L 43.109375 23.296875 
L 61.8125 72.90625 
L 76.515625 72.90625 
L 76.515625 0 
L 66.890625 0 
L 66.890625 64.015625 
L 48.09375 14.015625 
L 38.1875 14.015625 
L 19.390625 64.015625 
L 19.390625 0 
L 9.8125 0 
z
" id="DejaVuSans-77"/>
    <path d="M 45.40625 27.984375 
Q 45.40625 37.75 41.375 43.109375 
Q 37.359375 48.484375 30.078125 48.484375 
Q 22.859375 48.484375 18.828125 43.109375 
Q 14.796875 37.75 14.796875 27.984375 
Q 14.796875 18.265625 18.828125 12.890625 
Q 22.859375 7.515625 30.078125 7.515625 
Q 37.359375 7.515625 41.375 12.890625 
Q 45.40625 18.265625 45.40625 27.984375 
z
M 54.390625 6.78125 
Q 54.390625 -7.171875 48.1875 -13.984375 
Q 42 -20.796875 29.203125 -20.796875 
Q 24.46875 -20.796875 20.265625 -20.09375 
Q 16.0625 -19.390625 12.109375 -17.921875 
L 12.109375 -9.1875 
Q 16.0625 -11.328125 19.921875 -12.34375 
Q 23.78125 -13.375 27.78125 -13.375 
Q 36.625 -13.375 41.015625 -8.765625 
Q 45.40625 -4.15625 45.40625 5.171875 
L 45.40625 9.625 
Q 42.625 4.78125 38.28125 2.390625 
Q 33.9375 0 27.875 0 
Q 17.828125 0 11.671875 7.65625 
Q 5.515625 15.328125 5.515625 27.984375 
Q 5.515625 40.671875 11.671875 48.328125 
Q 17.828125 56 27.875 56 
Q 33.9375 56 38.28125 53.609375 
Q 42.625 51.21875 45.40625 46.390625 
L 45.40625 54.6875 
L 54.390625 54.6875 
z
" id="DejaVuSans-103"/>
    <path d="M -0.296875 72.90625 
L 61.375 72.90625 
L 61.375 64.59375 
L 35.5 64.59375 
L 35.5 0 
L 25.59375 0 
L 25.59375 64.59375 
L -0.296875 64.59375 
z
" id="DejaVuSans-84"/>
    <path d="M 33.015625 40.375 
Q 26.375 40.375 22.484375 35.828125 
Q 18.609375 31.296875 18.609375 23.390625 
Q 18.609375 15.53125 22.484375 10.953125 
Q 26.375 6.390625 33.015625 6.390625 
Q 39.65625 6.390625 43.53125 10.953125 
Q 47.40625 15.53125 47.40625 23.390625 
Q 47.40625 31.296875 43.53125 35.828125 
Q 39.65625 40.375 33.015625 40.375 
z
M 52.59375 71.296875 
L 52.59375 62.3125 
Q 48.875 64.0625 45.09375 64.984375 
Q 41.3125 65.921875 37.59375 65.921875 
Q 27.828125 65.921875 22.671875 59.328125 
Q 17.53125 52.734375 16.796875 39.40625 
Q 19.671875 43.65625 24.015625 45.921875 
Q 28.375 48.1875 33.59375 48.1875 
Q 44.578125 48.1875 50.953125 41.515625 
Q 57.328125 34.859375 57.328125 23.390625 
Q 57.328125 12.15625 50.6875 5.359375 
Q 44.046875 -1.421875 33.015625 -1.421875 
Q 20.359375 -1.421875 13.671875 8.265625 
Q 6.984375 17.96875 6.984375 36.375 
Q 6.984375 53.65625 15.1875 63.9375 
Q 23.390625 74.21875 37.203125 74.21875 
Q 40.921875 74.21875 44.703125 73.484375 
Q 48.484375 72.75 52.59375 71.296875 
z
" id="DejaVuSans-54"/>
   </defs>
   <g transform="translate(402.47 24.7068)scale(0.2304 -0.2304)">
    <use xlink:href="#DejaVuSans-77"/>
    <use x="86.279297" xlink:href="#DejaVuSans-97"/>
    <use x="147.558594" xlink:href="#DejaVuSans-103"/>
    <use x="211.035156" xlink:href="#DejaVuSans-84"/>
    <use x="272.119141" xlink:href="#DejaVuSans-54"/>
    <use x="335.742188" xlink:href="#DejaVuSans-52"/>
   </g>
  </g>
 </g>
 <defs>
  <clipPath id="p585b5e132e">
   <rect height="280.8" width="378" x="70.478" y="20.16"/>
  </clipPath>
  <clipPath id="p207c3e339b">
   <rect height="280.8" width="378" x="524.078" y="20.16"/>
  </clipPath>
 </defs>
</svg>
