<?xml version="1.0" encoding="utf-8" standalone="no"?>
<!DOCTYPE svg PUBLIC "-//W3C//DTD SVG 1.1//EN"
  "http://www.w3.org/Graphics/SVG/1.1/DTD/svg11.dtd">
<!-- Created with matplotlib (https://matplotlib.org/) -->
<svg height="405.57375pt" version="1.1" viewBox="0 0 917.546148 405.57375" width="917.546148pt" xmlns="http://www.w3.org/2000/svg" xmlns:xlink="http://www.w3.org/1999/xlink">
 <defs>
  <style type="text/css">
*{stroke-linecap:butt;stroke-linejoin:round;white-space:pre;}
  </style>
 </defs>
 <g id="figure_1">
  <g id="patch_1">
   <path d="M 0 405.57375 
L 917.546148 405.57375 
L 917.546148 0 
L 0 0 
z
" style="fill:#ffffff;"/>
  </g>
  <g id="axes_1">
   <g id="patch_2">
    <path d="M 70.478 300.96 
L 448.478 300.96 
L 448.478 20.16 
L 70.478 20.16 
z
" style="fill:#ffffff;"/>
   </g>
   <g id="PathCollection_1">
    <defs>
     <path d="M 0 3.535534 
C 0.937635 3.535534 1.836992 3.163008 2.5 2.5 
C 3.163008 1.836992 3.535534 0.937635 3.535534 0 
C 3.535534 -0.937635 3.163008 -1.836992 2.5 -2.5 
C 1.836992 -3.163008 0.937635 -3.535534 0 -3.535534 
C -0.937635 -3.535534 -1.836992 -3.163008 -2.5 -2.5 
C -3.163008 -1.836992 -3.535534 -0.937635 -3.535534 0 
C -3.535534 0.937635 -3.163008 1.836992 -2.5 2.5 
C -1.836992 3.163008 -0.937635 3.535534 0 3.535534 
z
" id="maf89f13a56" style="stroke:#1f77b4;stroke-width:0.8;"/>
    </defs>
    <g clip-path="url(#p85b2ab92be)">
     <use style="fill:#1f77b4;stroke:#1f77b4;stroke-width:0.8;" x="90.204852" xlink:href="#maf89f13a56" y="196.141235"/>
     <use style="fill:#1f77b4;stroke:#1f77b4;stroke-width:0.8;" x="157.914111" xlink:href="#maf89f13a56" y="174.21337"/>
     <use style="fill:#1f77b4;stroke:#1f77b4;stroke-width:0.8;" x="225.62337" xlink:href="#maf89f13a56" y="135.736159"/>
     <use style="fill:#1f77b4;stroke:#1f77b4;stroke-width:0.8;" x="293.33263" xlink:href="#maf89f13a56" y="140.459123"/>
     <use style="fill:#1f77b4;stroke:#1f77b4;stroke-width:0.8;" x="361.041889" xlink:href="#maf89f13a56" y="120.817971"/>
     <use style="fill:#1f77b4;stroke:#1f77b4;stroke-width:0.8;" x="428.751148" xlink:href="#maf89f13a56" y="97.5111"/>
    </g>
   </g>
   <g id="PolyCollection_1">
    <path clip-path="url(#p85b2ab92be)" d="M 90.204852 166.115134 
L 90.204852 212.346237 
L 93.624512 211.014235 
L 97.044171 209.846657 
L 100.463831 208.669204 
L 103.88349 207.359495 
L 107.30315 206.05078 
L 110.722809 204.735184 
L 114.142469 203.351669 
L 117.562129 201.990353 
L 120.981788 200.640802 
L 124.401448 199.296179 
L 127.821107 197.948235 
L 131.240767 196.600291 
L 134.660426 195.455233 
L 138.080086 194.274202 
L 141.499745 193.191871 
L 144.919405 192.177102 
L 148.339065 191.032842 
L 151.758724 189.743521 
L 155.178384 188.454199 
L 158.598043 187.582533 
L 162.017703 186.672886 
L 165.437362 185.634829 
L 168.857022 184.422502 
L 172.276681 183.023023 
L 175.696341 181.755878 
L 179.116 180.86905 
L 182.53566 179.717826 
L 185.95532 178.900078 
L 189.374979 177.972687 
L 192.794639 176.951319 
L 196.214298 175.828999 
L 199.633958 174.899363 
L 203.053617 173.682674 
L 206.473277 172.652214 
L 209.892936 171.557605 
L 213.312596 170.551053 
L 216.732256 169.549376 
L 220.151915 168.85006 
L 223.571575 167.768445 
L 226.991234 166.713968 
L 230.410894 165.980671 
L 233.830553 165.141663 
L 237.250213 164.180031 
L 240.669872 163.340414 
L 244.089532 162.307935 
L 247.509192 161.268622 
L 250.928851 160.414551 
L 254.348511 159.62915 
L 257.76817 158.717649 
L 261.18783 157.711492 
L 264.607489 157.129297 
L 268.027149 156.26331 
L 271.446808 155.69563 
L 274.866468 154.892321 
L 278.286128 154.089011 
L 281.705787 153.327509 
L 285.125447 152.657555 
L 288.545106 152.195235 
L 291.964766 151.60285 
L 295.384425 151.055144 
L 298.804085 150.477258 
L 302.223744 150.00032 
L 305.643404 149.414818 
L 309.063064 148.703808 
L 312.482723 147.932082 
L 315.902383 147.160355 
L 319.322042 146.388607 
L 322.741702 145.83055 
L 326.161361 145.332624 
L 329.581021 144.610553 
L 333.00068 143.929183 
L 336.42034 143.367901 
L 339.84 142.649073 
L 343.259659 141.835042 
L 346.679319 141.340519 
L 350.098978 140.685177 
L 353.518638 139.90136 
L 356.938297 139.50075 
L 360.357957 139.028585 
L 363.777616 138.380694 
L 367.197276 137.726503 
L 370.616935 136.962785 
L 374.036595 136.42834 
L 377.456255 135.783032 
L 380.875914 135.130139 
L 384.295574 134.468875 
L 387.715233 133.884781 
L 391.134893 133.303136 
L 394.554552 132.721492 
L 397.974212 132.233771 
L 401.393871 131.674357 
L 404.813531 130.976703 
L 408.233191 130.456092 
L 411.65285 129.880039 
L 415.07251 129.492535 
L 418.492169 128.896377 
L 421.911829 128.237534 
L 425.331488 127.578691 
L 428.751148 126.919848 
L 428.751148 68.744021 
L 428.751148 68.744021 
L 425.331488 70.031976 
L 421.911829 71.319932 
L 418.492169 72.607888 
L 415.07251 73.888742 
L 411.65285 75.059743 
L 408.233191 76.242057 
L 404.813531 77.674375 
L 401.393871 79.038752 
L 397.974212 80.326875 
L 394.554552 81.612013 
L 391.134893 82.895128 
L 387.715233 84.181825 
L 384.295574 85.351039 
L 380.875914 86.592054 
L 377.456255 87.769627 
L 374.036595 88.978445 
L 370.616935 90.335937 
L 367.197276 91.655963 
L 363.777616 92.850686 
L 360.357957 94.121662 
L 356.938297 95.56583 
L 353.518638 97.009998 
L 350.098978 98.313208 
L 346.679319 99.390353 
L 343.259659 100.78883 
L 339.84 102.179597 
L 336.42034 103.467806 
L 333.00068 104.756015 
L 329.581021 106.044224 
L 326.161361 107.332433 
L 322.741702 108.620642 
L 319.322042 109.908851 
L 315.902383 111.193654 
L 312.482723 112.444079 
L 309.063064 113.56062 
L 305.643404 114.576653 
L 302.223744 115.99782 
L 298.804085 117.408129 
L 295.384425 118.641693 
L 291.964766 119.508404 
L 288.545106 120.774239 
L 285.125447 121.84167 
L 281.705787 122.874305 
L 278.286128 123.995194 
L 274.866468 124.963818 
L 271.446808 125.85363 
L 268.027149 126.815474 
L 264.607489 128.067287 
L 261.18783 129.146911 
L 257.76817 130.19073 
L 254.348511 131.114671 
L 250.928851 132.177751 
L 247.509192 133.166221 
L 244.089532 134.027642 
L 240.669872 134.767159 
L 237.250213 135.94816 
L 233.830553 137.114991 
L 230.410894 138.083701 
L 226.991234 138.950679 
L 223.571575 139.83213 
L 220.151915 140.708257 
L 216.732256 141.377757 
L 213.312596 141.98729 
L 209.892936 142.655414 
L 206.473277 143.197389 
L 203.053617 143.934364 
L 199.633958 144.632858 
L 196.214298 145.335891 
L 192.794639 146.12894 
L 189.374979 146.769753 
L 185.95532 147.540018 
L 182.53566 148.499161 
L 179.116 149.199173 
L 175.696341 149.899185 
L 172.276681 150.599197 
L 168.857022 151.299209 
L 165.437362 151.99922 
L 162.017703 152.699232 
L 158.598043 153.399244 
L 155.178384 154.099256 
L 151.758724 154.842693 
L 148.339065 155.497045 
L 144.919405 156.193275 
L 141.499745 156.844249 
L 138.080086 157.326695 
L 134.660426 157.88962 
L 131.240767 158.427867 
L 127.821107 159.222392 
L 124.401448 160.021105 
L 120.981788 160.659173 
L 117.562129 161.177323 
L 114.142469 161.924878 
L 110.722809 162.531414 
L 107.30315 163.313505 
L 103.88349 164.187815 
L 100.463831 164.697807 
L 97.044171 165.2078 
L 93.624512 165.69217 
L 90.204852 166.115134 
z
" style="fill:#1f77b4;fill-opacity:0.15;"/>
   </g>
   <g id="PathCollection_2">
    <defs>
     <path d="M 0 3.535534 
C 0.937635 3.535534 1.836992 3.163008 2.5 2.5 
C 3.163008 1.836992 3.535534 0.937635 3.535534 0 
C 3.535534 -0.937635 3.163008 -1.836992 2.5 -2.5 
C 1.836992 -3.163008 0.937635 -3.535534 0 -3.535534 
C -0.937635 -3.535534 -1.836992 -3.163008 -2.5 -2.5 
C -3.163008 -1.836992 -3.535534 -0.937635 -3.535534 0 
C -3.535534 0.937635 -3.163008 1.836992 -2.5 2.5 
C -1.836992 3.163008 -0.937635 3.535534 0 3.535534 
z
" id="me8bda74d3d" style="stroke:#ff7f0e;stroke-width:0.8;"/>
    </defs>
    <g clip-path="url(#p85b2ab92be)">
     <use style="fill:#ff7f0e;stroke:#ff7f0e;stroke-width:0.8;" x="90.204852" xlink:href="#me8bda74d3d" y="267.815018"/>
     <use style="fill:#ff7f0e;stroke:#ff7f0e;stroke-width:0.8;" x="157.914111" xlink:href="#me8bda74d3d" y="237.968973"/>
     <use style="fill:#ff7f0e;stroke:#ff7f0e;stroke-width:0.8;" x="225.62337" xlink:href="#me8bda74d3d" y="246.661106"/>
     <use style="fill:#ff7f0e;stroke:#ff7f0e;stroke-width:0.8;" x="293.33263" xlink:href="#me8bda74d3d" y="226.139682"/>
     <use style="fill:#ff7f0e;stroke:#ff7f0e;stroke-width:0.8;" x="361.041889" xlink:href="#me8bda74d3d" y="243.575379"/>
     <use style="fill:#ff7f0e;stroke:#ff7f0e;stroke-width:0.8;" x="428.751148" xlink:href="#me8bda74d3d" y="187.369249"/>
    </g>
   </g>
   <g id="PolyCollection_2">
    <path clip-path="url(#p85b2ab92be)" d="M 90.204852 238.229464 
L 90.204852 288.196364 
L 93.624512 286.997118 
L 97.044171 285.857706 
L 100.463831 284.740641 
L 103.88349 283.83846 
L 107.30315 282.850578 
L 110.722809 281.746592 
L 114.142469 280.642459 
L 117.562129 279.608399 
L 120.981788 278.660925 
L 124.401448 277.532801 
L 127.821107 276.42179 
L 131.240767 275.495613 
L 134.660426 274.478622 
L 138.080086 273.427311 
L 141.499745 272.628762 
L 144.919405 271.76799 
L 148.339065 270.773049 
L 151.758724 269.824783 
L 155.178384 268.793263 
L 158.598043 267.797417 
L 162.017703 266.820128 
L 165.437362 265.806696 
L 168.857022 264.801211 
L 172.276681 263.913975 
L 175.696341 263.14247 
L 179.116 262.768507 
L 182.53566 262.398957 
L 185.95532 261.784833 
L 189.374979 261.094521 
L 192.794639 260.287505 
L 196.214298 259.598882 
L 199.633958 258.994988 
L 203.053617 258.409109 
L 206.473277 257.917856 
L 209.892936 257.26743 
L 213.312596 256.51931 
L 216.732256 255.904359 
L 220.151915 255.296352 
L 223.571575 254.677317 
L 226.991234 254.13414 
L 230.410894 253.792002 
L 233.830553 252.902556 
L 237.250213 252.533934 
L 240.669872 252.081584 
L 244.089532 251.692995 
L 247.509192 251.170809 
L 250.928851 250.763763 
L 254.348511 250.464854 
L 257.76817 250.15722 
L 261.18783 249.624626 
L 264.607489 249.251999 
L 268.027149 248.842053 
L 271.446808 248.483926 
L 274.866468 248.154355 
L 278.286128 247.790572 
L 281.705787 247.425147 
L 285.125447 247.045362 
L 288.545106 246.693634 
L 291.964766 246.362537 
L 295.384425 246.113316 
L 298.804085 245.765568 
L 302.223744 245.544489 
L 305.643404 245.259517 
L 309.063064 244.886274 
L 312.482723 244.689315 
L 315.902383 244.40904 
L 319.322042 244.268216 
L 322.741702 243.894273 
L 326.161361 243.695115 
L 329.581021 243.353022 
L 333.00068 243.010096 
L 336.42034 242.842663 
L 339.84 242.578585 
L 343.259659 242.264759 
L 346.679319 242.015472 
L 350.098978 241.956707 
L 353.518638 241.778079 
L 356.938297 241.551049 
L 360.357957 241.31724 
L 363.777616 241.082102 
L 367.197276 240.815406 
L 370.616935 240.623864 
L 374.036595 240.39681 
L 377.456255 240.164298 
L 380.875914 239.931786 
L 384.295574 239.699275 
L 387.715233 239.466763 
L 391.134893 239.234251 
L 394.554552 239.139675 
L 397.974212 238.863156 
L 401.393871 238.725382 
L 404.813531 238.408576 
L 408.233191 238.104764 
L 411.65285 237.852509 
L 415.07251 237.648156 
L 418.492169 237.382383 
L 421.911829 237.153795 
L 425.331488 236.955717 
L 428.751148 236.883383 
L 428.751148 161.146805 
L 428.751148 161.146805 
L 425.331488 162.453357 
L 421.911829 163.577222 
L 418.492169 164.529507 
L 415.07251 165.481791 
L 411.65285 166.434076 
L 408.233191 167.500952 
L 404.813531 168.617734 
L 401.393871 169.737913 
L 397.974212 170.862036 
L 394.554552 171.986159 
L 391.134893 173.139228 
L 387.715233 174.377829 
L 384.295574 175.616431 
L 380.875914 176.855033 
L 377.456255 178.001121 
L 374.036595 178.975308 
L 370.616935 180.088817 
L 367.197276 181.730316 
L 363.777616 183.058876 
L 360.357957 184.302347 
L 356.938297 185.545819 
L 353.518638 186.78929 
L 350.098978 188.032761 
L 346.679319 189.278392 
L 343.259659 190.617865 
L 339.84 192.055553 
L 336.42034 193.038068 
L 333.00068 194.282307 
L 329.581021 195.484438 
L 326.161361 196.720548 
L 322.741702 197.956657 
L 319.322042 199.192767 
L 315.902383 200.206561 
L 312.482723 200.900235 
L 309.063064 201.596683 
L 305.643404 202.784568 
L 302.223744 204.032425 
L 298.804085 205.216471 
L 295.384425 206.236628 
L 291.964766 207.337843 
L 288.545106 207.906826 
L 285.125447 208.728231 
L 281.705787 210.049258 
L 278.286128 210.88983 
L 274.866468 211.779108 
L 271.446808 212.913164 
L 268.027149 213.785679 
L 264.607489 214.753178 
L 261.18783 215.73242 
L 257.76817 216.905826 
L 254.348511 218.002143 
L 250.928851 219.214927 
L 247.509192 220.090484 
L 244.089532 221.272722 
L 240.669872 222.334166 
L 237.250213 222.977908 
L 233.830553 223.785031 
L 230.410894 224.25328 
L 226.991234 224.886615 
L 223.571575 225.579341 
L 220.151915 226.482396 
L 216.732256 227.197852 
L 213.312596 227.501398 
L 209.892936 227.592125 
L 206.473277 227.948452 
L 203.053617 228.715449 
L 199.633958 229.49862 
L 196.214298 229.920679 
L 192.794639 230.407927 
L 189.374979 230.76925 
L 185.95532 231.377648 
L 182.53566 231.529824 
L 179.116 231.774785 
L 175.696341 232.118472 
L 172.276681 232.78483 
L 168.857022 232.968025 
L 165.437362 233.206378 
L 162.017703 233.343299 
L 158.598043 233.448965 
L 155.178384 233.555715 
L 151.758724 234.062218 
L 148.339065 234.635649 
L 144.919405 234.873474 
L 141.499745 235.12415 
L 138.080086 235.288827 
L 134.660426 235.60211 
L 131.240767 235.841445 
L 127.821107 236.088232 
L 124.401448 236.331424 
L 120.981788 236.564351 
L 117.562129 236.604279 
L 114.142469 236.848976 
L 110.722809 237.153298 
L 107.30315 237.402475 
L 103.88349 237.49478 
L 100.463831 237.80955 
L 97.044171 237.963784 
L 93.624512 238.06766 
L 90.204852 238.229464 
z
" style="fill:#ff7f0e;fill-opacity:0.15;"/>
   </g>
   <g id="matplotlib.axis_1">
    <g id="xtick_1">
     <g id="line2d_1">
      <defs>
       <path d="M 0 0 
L 0 4.8 
" id="madf5f0f40b" style="stroke:#000000;"/>
      </defs>
      <g>
       <use style="stroke:#000000;" x="88.850667" xlink:href="#madf5f0f40b" y="310.96"/>
      </g>
     </g>
     <g id="text_1">
      <!-- 350 -->
      <defs>
       <path d="M 40.578125 39.3125 
Q 47.65625 37.796875 51.625 33 
Q 55.609375 28.21875 55.609375 21.1875 
Q 55.609375 10.40625 48.1875 4.484375 
Q 40.765625 -1.421875 27.09375 -1.421875 
Q 22.515625 -1.421875 17.65625 -0.515625 
Q 12.796875 0.390625 7.625 2.203125 
L 7.625 11.71875 
Q 11.71875 9.328125 16.59375 8.109375 
Q 21.484375 6.890625 26.8125 6.890625 
Q 36.078125 6.890625 40.9375 10.546875 
Q 45.796875 14.203125 45.796875 21.1875 
Q 45.796875 27.640625 41.28125 31.265625 
Q 36.765625 34.90625 28.71875 34.90625 
L 20.21875 34.90625 
L 20.21875 43.015625 
L 29.109375 43.015625 
Q 36.375 43.015625 40.234375 45.921875 
Q 44.09375 48.828125 44.09375 54.296875 
Q 44.09375 59.90625 40.109375 62.90625 
Q 36.140625 65.921875 28.71875 65.921875 
Q 24.65625 65.921875 20.015625 65.03125 
Q 15.375 64.15625 9.8125 62.3125 
L 9.8125 71.09375 
Q 15.4375 72.65625 20.34375 73.4375 
Q 25.25 74.21875 29.59375 74.21875 
Q 40.828125 74.21875 47.359375 69.109375 
Q 53.90625 64.015625 53.90625 55.328125 
Q 53.90625 49.265625 50.4375 45.09375 
Q 46.96875 40.921875 40.578125 39.3125 
z
" id="DejaVuSans-51"/>
       <path d="M 10.796875 72.90625 
L 49.515625 72.90625 
L 49.515625 64.59375 
L 19.828125 64.59375 
L 19.828125 46.734375 
Q 21.96875 47.46875 24.109375 47.828125 
Q 26.265625 48.1875 28.421875 48.1875 
Q 40.625 48.1875 47.75 41.5 
Q 54.890625 34.8125 54.890625 23.390625 
Q 54.890625 11.625 47.5625 5.09375 
Q 40.234375 -1.421875 26.90625 -1.421875 
Q 22.3125 -1.421875 17.546875 -0.640625 
Q 12.796875 0.140625 7.71875 1.703125 
L 7.71875 11.625 
Q 12.109375 9.234375 16.796875 8.0625 
Q 21.484375 6.890625 26.703125 6.890625 
Q 35.15625 6.890625 40.078125 11.328125 
Q 45.015625 15.765625 45.015625 23.390625 
Q 45.015625 31 40.078125 35.4375 
Q 35.15625 39.890625 26.703125 39.890625 
Q 22.75 39.890625 18.8125 39.015625 
Q 14.890625 38.140625 10.796875 36.28125 
z
" id="DejaVuSans-53"/>
       <path d="M 31.78125 66.40625 
Q 24.171875 66.40625 20.328125 58.90625 
Q 16.5 51.421875 16.5 36.375 
Q 16.5 21.390625 20.328125 13.890625 
Q 24.171875 6.390625 31.78125 6.390625 
Q 39.453125 6.390625 43.28125 13.890625 
Q 47.125 21.390625 47.125 36.375 
Q 47.125 51.421875 43.28125 58.90625 
Q 39.453125 66.40625 31.78125 66.40625 
z
M 31.78125 74.21875 
Q 44.046875 74.21875 50.515625 64.515625 
Q 56.984375 54.828125 56.984375 36.375 
Q 56.984375 17.96875 50.515625 8.265625 
Q 44.046875 -1.421875 31.78125 -1.421875 
Q 19.53125 -1.421875 13.0625 8.265625 
Q 6.59375 17.96875 6.59375 36.375 
Q 6.59375 54.828125 13.0625 64.515625 
Q 19.53125 74.21875 31.78125 74.21875 
z
" id="DejaVuSans-48"/>
      </defs>
      <g transform="translate(72.053667 332.63325)scale(0.176 -0.176)">
       <use xlink:href="#DejaVuSans-51"/>
       <use x="63.623047" xlink:href="#DejaVuSans-53"/>
       <use x="127.246094" xlink:href="#DejaVuSans-48"/>
      </g>
     </g>
    </g>
    <g id="xtick_2">
     <g id="line2d_2">
      <g>
       <use style="stroke:#000000;" x="156.559926" xlink:href="#madf5f0f40b" y="310.96"/>
      </g>
     </g>
     <g id="text_2">
      <!-- 400 -->
      <defs>
       <path d="M 37.796875 64.3125 
L 12.890625 25.390625 
L 37.796875 25.390625 
z
M 35.203125 72.90625 
L 47.609375 72.90625 
L 47.609375 25.390625 
L 58.015625 25.390625 
L 58.015625 17.1875 
L 47.609375 17.1875 
L 47.609375 0 
L 37.796875 0 
L 37.796875 17.1875 
L 4.890625 17.1875 
L 4.890625 26.703125 
z
" id="DejaVuSans-52"/>
      </defs>
      <g transform="translate(139.762926 332.63325)scale(0.176 -0.176)">
       <use xlink:href="#DejaVuSans-52"/>
       <use x="63.623047" xlink:href="#DejaVuSans-48"/>
       <use x="127.246094" xlink:href="#DejaVuSans-48"/>
      </g>
     </g>
    </g>
    <g id="xtick_3">
     <g id="line2d_3">
      <g>
       <use style="stroke:#000000;" x="224.269185" xlink:href="#madf5f0f40b" y="310.96"/>
      </g>
     </g>
     <g id="text_3">
      <!-- 450 -->
      <g transform="translate(207.472185 332.63325)scale(0.176 -0.176)">
       <use xlink:href="#DejaVuSans-52"/>
       <use x="63.623047" xlink:href="#DejaVuSans-53"/>
       <use x="127.246094" xlink:href="#DejaVuSans-48"/>
      </g>
     </g>
    </g>
    <g id="xtick_4">
     <g id="line2d_4">
      <g>
       <use style="stroke:#000000;" x="291.978444" xlink:href="#madf5f0f40b" y="310.96"/>
      </g>
     </g>
     <g id="text_4">
      <!-- 500 -->
      <g transform="translate(275.181444 332.63325)scale(0.176 -0.176)">
       <use xlink:href="#DejaVuSans-53"/>
       <use x="63.623047" xlink:href="#DejaVuSans-48"/>
       <use x="127.246094" xlink:href="#DejaVuSans-48"/>
      </g>
     </g>
    </g>
    <g id="xtick_5">
     <g id="line2d_5">
      <g>
       <use style="stroke:#000000;" x="359.687704" xlink:href="#madf5f0f40b" y="310.96"/>
      </g>
     </g>
     <g id="text_5">
      <!-- 550 -->
      <g transform="translate(342.890704 332.63325)scale(0.176 -0.176)">
       <use xlink:href="#DejaVuSans-53"/>
       <use x="63.623047" xlink:href="#DejaVuSans-53"/>
       <use x="127.246094" xlink:href="#DejaVuSans-48"/>
      </g>
     </g>
    </g>
    <g id="xtick_6">
     <g id="line2d_6">
      <g>
       <use style="stroke:#000000;" x="427.396963" xlink:href="#madf5f0f40b" y="310.96"/>
      </g>
     </g>
     <g id="text_6">
      <!-- 600 -->
      <defs>
       <path d="M 33.015625 40.375 
Q 26.375 40.375 22.484375 35.828125 
Q 18.609375 31.296875 18.609375 23.390625 
Q 18.609375 15.53125 22.484375 10.953125 
Q 26.375 6.390625 33.015625 6.390625 
Q 39.65625 6.390625 43.53125 10.953125 
Q 47.40625 15.53125 47.40625 23.390625 
Q 47.40625 31.296875 43.53125 35.828125 
Q 39.65625 40.375 33.015625 40.375 
z
M 52.59375 71.296875 
L 52.59375 62.3125 
Q 48.875 64.0625 45.09375 64.984375 
Q 41.3125 65.921875 37.59375 65.921875 
Q 27.828125 65.921875 22.671875 59.328125 
Q 17.53125 52.734375 16.796875 39.40625 
Q 19.671875 43.65625 24.015625 45.921875 
Q 28.375 48.1875 33.59375 48.1875 
Q 44.578125 48.1875 50.953125 41.515625 
Q 57.328125 34.859375 57.328125 23.390625 
Q 57.328125 12.15625 50.6875 5.359375 
Q 44.046875 -1.421875 33.015625 -1.421875 
Q 20.359375 -1.421875 13.671875 8.265625 
Q 6.984375 17.96875 6.984375 36.375 
Q 6.984375 53.65625 15.1875 63.9375 
Q 23.390625 74.21875 37.203125 74.21875 
Q 40.921875 74.21875 44.703125 73.484375 
Q 48.484375 72.75 52.59375 71.296875 
z
" id="DejaVuSans-54"/>
      </defs>
      <g transform="translate(410.599963 332.63325)scale(0.176 -0.176)">
       <use xlink:href="#DejaVuSans-54"/>
       <use x="63.623047" xlink:href="#DejaVuSans-48"/>
       <use x="127.246094" xlink:href="#DejaVuSans-48"/>
      </g>
     </g>
    </g>
    <g id="text_7">
     <!-- Number of samples -->
     <defs>
      <path d="M 9.8125 72.90625 
L 23.09375 72.90625 
L 55.421875 11.921875 
L 55.421875 72.90625 
L 64.984375 72.90625 
L 64.984375 0 
L 51.703125 0 
L 19.390625 60.984375 
L 19.390625 0 
L 9.8125 0 
z
" id="DejaVuSans-78"/>
      <path d="M 8.5 21.578125 
L 8.5 54.6875 
L 17.484375 54.6875 
L 17.484375 21.921875 
Q 17.484375 14.15625 20.5 10.265625 
Q 23.53125 6.390625 29.59375 6.390625 
Q 36.859375 6.390625 41.078125 11.03125 
Q 45.3125 15.671875 45.3125 23.6875 
L 45.3125 54.6875 
L 54.296875 54.6875 
L 54.296875 0 
L 45.3125 0 
L 45.3125 8.40625 
Q 42.046875 3.421875 37.71875 1 
Q 33.40625 -1.421875 27.6875 -1.421875 
Q 18.265625 -1.421875 13.375 4.4375 
Q 8.5 10.296875 8.5 21.578125 
z
M 31.109375 56 
z
" id="DejaVuSans-117"/>
      <path d="M 52 44.1875 
Q 55.375 50.25 60.0625 53.125 
Q 64.75 56 71.09375 56 
Q 79.640625 56 84.28125 50.015625 
Q 88.921875 44.046875 88.921875 33.015625 
L 88.921875 0 
L 79.890625 0 
L 79.890625 32.71875 
Q 79.890625 40.578125 77.09375 44.375 
Q 74.3125 48.1875 68.609375 48.1875 
Q 61.625 48.1875 57.5625 43.546875 
Q 53.515625 38.921875 53.515625 30.90625 
L 53.515625 0 
L 44.484375 0 
L 44.484375 32.71875 
Q 44.484375 40.625 41.703125 44.40625 
Q 38.921875 48.1875 33.109375 48.1875 
Q 26.21875 48.1875 22.15625 43.53125 
Q 18.109375 38.875 18.109375 30.90625 
L 18.109375 0 
L 9.078125 0 
L 9.078125 54.6875 
L 18.109375 54.6875 
L 18.109375 46.1875 
Q 21.1875 51.21875 25.484375 53.609375 
Q 29.78125 56 35.6875 56 
Q 41.65625 56 45.828125 52.96875 
Q 50 49.953125 52 44.1875 
z
" id="DejaVuSans-109"/>
      <path d="M 48.6875 27.296875 
Q 48.6875 37.203125 44.609375 42.84375 
Q 40.53125 48.484375 33.40625 48.484375 
Q 26.265625 48.484375 22.1875 42.84375 
Q 18.109375 37.203125 18.109375 27.296875 
Q 18.109375 17.390625 22.1875 11.75 
Q 26.265625 6.109375 33.40625 6.109375 
Q 40.53125 6.109375 44.609375 11.75 
Q 48.6875 17.390625 48.6875 27.296875 
z
M 18.109375 46.390625 
Q 20.953125 51.265625 25.265625 53.625 
Q 29.59375 56 35.59375 56 
Q 45.5625 56 51.78125 48.09375 
Q 58.015625 40.1875 58.015625 27.296875 
Q 58.015625 14.40625 51.78125 6.484375 
Q 45.5625 -1.421875 35.59375 -1.421875 
Q 29.59375 -1.421875 25.265625 0.953125 
Q 20.953125 3.328125 18.109375 8.203125 
L 18.109375 0 
L 9.078125 0 
L 9.078125 75.984375 
L 18.109375 75.984375 
z
" id="DejaVuSans-98"/>
      <path d="M 56.203125 29.59375 
L 56.203125 25.203125 
L 14.890625 25.203125 
Q 15.484375 15.921875 20.484375 11.0625 
Q 25.484375 6.203125 34.421875 6.203125 
Q 39.59375 6.203125 44.453125 7.46875 
Q 49.3125 8.734375 54.109375 11.28125 
L 54.109375 2.78125 
Q 49.265625 0.734375 44.1875 -0.34375 
Q 39.109375 -1.421875 33.890625 -1.421875 
Q 20.796875 -1.421875 13.15625 6.1875 
Q 5.515625 13.8125 5.515625 26.8125 
Q 5.515625 40.234375 12.765625 48.109375 
Q 20.015625 56 32.328125 56 
Q 43.359375 56 49.78125 48.890625 
Q 56.203125 41.796875 56.203125 29.59375 
z
M 47.21875 32.234375 
Q 47.125 39.59375 43.09375 43.984375 
Q 39.0625 48.390625 32.421875 48.390625 
Q 24.90625 48.390625 20.390625 44.140625 
Q 15.875 39.890625 15.1875 32.171875 
z
" id="DejaVuSans-101"/>
      <path d="M 41.109375 46.296875 
Q 39.59375 47.171875 37.8125 47.578125 
Q 36.03125 48 33.890625 48 
Q 26.265625 48 22.1875 43.046875 
Q 18.109375 38.09375 18.109375 28.8125 
L 18.109375 0 
L 9.078125 0 
L 9.078125 54.6875 
L 18.109375 54.6875 
L 18.109375 46.1875 
Q 20.953125 51.171875 25.484375 53.578125 
Q 30.03125 56 36.53125 56 
Q 37.453125 56 38.578125 55.875 
Q 39.703125 55.765625 41.0625 55.515625 
z
" id="DejaVuSans-114"/>
      <path id="DejaVuSans-32"/>
      <path d="M 30.609375 48.390625 
Q 23.390625 48.390625 19.1875 42.75 
Q 14.984375 37.109375 14.984375 27.296875 
Q 14.984375 17.484375 19.15625 11.84375 
Q 23.34375 6.203125 30.609375 6.203125 
Q 37.796875 6.203125 41.984375 11.859375 
Q 46.1875 17.53125 46.1875 27.296875 
Q 46.1875 37.015625 41.984375 42.703125 
Q 37.796875 48.390625 30.609375 48.390625 
z
M 30.609375 56 
Q 42.328125 56 49.015625 48.375 
Q 55.71875 40.765625 55.71875 27.296875 
Q 55.71875 13.875 49.015625 6.21875 
Q 42.328125 -1.421875 30.609375 -1.421875 
Q 18.84375 -1.421875 12.171875 6.21875 
Q 5.515625 13.875 5.515625 27.296875 
Q 5.515625 40.765625 12.171875 48.375 
Q 18.84375 56 30.609375 56 
z
" id="DejaVuSans-111"/>
      <path d="M 37.109375 75.984375 
L 37.109375 68.5 
L 28.515625 68.5 
Q 23.6875 68.5 21.796875 66.546875 
Q 19.921875 64.59375 19.921875 59.515625 
L 19.921875 54.6875 
L 34.71875 54.6875 
L 34.71875 47.703125 
L 19.921875 47.703125 
L 19.921875 0 
L 10.890625 0 
L 10.890625 47.703125 
L 2.296875 47.703125 
L 2.296875 54.6875 
L 10.890625 54.6875 
L 10.890625 58.5 
Q 10.890625 67.625 15.140625 71.796875 
Q 19.390625 75.984375 28.609375 75.984375 
z
" id="DejaVuSans-102"/>
      <path d="M 44.28125 53.078125 
L 44.28125 44.578125 
Q 40.484375 46.53125 36.375 47.5 
Q 32.28125 48.484375 27.875 48.484375 
Q 21.1875 48.484375 17.84375 46.4375 
Q 14.5 44.390625 14.5 40.28125 
Q 14.5 37.15625 16.890625 35.375 
Q 19.28125 33.59375 26.515625 31.984375 
L 29.59375 31.296875 
Q 39.15625 29.25 43.1875 25.515625 
Q 47.21875 21.78125 47.21875 15.09375 
Q 47.21875 7.46875 41.1875 3.015625 
Q 35.15625 -1.421875 24.609375 -1.421875 
Q 20.21875 -1.421875 15.453125 -0.5625 
Q 10.6875 0.296875 5.421875 2 
L 5.421875 11.28125 
Q 10.40625 8.6875 15.234375 7.390625 
Q 20.0625 6.109375 24.8125 6.109375 
Q 31.15625 6.109375 34.5625 8.28125 
Q 37.984375 10.453125 37.984375 14.40625 
Q 37.984375 18.0625 35.515625 20.015625 
Q 33.0625 21.96875 24.703125 23.78125 
L 21.578125 24.515625 
Q 13.234375 26.265625 9.515625 29.90625 
Q 5.8125 33.546875 5.8125 39.890625 
Q 5.8125 47.609375 11.28125 51.796875 
Q 16.75 56 26.8125 56 
Q 31.78125 56 36.171875 55.265625 
Q 40.578125 54.546875 44.28125 53.078125 
z
" id="DejaVuSans-115"/>
      <path d="M 34.28125 27.484375 
Q 23.390625 27.484375 19.1875 25 
Q 14.984375 22.515625 14.984375 16.5 
Q 14.984375 11.71875 18.140625 8.90625 
Q 21.296875 6.109375 26.703125 6.109375 
Q 34.1875 6.109375 38.703125 11.40625 
Q 43.21875 16.703125 43.21875 25.484375 
L 43.21875 27.484375 
z
M 52.203125 31.203125 
L 52.203125 0 
L 43.21875 0 
L 43.21875 8.296875 
Q 40.140625 3.328125 35.546875 0.953125 
Q 30.953125 -1.421875 24.3125 -1.421875 
Q 15.921875 -1.421875 10.953125 3.296875 
Q 6 8.015625 6 15.921875 
Q 6 25.140625 12.171875 29.828125 
Q 18.359375 34.515625 30.609375 34.515625 
L 43.21875 34.515625 
L 43.21875 35.40625 
Q 43.21875 41.609375 39.140625 45 
Q 35.0625 48.390625 27.6875 48.390625 
Q 23 48.390625 18.546875 47.265625 
Q 14.109375 46.140625 10.015625 43.890625 
L 10.015625 52.203125 
Q 14.9375 54.109375 19.578125 55.046875 
Q 24.21875 56 28.609375 56 
Q 40.484375 56 46.34375 49.84375 
Q 52.203125 43.703125 52.203125 31.203125 
z
" id="DejaVuSans-97"/>
      <path d="M 18.109375 8.203125 
L 18.109375 -20.796875 
L 9.078125 -20.796875 
L 9.078125 54.6875 
L 18.109375 54.6875 
L 18.109375 46.390625 
Q 20.953125 51.265625 25.265625 53.625 
Q 29.59375 56 35.59375 56 
Q 45.5625 56 51.78125 48.09375 
Q 58.015625 40.1875 58.015625 27.296875 
Q 58.015625 14.40625 51.78125 6.484375 
Q 45.5625 -1.421875 35.59375 -1.421875 
Q 29.59375 -1.421875 25.265625 0.953125 
Q 20.953125 3.328125 18.109375 8.203125 
z
M 48.6875 27.296875 
Q 48.6875 37.203125 44.609375 42.84375 
Q 40.53125 48.484375 33.40625 48.484375 
Q 26.265625 48.484375 22.1875 42.84375 
Q 18.109375 37.203125 18.109375 27.296875 
Q 18.109375 17.390625 22.1875 11.75 
Q 26.265625 6.109375 33.40625 6.109375 
Q 40.53125 6.109375 44.609375 11.75 
Q 48.6875 17.390625 48.6875 27.296875 
z
" id="DejaVuSans-112"/>
      <path d="M 9.421875 75.984375 
L 18.40625 75.984375 
L 18.40625 0 
L 9.421875 0 
z
" id="DejaVuSans-108"/>
     </defs>
     <g transform="translate(165.653 354.8825)scale(0.192 -0.192)">
      <use xlink:href="#DejaVuSans-78"/>
      <use x="74.804688" xlink:href="#DejaVuSans-117"/>
      <use x="138.183594" xlink:href="#DejaVuSans-109"/>
      <use x="235.595703" xlink:href="#DejaVuSans-98"/>
      <use x="299.072266" xlink:href="#DejaVuSans-101"/>
      <use x="360.595703" xlink:href="#DejaVuSans-114"/>
      <use x="401.708984" xlink:href="#DejaVuSans-32"/>
      <use x="433.496094" xlink:href="#DejaVuSans-111"/>
      <use x="494.677734" xlink:href="#DejaVuSans-102"/>
      <use x="529.882812" xlink:href="#DejaVuSans-32"/>
      <use x="561.669922" xlink:href="#DejaVuSans-115"/>
      <use x="613.769531" xlink:href="#DejaVuSans-97"/>
      <use x="675.048828" xlink:href="#DejaVuSans-109"/>
      <use x="772.460938" xlink:href="#DejaVuSans-112"/>
      <use x="835.9375" xlink:href="#DejaVuSans-108"/>
      <use x="863.720703" xlink:href="#DejaVuSans-101"/>
      <use x="925.244141" xlink:href="#DejaVuSans-115"/>
     </g>
    </g>
   </g>
   <g id="matplotlib.axis_2">
    <g id="ytick_1">
     <g id="line2d_7">
      <path clip-path="url(#p85b2ab92be)" d="M 70.478 283.538163 
L 448.478 283.538163 
" style="fill:none;stroke:#b0b0b0;stroke-linecap:square;stroke-opacity:0.5;stroke-width:0.8;"/>
     </g>
     <g id="line2d_8">
      <defs>
       <path d="M 0 0 
L -4.8 0 
" id="m301afe7d56" style="stroke:#000000;"/>
      </defs>
      <g>
       <use style="stroke:#000000;" x="60.478" xlink:href="#m301afe7d56" y="283.538163"/>
      </g>
     </g>
     <g id="text_8">
      <!-- 2 -->
      <defs>
       <path d="M 19.1875 8.296875 
L 53.609375 8.296875 
L 53.609375 0 
L 7.328125 0 
L 7.328125 8.296875 
Q 12.9375 14.109375 22.625 23.890625 
Q 32.328125 33.6875 34.8125 36.53125 
Q 39.546875 41.84375 41.421875 45.53125 
Q 43.3125 49.21875 43.3125 52.78125 
Q 43.3125 58.59375 39.234375 62.25 
Q 35.15625 65.921875 28.609375 65.921875 
Q 23.96875 65.921875 18.8125 64.3125 
Q 13.671875 62.703125 7.8125 59.421875 
L 7.8125 69.390625 
Q 13.765625 71.78125 18.9375 73 
Q 24.125 74.21875 28.421875 74.21875 
Q 39.75 74.21875 46.484375 68.546875 
Q 53.21875 62.890625 53.21875 53.421875 
Q 53.21875 48.921875 51.53125 44.890625 
Q 49.859375 40.875 45.40625 35.40625 
Q 44.1875 33.984375 37.640625 27.21875 
Q 31.109375 20.453125 19.1875 8.296875 
z
" id="DejaVuSans-50"/>
      </defs>
      <g transform="translate(40.98 290.224788)scale(0.176 -0.176)">
       <use xlink:href="#DejaVuSans-50"/>
      </g>
     </g>
    </g>
    <g id="ytick_2">
     <g id="line2d_9">
      <path clip-path="url(#p85b2ab92be)" d="M 70.478 239.205561 
L 448.478 239.205561 
" style="fill:none;stroke:#b0b0b0;stroke-linecap:square;stroke-opacity:0.5;stroke-width:0.8;"/>
     </g>
     <g id="line2d_10">
      <g>
       <use style="stroke:#000000;" x="60.478" xlink:href="#m301afe7d56" y="239.205561"/>
      </g>
     </g>
     <g id="text_9">
      <!-- 4 -->
      <g transform="translate(40.98 245.892186)scale(0.176 -0.176)">
       <use xlink:href="#DejaVuSans-52"/>
      </g>
     </g>
    </g>
    <g id="ytick_3">
     <g id="line2d_11">
      <path clip-path="url(#p85b2ab92be)" d="M 70.478 194.872959 
L 448.478 194.872959 
" style="fill:none;stroke:#b0b0b0;stroke-linecap:square;stroke-opacity:0.5;stroke-width:0.8;"/>
     </g>
     <g id="line2d_12">
      <g>
       <use style="stroke:#000000;" x="60.478" xlink:href="#m301afe7d56" y="194.872959"/>
      </g>
     </g>
     <g id="text_10">
      <!-- 6 -->
      <g transform="translate(40.98 201.559584)scale(0.176 -0.176)">
       <use xlink:href="#DejaVuSans-54"/>
      </g>
     </g>
    </g>
    <g id="ytick_4">
     <g id="line2d_13">
      <path clip-path="url(#p85b2ab92be)" d="M 70.478 150.540357 
L 448.478 150.540357 
" style="fill:none;stroke:#b0b0b0;stroke-linecap:square;stroke-opacity:0.5;stroke-width:0.8;"/>
     </g>
     <g id="line2d_14">
      <g>
       <use style="stroke:#000000;" x="60.478" xlink:href="#m301afe7d56" y="150.540357"/>
      </g>
     </g>
     <g id="text_11">
      <!-- 8 -->
      <defs>
       <path d="M 31.78125 34.625 
Q 24.75 34.625 20.71875 30.859375 
Q 16.703125 27.09375 16.703125 20.515625 
Q 16.703125 13.921875 20.71875 10.15625 
Q 24.75 6.390625 31.78125 6.390625 
Q 38.8125 6.390625 42.859375 10.171875 
Q 46.921875 13.96875 46.921875 20.515625 
Q 46.921875 27.09375 42.890625 30.859375 
Q 38.875 34.625 31.78125 34.625 
z
M 21.921875 38.8125 
Q 15.578125 40.375 12.03125 44.71875 
Q 8.5 49.078125 8.5 55.328125 
Q 8.5 64.0625 14.71875 69.140625 
Q 20.953125 74.21875 31.78125 74.21875 
Q 42.671875 74.21875 48.875 69.140625 
Q 55.078125 64.0625 55.078125 55.328125 
Q 55.078125 49.078125 51.53125 44.71875 
Q 48 40.375 41.703125 38.8125 
Q 48.828125 37.15625 52.796875 32.3125 
Q 56.78125 27.484375 56.78125 20.515625 
Q 56.78125 9.90625 50.3125 4.234375 
Q 43.84375 -1.421875 31.78125 -1.421875 
Q 19.734375 -1.421875 13.25 4.234375 
Q 6.78125 9.90625 6.78125 20.515625 
Q 6.78125 27.484375 10.78125 32.3125 
Q 14.796875 37.15625 21.921875 38.8125 
z
M 18.3125 54.390625 
Q 18.3125 48.734375 21.84375 45.5625 
Q 25.390625 42.390625 31.78125 42.390625 
Q 38.140625 42.390625 41.71875 45.5625 
Q 45.3125 48.734375 45.3125 54.390625 
Q 45.3125 60.0625 41.71875 63.234375 
Q 38.140625 66.40625 31.78125 66.40625 
Q 25.390625 66.40625 21.84375 63.234375 
Q 18.3125 60.0625 18.3125 54.390625 
z
" id="DejaVuSans-56"/>
      </defs>
      <g transform="translate(40.98 157.226982)scale(0.176 -0.176)">
       <use xlink:href="#DejaVuSans-56"/>
      </g>
     </g>
    </g>
    <g id="ytick_5">
     <g id="line2d_15">
      <path clip-path="url(#p85b2ab92be)" d="M 70.478 106.207755 
L 448.478 106.207755 
" style="fill:none;stroke:#b0b0b0;stroke-linecap:square;stroke-opacity:0.5;stroke-width:0.8;"/>
     </g>
     <g id="line2d_16">
      <g>
       <use style="stroke:#000000;" x="60.478" xlink:href="#m301afe7d56" y="106.207755"/>
      </g>
     </g>
     <g id="text_12">
      <!-- 10 -->
      <defs>
       <path d="M 12.40625 8.296875 
L 28.515625 8.296875 
L 28.515625 63.921875 
L 10.984375 60.40625 
L 10.984375 69.390625 
L 28.421875 72.90625 
L 38.28125 72.90625 
L 38.28125 8.296875 
L 54.390625 8.296875 
L 54.390625 0 
L 12.40625 0 
z
" id="DejaVuSans-49"/>
      </defs>
      <g transform="translate(29.782 112.89438)scale(0.176 -0.176)">
       <use xlink:href="#DejaVuSans-49"/>
       <use x="63.623047" xlink:href="#DejaVuSans-48"/>
      </g>
     </g>
    </g>
    <g id="ytick_6">
     <g id="line2d_17">
      <path clip-path="url(#p85b2ab92be)" d="M 70.478 61.875154 
L 448.478 61.875154 
" style="fill:none;stroke:#b0b0b0;stroke-linecap:square;stroke-opacity:0.5;stroke-width:0.8;"/>
     </g>
     <g id="line2d_18">
      <g>
       <use style="stroke:#000000;" x="60.478" xlink:href="#m301afe7d56" y="61.875154"/>
      </g>
     </g>
     <g id="text_13">
      <!-- 12 -->
      <g transform="translate(29.782 68.561779)scale(0.176 -0.176)">
       <use xlink:href="#DejaVuSans-49"/>
       <use x="63.623047" xlink:href="#DejaVuSans-50"/>
      </g>
     </g>
    </g>
    <g id="text_14">
     <!-- Runtime (s) -->
     <defs>
      <path d="M 44.390625 34.1875 
Q 47.5625 33.109375 50.5625 29.59375 
Q 53.5625 26.078125 56.59375 19.921875 
L 66.609375 0 
L 56 0 
L 46.6875 18.703125 
Q 43.0625 26.03125 39.671875 28.421875 
Q 36.28125 30.8125 30.421875 30.8125 
L 19.671875 30.8125 
L 19.671875 0 
L 9.8125 0 
L 9.8125 72.90625 
L 32.078125 72.90625 
Q 44.578125 72.90625 50.734375 67.671875 
Q 56.890625 62.453125 56.890625 51.90625 
Q 56.890625 45.015625 53.6875 40.46875 
Q 50.484375 35.9375 44.390625 34.1875 
z
M 19.671875 64.796875 
L 19.671875 38.921875 
L 32.078125 38.921875 
Q 39.203125 38.921875 42.84375 42.21875 
Q 46.484375 45.515625 46.484375 51.90625 
Q 46.484375 58.296875 42.84375 61.546875 
Q 39.203125 64.796875 32.078125 64.796875 
z
" id="DejaVuSans-82"/>
      <path d="M 54.890625 33.015625 
L 54.890625 0 
L 45.90625 0 
L 45.90625 32.71875 
Q 45.90625 40.484375 42.875 44.328125 
Q 39.84375 48.1875 33.796875 48.1875 
Q 26.515625 48.1875 22.3125 43.546875 
Q 18.109375 38.921875 18.109375 30.90625 
L 18.109375 0 
L 9.078125 0 
L 9.078125 54.6875 
L 18.109375 54.6875 
L 18.109375 46.1875 
Q 21.34375 51.125 25.703125 53.5625 
Q 30.078125 56 35.796875 56 
Q 45.21875 56 50.046875 50.171875 
Q 54.890625 44.34375 54.890625 33.015625 
z
" id="DejaVuSans-110"/>
      <path d="M 18.3125 70.21875 
L 18.3125 54.6875 
L 36.8125 54.6875 
L 36.8125 47.703125 
L 18.3125 47.703125 
L 18.3125 18.015625 
Q 18.3125 11.328125 20.140625 9.421875 
Q 21.96875 7.515625 27.59375 7.515625 
L 36.8125 7.515625 
L 36.8125 0 
L 27.59375 0 
Q 17.1875 0 13.234375 3.875 
Q 9.28125 7.765625 9.28125 18.015625 
L 9.28125 47.703125 
L 2.6875 47.703125 
L 2.6875 54.6875 
L 9.28125 54.6875 
L 9.28125 70.21875 
z
" id="DejaVuSans-116"/>
      <path d="M 9.421875 54.6875 
L 18.40625 54.6875 
L 18.40625 0 
L 9.421875 0 
z
M 9.421875 75.984375 
L 18.40625 75.984375 
L 18.40625 64.59375 
L 9.421875 64.59375 
z
" id="DejaVuSans-105"/>
      <path d="M 31 75.875 
Q 24.46875 64.65625 21.28125 53.65625 
Q 18.109375 42.671875 18.109375 31.390625 
Q 18.109375 20.125 21.3125 9.0625 
Q 24.515625 -2 31 -13.1875 
L 23.1875 -13.1875 
Q 15.875 -1.703125 12.234375 9.375 
Q 8.59375 20.453125 8.59375 31.390625 
Q 8.59375 42.28125 12.203125 53.3125 
Q 15.828125 64.359375 23.1875 75.875 
z
" id="DejaVuSans-40"/>
      <path d="M 8.015625 75.875 
L 15.828125 75.875 
Q 23.140625 64.359375 26.78125 53.3125 
Q 30.421875 42.28125 30.421875 31.390625 
Q 30.421875 20.453125 26.78125 9.375 
Q 23.140625 -1.703125 15.828125 -13.1875 
L 8.015625 -13.1875 
Q 14.5 -2 17.703125 9.0625 
Q 20.90625 20.125 20.90625 31.390625 
Q 20.90625 42.671875 17.703125 53.65625 
Q 14.5 64.65625 8.015625 75.875 
z
" id="DejaVuSans-41"/>
     </defs>
     <g transform="translate(21.789 216.624)rotate(-90)scale(0.192 -0.192)">
      <use xlink:href="#DejaVuSans-82"/>
      <use x="69.419922" xlink:href="#DejaVuSans-117"/>
      <use x="132.798828" xlink:href="#DejaVuSans-110"/>
      <use x="196.177734" xlink:href="#DejaVuSans-116"/>
      <use x="235.386719" xlink:href="#DejaVuSans-105"/>
      <use x="263.169922" xlink:href="#DejaVuSans-109"/>
      <use x="360.582031" xlink:href="#DejaVuSans-101"/>
      <use x="422.105469" xlink:href="#DejaVuSans-32"/>
      <use x="453.892578" xlink:href="#DejaVuSans-40"/>
      <use x="492.90625" xlink:href="#DejaVuSans-115"/>
      <use x="545.005859" xlink:href="#DejaVuSans-41"/>
     </g>
    </g>
   </g>
   <g id="line2d_19">
    <path clip-path="url(#p85b2ab92be)" d="M 90.204852 219.822636 
L 90.204852 172.849671 
" style="fill:none;stroke:#1f77b4;stroke-linecap:square;stroke-width:2.1;"/>
   </g>
   <g id="line2d_20">
    <path clip-path="url(#p85b2ab92be)" d="M 157.914111 201.33577 
L 157.914111 145.389323 
" style="fill:none;stroke:#1f77b4;stroke-linecap:square;stroke-width:2.1;"/>
   </g>
   <g id="line2d_21">
    <path clip-path="url(#p85b2ab92be)" d="M 225.62337 170.288544 
L 225.62337 95.020229 
" style="fill:none;stroke:#1f77b4;stroke-linecap:square;stroke-width:2.1;"/>
   </g>
   <g id="line2d_22">
    <path clip-path="url(#p85b2ab92be)" d="M 293.33263 168.762258 
L 293.33263 107.284476 
" style="fill:none;stroke:#1f77b4;stroke-linecap:square;stroke-width:2.1;"/>
   </g>
   <g id="line2d_23">
    <path clip-path="url(#p85b2ab92be)" d="M 361.041889 154.620683 
L 361.041889 80.793207 
" style="fill:none;stroke:#1f77b4;stroke-linecap:square;stroke-width:2.1;"/>
   </g>
   <g id="line2d_24">
    <path clip-path="url(#p85b2ab92be)" d="M 428.751148 137.000151 
L 428.751148 54.349471 
" style="fill:none;stroke:#1f77b4;stroke-linecap:square;stroke-width:2.1;"/>
   </g>
   <g id="line2d_25">
    <path clip-path="url(#p85b2ab92be)" d="M 90.204852 190.476058 
L 93.624512 189.540107 
L 97.044171 188.604156 
L 100.463831 187.668206 
L 103.88349 186.732255 
L 107.30315 185.796304 
L 110.722809 184.860353 
L 114.142469 183.924402 
L 117.562129 182.988452 
L 120.981788 182.052501 
L 124.401448 181.11655 
L 127.821107 180.180599 
L 131.240767 179.244648 
L 134.660426 178.308698 
L 138.080086 177.372747 
L 141.499745 176.436796 
L 144.919405 175.500845 
L 148.339065 174.564894 
L 151.758724 173.628944 
L 155.178384 172.692993 
L 158.598043 171.757042 
L 162.017703 170.821091 
L 165.437362 169.88514 
L 168.857022 168.94919 
L 172.276681 168.013239 
L 175.696341 167.077288 
L 179.116 166.141337 
L 182.53566 165.205386 
L 185.95532 164.269435 
L 189.374979 163.333485 
L 192.794639 162.397534 
L 196.214298 161.461583 
L 199.633958 160.525632 
L 203.053617 159.589681 
L 206.473277 158.653731 
L 209.892936 157.71778 
L 213.312596 156.781829 
L 216.732256 155.845878 
L 220.151915 154.909927 
L 223.571575 153.973977 
L 226.991234 153.038026 
L 230.410894 152.102075 
L 233.830553 151.166124 
L 237.250213 150.230173 
L 240.669872 149.294223 
L 244.089532 148.358272 
L 247.509192 147.422321 
L 250.928851 146.48637 
L 254.348511 145.550419 
L 257.76817 144.614469 
L 261.18783 143.678518 
L 264.607489 142.742567 
L 268.027149 141.806616 
L 271.446808 140.870665 
L 274.866468 139.934715 
L 278.286128 138.998764 
L 281.705787 138.062813 
L 285.125447 137.126862 
L 288.545106 136.190911 
L 291.964766 135.25496 
L 295.384425 134.31901 
L 298.804085 133.383059 
L 302.223744 132.447108 
L 305.643404 131.511157 
L 309.063064 130.575206 
L 312.482723 129.639256 
L 315.902383 128.703305 
L 319.322042 127.767354 
L 322.741702 126.831403 
L 326.161361 125.895452 
L 329.581021 124.959502 
L 333.00068 124.023551 
L 336.42034 123.0876 
L 339.84 122.151649 
L 343.259659 121.215698 
L 346.679319 120.279748 
L 350.098978 119.343797 
L 353.518638 118.407846 
L 356.938297 117.471895 
L 360.357957 116.535944 
L 363.777616 115.599994 
L 367.197276 114.664043 
L 370.616935 113.728092 
L 374.036595 112.792141 
L 377.456255 111.85619 
L 380.875914 110.920239 
L 384.295574 109.984289 
L 387.715233 109.048338 
L 391.134893 108.112387 
L 394.554552 107.176436 
L 397.974212 106.240485 
L 401.393871 105.304535 
L 404.813531 104.368584 
L 408.233191 103.432633 
L 411.65285 102.496682 
L 415.07251 101.560731 
L 418.492169 100.624781 
L 421.911829 99.68883 
L 425.331488 98.752879 
L 428.751148 97.816928 
" style="fill:none;stroke:#1f77b4;stroke-linecap:square;stroke-width:1.8;"/>
   </g>
   <g id="line2d_26">
    <path clip-path="url(#p85b2ab92be)" d="M 90.204852 283.445368 
L 90.204852 252.30802 
" style="fill:none;stroke:#ff7f0e;stroke-linecap:square;stroke-width:2.1;"/>
   </g>
   <g id="line2d_27">
    <path clip-path="url(#p85b2ab92be)" d="M 157.914111 277.614714 
L 157.914111 187.343853 
" style="fill:none;stroke:#ff7f0e;stroke-linecap:square;stroke-width:2.1;"/>
   </g>
   <g id="line2d_28">
    <path clip-path="url(#p85b2ab92be)" d="M 225.62337 260.72162 
L 225.62337 233.345786 
" style="fill:none;stroke:#ff7f0e;stroke-linecap:square;stroke-width:2.1;"/>
   </g>
   <g id="line2d_29">
    <path clip-path="url(#p85b2ab92be)" d="M 293.33263 263.562771 
L 293.33263 184.700937 
" style="fill:none;stroke:#ff7f0e;stroke-linecap:square;stroke-width:2.1;"/>
   </g>
   <g id="line2d_30">
    <path clip-path="url(#p85b2ab92be)" d="M 361.041889 260.361254 
L 361.041889 225.873608 
" style="fill:none;stroke:#ff7f0e;stroke-linecap:square;stroke-width:2.1;"/>
   </g>
   <g id="line2d_31">
    <path clip-path="url(#p85b2ab92be)" d="M 428.751148 238.548081 
L 428.751148 108.378241 
" style="fill:none;stroke:#ff7f0e;stroke-linecap:square;stroke-width:2.1;"/>
   </g>
   <g id="line2d_32">
    <path clip-path="url(#p85b2ab92be)" d="M 90.204852 263.916643 
L 93.624512 263.330884 
L 97.044171 262.745125 
L 100.463831 262.159366 
L 103.88349 261.573607 
L 107.30315 260.987848 
L 110.722809 260.402089 
L 114.142469 259.81633 
L 117.562129 259.23057 
L 120.981788 258.644811 
L 124.401448 258.059052 
L 127.821107 257.473293 
L 131.240767 256.887534 
L 134.660426 256.301775 
L 138.080086 255.716016 
L 141.499745 255.130257 
L 144.919405 254.544498 
L 148.339065 253.958739 
L 151.758724 253.372979 
L 155.178384 252.78722 
L 158.598043 252.201461 
L 162.017703 251.615702 
L 165.437362 251.029943 
L 168.857022 250.444184 
L 172.276681 249.858425 
L 175.696341 249.272666 
L 179.116 248.686907 
L 182.53566 248.101148 
L 185.95532 247.515389 
L 189.374979 246.929629 
L 192.794639 246.34387 
L 196.214298 245.758111 
L 199.633958 245.172352 
L 203.053617 244.586593 
L 206.473277 244.000834 
L 209.892936 243.415075 
L 213.312596 242.829316 
L 216.732256 242.243557 
L 220.151915 241.657798 
L 223.571575 241.072038 
L 226.991234 240.486279 
L 230.410894 239.90052 
L 233.830553 239.314761 
L 237.250213 238.729002 
L 240.669872 238.143243 
L 244.089532 237.557484 
L 247.509192 236.971725 
L 250.928851 236.385966 
L 254.348511 235.800207 
L 257.76817 235.214447 
L 261.18783 234.628688 
L 264.607489 234.042929 
L 268.027149 233.45717 
L 271.446808 232.871411 
L 274.866468 232.285652 
L 278.286128 231.699893 
L 281.705787 231.114134 
L 285.125447 230.528375 
L 288.545106 229.942616 
L 291.964766 229.356856 
L 295.384425 228.771097 
L 298.804085 228.185338 
L 302.223744 227.599579 
L 305.643404 227.01382 
L 309.063064 226.428061 
L 312.482723 225.842302 
L 315.902383 225.256543 
L 319.322042 224.670784 
L 322.741702 224.085025 
L 326.161361 223.499265 
L 329.581021 222.913506 
L 333.00068 222.327747 
L 336.42034 221.741988 
L 339.84 221.156229 
L 343.259659 220.57047 
L 346.679319 219.984711 
L 350.098978 219.398952 
L 353.518638 218.813193 
L 356.938297 218.227434 
L 360.357957 217.641674 
L 363.777616 217.055915 
L 367.197276 216.470156 
L 370.616935 215.884397 
L 374.036595 215.298638 
L 377.456255 214.712879 
L 380.875914 214.12712 
L 384.295574 213.541361 
L 387.715233 212.955602 
L 391.134893 212.369843 
L 394.554552 211.784083 
L 397.974212 211.198324 
L 401.393871 210.612565 
L 404.813531 210.026806 
L 408.233191 209.441047 
L 411.65285 208.855288 
L 415.07251 208.269529 
L 418.492169 207.68377 
L 421.911829 207.098011 
L 425.331488 206.512252 
L 428.751148 205.926492 
" style="fill:none;stroke:#ff7f0e;stroke-linecap:square;stroke-width:1.8;"/>
   </g>
   <g id="patch_3">
    <path d="M 60.478 300.96 
L 60.478 20.16 
" style="fill:none;stroke:#000000;stroke-linecap:square;stroke-linejoin:miter;"/>
   </g>
   <g id="patch_4">
    <path d="M 70.478 310.96 
L 448.478 310.96 
" style="fill:none;stroke:#000000;stroke-linecap:square;stroke-linejoin:miter;"/>
   </g>
   <g id="legend_1">
    <g id="patch_5">
     <path d="M 434.627375 398.37375 
L 593.678 398.37375 
L 593.678 377.16 
L 434.627375 377.16 
z
" style="fill:#ffffff;opacity:0.8;stroke:#cccccc;stroke-linejoin:miter;stroke-width:0.8;"/>
    </g>
    <g id="line2d_33">
     <path d="M 439.427375 386.878125 
L 463.427375 386.878125 
" style="fill:none;stroke:#1f77b4;stroke-linecap:square;stroke-width:2;"/>
    </g>
    <g id="line2d_34">
     <defs>
      <path d="M 0 3.5 
C 0.928211 3.5 1.81853 3.131218 2.474874 2.474874 
C 3.131218 1.81853 3.5 0.928211 3.5 0 
C 3.5 -0.928211 3.131218 -1.81853 2.474874 -2.474874 
C 1.81853 -3.131218 0.928211 -3.5 0 -3.5 
C -0.928211 -3.5 -1.81853 -3.131218 -2.474874 -2.474874 
C -3.131218 -1.81853 -3.5 -0.928211 -3.5 0 
C -3.5 0.928211 -3.131218 1.81853 -2.474874 2.474874 
C -1.81853 3.131218 -0.928211 3.5 0 3.5 
z
" id="m09d8ae4761" style="stroke:#1f77b4;"/>
     </defs>
     <g>
      <use style="fill:#1f77b4;stroke:#1f77b4;" x="451.427375" xlink:href="#m09d8ae4761" y="386.878125"/>
     </g>
    </g>
    <g id="text_15">
     <!-- Julia -->
     <defs>
      <path d="M 9.1875 72.90625 
L 27.984375 72.90625 
L 27.984375 7.078125 
Q 27.984375 -6.546875 20.578125 -13.28125 
Q 13.1875 -20.015625 -1.8125 -20.015625 
L -5.609375 -20.015625 
L -5.609375 -5.8125 
L -2.6875 -5.8125 
Q 3.171875 -5.8125 6.171875 -2.53125 
Q 9.1875 0.734375 9.1875 7.078125 
z
" id="DejaVuSans-Bold-74"/>
      <path d="M 7.8125 21.296875 
L 7.8125 54.6875 
L 25.390625 54.6875 
L 25.390625 49.21875 
Q 25.390625 44.78125 25.34375 38.0625 
Q 25.296875 31.34375 25.296875 29.109375 
Q 25.296875 22.515625 25.640625 19.609375 
Q 25.984375 16.703125 26.8125 15.375 
Q 27.875 13.671875 29.609375 12.734375 
Q 31.34375 11.8125 33.59375 11.8125 
Q 39.0625 11.8125 42.1875 16.015625 
Q 45.3125 20.21875 45.3125 27.6875 
L 45.3125 54.6875 
L 62.796875 54.6875 
L 62.796875 0 
L 45.3125 0 
L 45.3125 7.90625 
Q 41.359375 3.125 36.9375 0.84375 
Q 32.515625 -1.421875 27.203125 -1.421875 
Q 17.71875 -1.421875 12.765625 4.390625 
Q 7.8125 10.203125 7.8125 21.296875 
z
" id="DejaVuSans-Bold-117"/>
      <path d="M 8.40625 75.984375 
L 25.875 75.984375 
L 25.875 0 
L 8.40625 0 
z
" id="DejaVuSans-Bold-108"/>
      <path d="M 8.40625 54.6875 
L 25.875 54.6875 
L 25.875 0 
L 8.40625 0 
z
M 8.40625 75.984375 
L 25.875 75.984375 
L 25.875 61.71875 
L 8.40625 61.71875 
z
" id="DejaVuSans-Bold-105"/>
      <path d="M 32.90625 24.609375 
Q 27.4375 24.609375 24.671875 22.75 
Q 21.921875 20.90625 21.921875 17.28125 
Q 21.921875 13.96875 24.140625 12.078125 
Q 26.375 10.203125 30.328125 10.203125 
Q 35.25 10.203125 38.625 13.734375 
Q 42 17.28125 42 22.609375 
L 42 24.609375 
z
M 59.625 31.203125 
L 59.625 0 
L 42 0 
L 42 8.109375 
Q 38.484375 3.125 34.078125 0.84375 
Q 29.6875 -1.421875 23.390625 -1.421875 
Q 14.890625 -1.421875 9.59375 3.53125 
Q 4.296875 8.5 4.296875 16.40625 
Q 4.296875 26.03125 10.90625 30.515625 
Q 17.53125 35.015625 31.6875 35.015625 
L 42 35.015625 
L 42 36.375 
Q 42 40.53125 38.71875 42.453125 
Q 35.453125 44.390625 28.515625 44.390625 
Q 22.90625 44.390625 18.0625 43.265625 
Q 13.234375 42.140625 9.078125 39.890625 
L 9.078125 53.21875 
Q 14.703125 54.59375 20.359375 55.296875 
Q 26.03125 56 31.6875 56 
Q 46.484375 56 53.046875 50.171875 
Q 59.625 44.34375 59.625 31.203125 
z
" id="DejaVuSans-Bold-97"/>
     </defs>
     <g transform="translate(473.027375 391.078125)scale(0.12 -0.12)">
      <use xlink:href="#DejaVuSans-Bold-74"/>
      <use x="37.207031" xlink:href="#DejaVuSans-Bold-117"/>
      <use x="108.398438" xlink:href="#DejaVuSans-Bold-108"/>
      <use x="142.675781" xlink:href="#DejaVuSans-Bold-105"/>
      <use x="176.953125" xlink:href="#DejaVuSans-Bold-97"/>
     </g>
    </g>
    <g id="line2d_35">
     <path d="M 526.359875 386.878125 
L 550.359875 386.878125 
" style="fill:none;stroke:#ff7f0e;stroke-linecap:square;stroke-width:2;"/>
    </g>
    <g id="line2d_36">
     <defs>
      <path d="M 0 3.5 
C 0.928211 3.5 1.81853 3.131218 2.474874 2.474874 
C 3.131218 1.81853 3.5 0.928211 3.5 0 
C 3.5 -0.928211 3.131218 -1.81853 2.474874 -2.474874 
C 1.81853 -3.131218 0.928211 -3.5 0 -3.5 
C -0.928211 -3.5 -1.81853 -3.131218 -2.474874 -2.474874 
C -3.131218 -1.81853 -3.5 -0.928211 -3.5 0 
C -3.5 0.928211 -3.131218 1.81853 -2.474874 2.474874 
C -1.81853 3.131218 -0.928211 3.5 0 3.5 
z
" id="mf6a725ba43" style="stroke:#ff7f0e;"/>
     </defs>
     <g>
      <use style="fill:#ff7f0e;stroke:#ff7f0e;" x="538.359875" xlink:href="#mf6a725ba43" y="386.878125"/>
     </g>
    </g>
    <g id="text_16">
     <!-- C++ -->
     <defs>
      <path d="M 67 4 
Q 61.8125 1.3125 56.203125 -0.046875 
Q 50.59375 -1.421875 44.484375 -1.421875 
Q 26.265625 -1.421875 15.625 8.765625 
Q 4.984375 18.953125 4.984375 36.375 
Q 4.984375 53.859375 15.625 64.03125 
Q 26.265625 74.21875 44.484375 74.21875 
Q 50.59375 74.21875 56.203125 72.84375 
Q 61.8125 71.484375 67 68.796875 
L 67 53.71875 
Q 61.765625 57.28125 56.6875 58.9375 
Q 51.609375 60.59375 46 60.59375 
Q 35.9375 60.59375 30.171875 54.140625 
Q 24.421875 47.703125 24.421875 36.375 
Q 24.421875 25.09375 30.171875 18.640625 
Q 35.9375 12.203125 46 12.203125 
Q 51.609375 12.203125 56.6875 13.859375 
Q 61.765625 15.53125 67 19.09375 
z
" id="DejaVuSans-Bold-67"/>
      <path d="M 47.703125 62.703125 
L 47.703125 37.109375 
L 73.1875 37.109375 
L 73.1875 25.59375 
L 47.703125 25.59375 
L 47.703125 0 
L 36.078125 0 
L 36.078125 25.59375 
L 10.59375 25.59375 
L 10.59375 37.109375 
L 36.078125 37.109375 
L 36.078125 62.703125 
z
" id="DejaVuSans-Bold-43"/>
     </defs>
     <g transform="translate(559.959875 391.078125)scale(0.12 -0.12)">
      <use xlink:href="#DejaVuSans-Bold-67"/>
      <use x="73.388672" xlink:href="#DejaVuSans-Bold-43"/>
      <use x="157.177734" xlink:href="#DejaVuSans-Bold-43"/>
     </g>
    </g>
   </g>
  </g>
  <g id="axes_2">
   <g id="patch_6">
    <path d="M 524.078 300.96 
L 902.078 300.96 
L 902.078 20.16 
L 524.078 20.16 
z
" style="fill:#ffffff;"/>
   </g>
   <g id="PathCollection_3">
    <g clip-path="url(#p98f3b909a8)">
     <use style="fill:#1f77b4;stroke:#1f77b4;stroke-width:0.8;" x="543.804852" xlink:href="#maf89f13a56" y="196.774854"/>
     <use style="fill:#1f77b4;stroke:#1f77b4;stroke-width:0.8;" x="611.514111" xlink:href="#maf89f13a56" y="180.680623"/>
     <use style="fill:#1f77b4;stroke:#1f77b4;stroke-width:0.8;" x="679.22337" xlink:href="#maf89f13a56" y="161.174672"/>
     <use style="fill:#1f77b4;stroke:#1f77b4;stroke-width:0.8;" x="746.93263" xlink:href="#maf89f13a56" y="132.75023"/>
     <use style="fill:#1f77b4;stroke:#1f77b4;stroke-width:0.8;" x="814.641889" xlink:href="#maf89f13a56" y="123.821593"/>
     <use style="fill:#1f77b4;stroke:#1f77b4;stroke-width:0.8;" x="882.351148" xlink:href="#maf89f13a56" y="69.676986"/>
    </g>
   </g>
   <g id="PolyCollection_3">
    <path clip-path="url(#p98f3b909a8)" d="M 543.804852 187.521609 
L 543.804852 223.44211 
L 547.224512 221.884033 
L 550.644171 220.22791 
L 554.063831 218.656967 
L 557.48349 217.152354 
L 560.90315 215.647144 
L 564.322809 214.139152 
L 567.742469 212.588406 
L 571.162129 211.138045 
L 574.581788 209.613867 
L 578.001448 208.036284 
L 581.421107 206.432155 
L 584.840767 204.907767 
L 588.260426 203.438574 
L 591.680086 201.993857 
L 595.099745 200.527176 
L 598.519405 199.11997 
L 601.939065 197.691834 
L 605.358724 196.328949 
L 608.778384 194.970259 
L 612.198043 193.56544 
L 615.617703 192.188474 
L 619.037362 190.730893 
L 622.457022 189.393001 
L 625.876681 188.055265 
L 629.296341 186.71745 
L 632.716 185.379636 
L 636.13566 184.024223 
L 639.55532 182.627015 
L 642.974979 181.201895 
L 646.394639 179.776774 
L 649.814298 178.443291 
L 653.233958 177.2093 
L 656.653617 175.849582 
L 660.073277 174.486046 
L 663.492936 173.310084 
L 666.912596 171.973526 
L 670.332256 170.579223 
L 673.751915 169.253194 
L 677.171575 167.997077 
L 680.591234 166.662021 
L 684.010894 165.324395 
L 687.430553 164.502154 
L 690.850213 163.766673 
L 694.269872 162.553922 
L 697.689532 161.386225 
L 701.109192 159.915047 
L 704.528851 158.456985 
L 707.948511 157.501704 
L 711.36817 156.447589 
L 714.78783 155.439617 
L 718.207489 154.331886 
L 721.627149 153.364849 
L 725.046808 152.231202 
L 728.466468 151.28358 
L 731.886128 150.378826 
L 735.305787 149.400486 
L 738.725447 148.443562 
L 742.145106 147.350546 
L 745.564766 146.320575 
L 748.984425 145.432803 
L 752.404085 144.44467 
L 755.823744 143.448069 
L 759.243404 142.451151 
L 762.663064 141.448297 
L 766.082723 140.366069 
L 769.502383 139.451312 
L 772.922042 138.485366 
L 776.341702 137.644531 
L 779.761361 136.803058 
L 783.181021 135.976309 
L 786.60068 135.066323 
L 790.02034 134.121222 
L 793.44 133.261945 
L 796.859659 132.573294 
L 800.279319 131.742284 
L 803.698978 130.911274 
L 807.118638 130.074828 
L 810.538297 129.234772 
L 813.957957 128.394717 
L 817.377616 127.554661 
L 820.797276 126.751594 
L 824.216935 125.927833 
L 827.636595 125.034495 
L 831.056255 124.161388 
L 834.475914 123.18579 
L 837.895574 122.210192 
L 841.315233 121.242018 
L 844.734893 120.475805 
L 848.154552 119.709593 
L 851.574212 118.94338 
L 854.993871 118.177168 
L 858.413531 117.410955 
L 861.833191 116.630367 
L 865.25285 115.791973 
L 868.67251 114.953202 
L 872.092169 114.111728 
L 875.511829 113.270255 
L 878.931488 112.428782 
L 882.351148 111.552396 
L 882.351148 59.095618 
L 882.351148 59.095618 
L 878.931488 60.661109 
L 875.511829 62.238304 
L 872.092169 63.815499 
L 868.67251 65.338044 
L 865.25285 66.834755 
L 861.833191 68.380816 
L 858.413531 69.926877 
L 854.993871 71.472938 
L 851.574212 73.016329 
L 848.154552 74.482027 
L 844.734893 75.951025 
L 841.315233 77.424201 
L 837.895574 79.05861 
L 834.475914 80.520345 
L 831.056255 82.276429 
L 827.636595 83.855158 
L 824.216935 85.355348 
L 820.797276 86.951796 
L 817.377616 88.496225 
L 813.957957 90.047153 
L 810.538297 91.598081 
L 807.118638 93.14913 
L 803.698978 94.73296 
L 800.279319 96.313348 
L 796.859659 97.791354 
L 793.44 99.334018 
L 790.02034 100.694668 
L 786.60068 102.13992 
L 783.181021 103.598664 
L 779.761361 105.094114 
L 776.341702 106.632446 
L 772.922042 108.055913 
L 769.502383 109.399099 
L 766.082723 110.815918 
L 762.663064 112.248051 
L 759.243404 113.681764 
L 755.823744 115.173245 
L 752.404085 116.597244 
L 748.984425 118.211767 
L 745.564766 119.443644 
L 742.145106 120.838724 
L 738.725447 122.194362 
L 735.305787 123.499875 
L 731.886128 124.805388 
L 728.466468 126.114713 
L 725.046808 127.408028 
L 721.627149 128.754886 
L 718.207489 130.174132 
L 714.78783 131.637905 
L 711.36817 133.045255 
L 707.948511 134.226465 
L 704.528851 135.878197 
L 701.109192 137.262299 
L 697.689532 138.468098 
L 694.269872 139.614483 
L 690.850213 140.621342 
L 687.430553 141.80887 
L 684.010894 143.070236 
L 680.591234 144.194759 
L 677.171575 145.698265 
L 673.751915 146.905909 
L 670.332256 148.176627 
L 666.912596 149.310503 
L 663.492936 150.646979 
L 660.073277 152.136655 
L 656.653617 153.428145 
L 653.233958 154.587153 
L 649.814298 155.976451 
L 646.394639 157.227777 
L 642.974979 158.205056 
L 639.55532 159.508473 
L 636.13566 160.803814 
L 632.716 162.04826 
L 629.296341 162.993954 
L 625.876681 163.82102 
L 622.457022 164.955156 
L 619.037362 165.896066 
L 615.617703 166.814913 
L 612.198043 167.641951 
L 608.778384 168.666218 
L 605.358724 169.804752 
L 601.939065 170.858675 
L 598.519405 171.86151 
L 595.099745 172.867614 
L 591.680086 173.873304 
L 588.260426 174.858112 
L 584.840767 175.504434 
L 581.421107 176.585297 
L 578.001448 177.629252 
L 574.581788 178.690346 
L 571.162129 179.830669 
L 567.742469 180.570399 
L 564.322809 181.598201 
L 560.90315 182.472848 
L 557.48349 183.25133 
L 554.063831 184.092581 
L 550.644171 185.226773 
L 547.224512 186.367254 
L 543.804852 187.521609 
z
" style="fill:#1f77b4;fill-opacity:0.15;"/>
   </g>
   <g id="PathCollection_4">
    <g clip-path="url(#p98f3b909a8)">
     <use style="fill:#ff7f0e;stroke:#ff7f0e;stroke-width:0.8;" x="543.804852" xlink:href="#me8bda74d3d" y="265.795896"/>
     <use style="fill:#ff7f0e;stroke:#ff7f0e;stroke-width:0.8;" x="611.514111" xlink:href="#me8bda74d3d" y="227.133024"/>
     <use style="fill:#ff7f0e;stroke:#ff7f0e;stroke-width:0.8;" x="679.22337" xlink:href="#me8bda74d3d" y="263.628613"/>
     <use style="fill:#ff7f0e;stroke:#ff7f0e;stroke-width:0.8;" x="746.93263" xlink:href="#me8bda74d3d" y="216.714491"/>
     <use style="fill:#ff7f0e;stroke:#ff7f0e;stroke-width:0.8;" x="814.641889" xlink:href="#me8bda74d3d" y="212.128703"/>
     <use style="fill:#ff7f0e;stroke:#ff7f0e;stroke-width:0.8;" x="882.351148" xlink:href="#me8bda74d3d" y="224.128679"/>
    </g>
   </g>
   <g id="PolyCollection_4">
    <path clip-path="url(#p98f3b909a8)" d="M 543.804852 210.717516 
L 543.804852 284.572185 
L 547.224512 283.669374 
L 550.644171 282.766564 
L 554.063831 281.863754 
L 557.48349 280.983064 
L 560.90315 280.250606 
L 564.322809 279.378547 
L 567.742469 278.651847 
L 571.162129 277.779876 
L 574.581788 277.07358 
L 578.001448 276.180697 
L 581.421107 275.3804 
L 584.840767 274.570044 
L 588.260426 273.773059 
L 591.680086 272.991301 
L 595.099745 272.215927 
L 598.519405 271.38028 
L 601.939065 270.575269 
L 605.358724 269.844321 
L 608.778384 269.124755 
L 612.198043 268.384089 
L 615.617703 267.576022 
L 619.037362 266.723212 
L 622.457022 265.961577 
L 625.876681 265.316248 
L 629.296341 264.522385 
L 632.716 263.921495 
L 636.13566 263.319488 
L 639.55532 262.718542 
L 642.974979 262.080128 
L 646.394639 261.28085 
L 649.814298 260.627396 
L 653.233958 260.004072 
L 656.653617 259.3199 
L 660.073277 258.631589 
L 663.492936 258.002152 
L 666.912596 257.435403 
L 670.332256 256.857511 
L 673.751915 256.260423 
L 677.171575 255.639944 
L 680.591234 255.013127 
L 684.010894 254.255457 
L 687.430553 253.697912 
L 690.850213 253.107256 
L 694.269872 252.51927 
L 697.689532 251.897884 
L 701.109192 251.343839 
L 704.528851 250.851269 
L 707.948511 250.29383 
L 711.36817 249.858975 
L 714.78783 249.373597 
L 718.207489 248.845167 
L 721.627149 248.264196 
L 725.046808 247.700826 
L 728.466468 247.128494 
L 731.886128 246.542008 
L 735.305787 246.103501 
L 738.725447 245.689428 
L 742.145106 245.165779 
L 745.564766 244.530527 
L 748.984425 243.930857 
L 752.404085 243.331186 
L 755.823744 242.840972 
L 759.243404 242.25386 
L 762.663064 241.95049 
L 766.082723 241.515768 
L 769.502383 240.994912 
L 772.922042 240.469109 
L 776.341702 239.942124 
L 779.761361 239.413953 
L 783.181021 238.983987 
L 786.60068 238.64111 
L 790.02034 238.284392 
L 793.44 237.960352 
L 796.859659 237.629686 
L 800.279319 237.200984 
L 803.698978 236.840185 
L 807.118638 236.510493 
L 810.538297 235.923631 
L 813.957957 235.470173 
L 817.377616 235.379411 
L 820.797276 235.077695 
L 824.216935 234.700292 
L 827.636595 234.389493 
L 831.056255 233.976072 
L 834.475914 233.921902 
L 837.895574 233.696861 
L 841.315233 233.689171 
L 844.734893 233.279116 
L 848.154552 233.040314 
L 851.574212 233.061346 
L 854.993871 232.882532 
L 858.413531 232.481056 
L 861.833191 232.188613 
L 865.25285 231.830242 
L 868.67251 231.545959 
L 872.092169 231.336583 
L 875.511829 231.225409 
L 878.931488 231.304759 
L 882.351148 231.288859 
L 882.351148 188.97114 
L 882.351148 188.97114 
L 878.931488 189.878983 
L 875.511829 190.757259 
L 872.092169 191.449188 
L 868.67251 192.141116 
L 865.25285 192.933623 
L 861.833191 193.613782 
L 858.413531 194.293941 
L 854.993871 195.031867 
L 851.574212 195.915824 
L 848.154552 196.813262 
L 844.734893 197.808014 
L 841.315233 198.796373 
L 837.895574 199.676825 
L 834.475914 200.380068 
L 831.056255 200.711174 
L 827.636595 201.619211 
L 824.216935 202.475984 
L 820.797276 202.968515 
L 817.377616 203.563825 
L 813.957957 204.015782 
L 810.538297 204.795595 
L 807.118638 205.557798 
L 803.698978 206.158726 
L 800.279319 206.759654 
L 796.859659 207.520172 
L 793.44 208.203078 
L 790.02034 208.61688 
L 786.60068 209.145118 
L 783.181021 209.737839 
L 779.761361 209.966954 
L 776.341702 210.560618 
L 772.922042 210.532726 
L 769.502383 210.590833 
L 766.082723 210.878056 
L 762.663064 210.998632 
L 759.243404 211.340237 
L 755.823744 211.629615 
L 752.404085 211.913195 
L 748.984425 212.014756 
L 745.564766 212.110689 
L 742.145106 212.029659 
L 738.725447 211.89733 
L 735.305787 212.006953 
L 731.886128 212.211712 
L 728.466468 212.682847 
L 725.046808 212.701924 
L 721.627149 212.925712 
L 718.207489 213.046108 
L 714.78783 213.170611 
L 711.36817 212.926642 
L 707.948511 212.683024 
L 704.528851 212.67766 
L 701.109192 212.673652 
L 697.689532 212.664341 
L 694.269872 212.479669 
L 690.850213 212.197455 
L 687.430553 212.060297 
L 684.010894 212.130984 
L 680.591234 212.220577 
L 677.171575 212.631717 
L 673.751915 212.634814 
L 670.332256 212.632641 
L 666.912596 212.542164 
L 663.492936 212.615528 
L 660.073277 212.6128 
L 656.653617 212.614194 
L 653.233958 212.613238 
L 649.814298 212.605555 
L 646.394639 212.597872 
L 642.974979 212.590189 
L 639.55532 212.582506 
L 636.13566 212.574824 
L 632.716 212.567141 
L 629.296341 212.562244 
L 625.876681 212.561668 
L 622.457022 212.433827 
L 619.037362 212.231065 
L 615.617703 212.216971 
L 612.198043 212.351741 
L 608.778384 212.352947 
L 605.358724 212.263584 
L 601.939065 212.17422 
L 598.519405 212.084856 
L 595.099745 211.995493 
L 591.680086 211.906129 
L 588.260426 211.816766 
L 584.840767 211.727632 
L 581.421107 211.646153 
L 578.001448 211.564674 
L 574.581788 211.483196 
L 571.162129 211.401717 
L 567.742469 211.320238 
L 564.322809 211.238759 
L 560.90315 211.081681 
L 557.48349 210.955889 
L 554.063831 210.984878 
L 550.644171 210.895758 
L 547.224512 210.806637 
L 543.804852 210.717516 
z
" style="fill:#ff7f0e;fill-opacity:0.15;"/>
   </g>
   <g id="matplotlib.axis_3">
    <g id="xtick_7">
     <g id="line2d_37">
      <g>
       <use style="stroke:#000000;" x="543.804852" xlink:href="#madf5f0f40b" y="310.96"/>
      </g>
     </g>
     <g id="text_17">
      <!-- 5000 -->
      <g transform="translate(521.408852 332.63325)scale(0.176 -0.176)">
       <use xlink:href="#DejaVuSans-53"/>
       <use x="63.623047" xlink:href="#DejaVuSans-48"/>
       <use x="127.246094" xlink:href="#DejaVuSans-48"/>
       <use x="190.869141" xlink:href="#DejaVuSans-48"/>
      </g>
     </g>
    </g>
    <g id="xtick_8">
     <g id="line2d_38">
      <g>
       <use style="stroke:#000000;" x="611.514111" xlink:href="#madf5f0f40b" y="310.96"/>
      </g>
     </g>
     <g id="text_18">
      <!-- 6000 -->
      <g transform="translate(589.118111 332.63325)scale(0.176 -0.176)">
       <use xlink:href="#DejaVuSans-54"/>
       <use x="63.623047" xlink:href="#DejaVuSans-48"/>
       <use x="127.246094" xlink:href="#DejaVuSans-48"/>
       <use x="190.869141" xlink:href="#DejaVuSans-48"/>
      </g>
     </g>
    </g>
    <g id="xtick_9">
     <g id="line2d_39">
      <g>
       <use style="stroke:#000000;" x="679.22337" xlink:href="#madf5f0f40b" y="310.96"/>
      </g>
     </g>
     <g id="text_19">
      <!-- 7000 -->
      <defs>
       <path d="M 8.203125 72.90625 
L 55.078125 72.90625 
L 55.078125 68.703125 
L 28.609375 0 
L 18.3125 0 
L 43.21875 64.59375 
L 8.203125 64.59375 
z
" id="DejaVuSans-55"/>
      </defs>
      <g transform="translate(656.82737 332.63325)scale(0.176 -0.176)">
       <use xlink:href="#DejaVuSans-55"/>
       <use x="63.623047" xlink:href="#DejaVuSans-48"/>
       <use x="127.246094" xlink:href="#DejaVuSans-48"/>
       <use x="190.869141" xlink:href="#DejaVuSans-48"/>
      </g>
     </g>
    </g>
    <g id="xtick_10">
     <g id="line2d_40">
      <g>
       <use style="stroke:#000000;" x="746.93263" xlink:href="#madf5f0f40b" y="310.96"/>
      </g>
     </g>
     <g id="text_20">
      <!-- 8000 -->
      <g transform="translate(724.53663 332.63325)scale(0.176 -0.176)">
       <use xlink:href="#DejaVuSans-56"/>
       <use x="63.623047" xlink:href="#DejaVuSans-48"/>
       <use x="127.246094" xlink:href="#DejaVuSans-48"/>
       <use x="190.869141" xlink:href="#DejaVuSans-48"/>
      </g>
     </g>
    </g>
    <g id="xtick_11">
     <g id="line2d_41">
      <g>
       <use style="stroke:#000000;" x="814.641889" xlink:href="#madf5f0f40b" y="310.96"/>
      </g>
     </g>
     <g id="text_21">
      <!-- 9000 -->
      <defs>
       <path d="M 10.984375 1.515625 
L 10.984375 10.5 
Q 14.703125 8.734375 18.5 7.8125 
Q 22.3125 6.890625 25.984375 6.890625 
Q 35.75 6.890625 40.890625 13.453125 
Q 46.046875 20.015625 46.78125 33.40625 
Q 43.953125 29.203125 39.59375 26.953125 
Q 35.25 24.703125 29.984375 24.703125 
Q 19.046875 24.703125 12.671875 31.3125 
Q 6.296875 37.9375 6.296875 49.421875 
Q 6.296875 60.640625 12.9375 67.421875 
Q 19.578125 74.21875 30.609375 74.21875 
Q 43.265625 74.21875 49.921875 64.515625 
Q 56.59375 54.828125 56.59375 36.375 
Q 56.59375 19.140625 48.40625 8.859375 
Q 40.234375 -1.421875 26.421875 -1.421875 
Q 22.703125 -1.421875 18.890625 -0.6875 
Q 15.09375 0.046875 10.984375 1.515625 
z
M 30.609375 32.421875 
Q 37.25 32.421875 41.125 36.953125 
Q 45.015625 41.5 45.015625 49.421875 
Q 45.015625 57.28125 41.125 61.84375 
Q 37.25 66.40625 30.609375 66.40625 
Q 23.96875 66.40625 20.09375 61.84375 
Q 16.21875 57.28125 16.21875 49.421875 
Q 16.21875 41.5 20.09375 36.953125 
Q 23.96875 32.421875 30.609375 32.421875 
z
" id="DejaVuSans-57"/>
      </defs>
      <g transform="translate(792.245889 332.63325)scale(0.176 -0.176)">
       <use xlink:href="#DejaVuSans-57"/>
       <use x="63.623047" xlink:href="#DejaVuSans-48"/>
       <use x="127.246094" xlink:href="#DejaVuSans-48"/>
       <use x="190.869141" xlink:href="#DejaVuSans-48"/>
      </g>
     </g>
    </g>
    <g id="xtick_12">
     <g id="line2d_42">
      <g>
       <use style="stroke:#000000;" x="882.351148" xlink:href="#madf5f0f40b" y="310.96"/>
      </g>
     </g>
     <g id="text_22">
      <!-- 10000 -->
      <g transform="translate(854.356148 332.63325)scale(0.176 -0.176)">
       <use xlink:href="#DejaVuSans-49"/>
       <use x="63.623047" xlink:href="#DejaVuSans-48"/>
       <use x="127.246094" xlink:href="#DejaVuSans-48"/>
       <use x="190.869141" xlink:href="#DejaVuSans-48"/>
       <use x="254.492188" xlink:href="#DejaVuSans-48"/>
      </g>
     </g>
    </g>
    <g id="text_23">
     <!-- Number of features -->
     <g transform="translate(619.289 354.8825)scale(0.192 -0.192)">
      <use xlink:href="#DejaVuSans-78"/>
      <use x="74.804688" xlink:href="#DejaVuSans-117"/>
      <use x="138.183594" xlink:href="#DejaVuSans-109"/>
      <use x="235.595703" xlink:href="#DejaVuSans-98"/>
      <use x="299.072266" xlink:href="#DejaVuSans-101"/>
      <use x="360.595703" xlink:href="#DejaVuSans-114"/>
      <use x="401.708984" xlink:href="#DejaVuSans-32"/>
      <use x="433.496094" xlink:href="#DejaVuSans-111"/>
      <use x="494.677734" xlink:href="#DejaVuSans-102"/>
      <use x="529.882812" xlink:href="#DejaVuSans-32"/>
      <use x="561.669922" xlink:href="#DejaVuSans-102"/>
      <use x="596.875" xlink:href="#DejaVuSans-101"/>
      <use x="658.398438" xlink:href="#DejaVuSans-97"/>
      <use x="719.677734" xlink:href="#DejaVuSans-116"/>
      <use x="758.886719" xlink:href="#DejaVuSans-117"/>
      <use x="822.265625" xlink:href="#DejaVuSans-114"/>
      <use x="863.347656" xlink:href="#DejaVuSans-101"/>
      <use x="924.871094" xlink:href="#DejaVuSans-115"/>
     </g>
    </g>
   </g>
   <g id="matplotlib.axis_4">
    <g id="ytick_7">
     <g id="line2d_43">
      <path clip-path="url(#p98f3b909a8)" d="M 524.078 283.538163 
L 902.078 283.538163 
" style="fill:none;stroke:#b0b0b0;stroke-linecap:square;stroke-opacity:0.5;stroke-width:0.8;"/>
     </g>
     <g id="line2d_44">
      <g>
       <use style="stroke:#000000;" x="514.078" xlink:href="#m301afe7d56" y="283.538163"/>
      </g>
     </g>
    </g>
    <g id="ytick_8">
     <g id="line2d_45">
      <path clip-path="url(#p98f3b909a8)" d="M 524.078 239.205561 
L 902.078 239.205561 
" style="fill:none;stroke:#b0b0b0;stroke-linecap:square;stroke-opacity:0.5;stroke-width:0.8;"/>
     </g>
     <g id="line2d_46">
      <g>
       <use style="stroke:#000000;" x="514.078" xlink:href="#m301afe7d56" y="239.205561"/>
      </g>
     </g>
    </g>
    <g id="ytick_9">
     <g id="line2d_47">
      <path clip-path="url(#p98f3b909a8)" d="M 524.078 194.872959 
L 902.078 194.872959 
" style="fill:none;stroke:#b0b0b0;stroke-linecap:square;stroke-opacity:0.5;stroke-width:0.8;"/>
     </g>
     <g id="line2d_48">
      <g>
       <use style="stroke:#000000;" x="514.078" xlink:href="#m301afe7d56" y="194.872959"/>
      </g>
     </g>
    </g>
    <g id="ytick_10">
     <g id="line2d_49">
      <path clip-path="url(#p98f3b909a8)" d="M 524.078 150.540357 
L 902.078 150.540357 
" style="fill:none;stroke:#b0b0b0;stroke-linecap:square;stroke-opacity:0.5;stroke-width:0.8;"/>
     </g>
     <g id="line2d_50">
      <g>
       <use style="stroke:#000000;" x="514.078" xlink:href="#m301afe7d56" y="150.540357"/>
      </g>
     </g>
    </g>
    <g id="ytick_11">
     <g id="line2d_51">
      <path clip-path="url(#p98f3b909a8)" d="M 524.078 106.207755 
L 902.078 106.207755 
" style="fill:none;stroke:#b0b0b0;stroke-linecap:square;stroke-opacity:0.5;stroke-width:0.8;"/>
     </g>
     <g id="line2d_52">
      <g>
       <use style="stroke:#000000;" x="514.078" xlink:href="#m301afe7d56" y="106.207755"/>
      </g>
     </g>
    </g>
    <g id="ytick_12">
     <g id="line2d_53">
      <path clip-path="url(#p98f3b909a8)" d="M 524.078 61.875154 
L 902.078 61.875154 
" style="fill:none;stroke:#b0b0b0;stroke-linecap:square;stroke-opacity:0.5;stroke-width:0.8;"/>
     </g>
     <g id="line2d_54">
      <g>
       <use style="stroke:#000000;" x="514.078" xlink:href="#m301afe7d56" y="61.875154"/>
      </g>
     </g>
    </g>
   </g>
   <g id="line2d_55">
    <path clip-path="url(#p98f3b909a8)" d="M 543.804852 216.92585 
L 543.804852 179.144808 
" style="fill:none;stroke:#1f77b4;stroke-linecap:square;stroke-width:2.1;"/>
   </g>
   <g id="line2d_56">
    <path clip-path="url(#p98f3b909a8)" d="M 611.514111 200.510416 
L 611.514111 159.657136 
" style="fill:none;stroke:#1f77b4;stroke-linecap:square;stroke-width:2.1;"/>
   </g>
   <g id="line2d_57">
    <path clip-path="url(#p98f3b909a8)" d="M 679.22337 185.485923 
L 679.22337 138.354303 
" style="fill:none;stroke:#1f77b4;stroke-linecap:square;stroke-width:2.1;"/>
   </g>
   <g id="line2d_58">
    <path clip-path="url(#p98f3b909a8)" d="M 746.93263 162.486754 
L 746.93263 101.371924 
" style="fill:none;stroke:#1f77b4;stroke-linecap:square;stroke-width:2.1;"/>
   </g>
   <g id="line2d_59">
    <path clip-path="url(#p98f3b909a8)" d="M 814.641889 148.786906 
L 814.641889 102.23026 
" style="fill:none;stroke:#1f77b4;stroke-linecap:square;stroke-width:2.1;"/>
   </g>
   <g id="line2d_60">
    <path clip-path="url(#p98f3b909a8)" d="M 882.351148 105.583873 
L 882.351148 32.923636 
" style="fill:none;stroke:#1f77b4;stroke-linecap:square;stroke-width:2.1;"/>
   </g>
   <g id="line2d_61">
    <path clip-path="url(#p98f3b909a8)" d="M 543.804852 203.752984 
L 547.224512 202.548813 
L 550.644171 201.344641 
L 554.063831 200.14047 
L 557.48349 198.936298 
L 560.90315 197.732126 
L 564.322809 196.527955 
L 567.742469 195.323783 
L 571.162129 194.119612 
L 574.581788 192.91544 
L 578.001448 191.711269 
L 581.421107 190.507097 
L 584.840767 189.302926 
L 588.260426 188.098754 
L 591.680086 186.894583 
L 595.099745 185.690411 
L 598.519405 184.48624 
L 601.939065 183.282068 
L 605.358724 182.077897 
L 608.778384 180.873725 
L 612.198043 179.669553 
L 615.617703 178.465382 
L 619.037362 177.26121 
L 622.457022 176.057039 
L 625.876681 174.852867 
L 629.296341 173.648696 
L 632.716 172.444524 
L 636.13566 171.240353 
L 639.55532 170.036181 
L 642.974979 168.83201 
L 646.394639 167.627838 
L 649.814298 166.423667 
L 653.233958 165.219495 
L 656.653617 164.015323 
L 660.073277 162.811152 
L 663.492936 161.60698 
L 666.912596 160.402809 
L 670.332256 159.198637 
L 673.751915 157.994466 
L 677.171575 156.790294 
L 680.591234 155.586123 
L 684.010894 154.381951 
L 687.430553 153.17778 
L 690.850213 151.973608 
L 694.269872 150.769437 
L 697.689532 149.565265 
L 701.109192 148.361094 
L 704.528851 147.156922 
L 707.948511 145.95275 
L 711.36817 144.748579 
L 714.78783 143.544407 
L 718.207489 142.340236 
L 721.627149 141.136064 
L 725.046808 139.931893 
L 728.466468 138.727721 
L 731.886128 137.52355 
L 735.305787 136.319378 
L 738.725447 135.115207 
L 742.145106 133.911035 
L 745.564766 132.706864 
L 748.984425 131.502692 
L 752.404085 130.29852 
L 755.823744 129.094349 
L 759.243404 127.890177 
L 762.663064 126.686006 
L 766.082723 125.481834 
L 769.502383 124.277663 
L 772.922042 123.073491 
L 776.341702 121.86932 
L 779.761361 120.665148 
L 783.181021 119.460977 
L 786.60068 118.256805 
L 790.02034 117.052634 
L 793.44 115.848462 
L 796.859659 114.644291 
L 800.279319 113.440119 
L 803.698978 112.235947 
L 807.118638 111.031776 
L 810.538297 109.827604 
L 813.957957 108.623433 
L 817.377616 107.419261 
L 820.797276 106.21509 
L 824.216935 105.010918 
L 827.636595 103.806747 
L 831.056255 102.602575 
L 834.475914 101.398404 
L 837.895574 100.194232 
L 841.315233 98.990061 
L 844.734893 97.785889 
L 848.154552 96.581717 
L 851.574212 95.377546 
L 854.993871 94.173374 
L 858.413531 92.969203 
L 861.833191 91.765031 
L 865.25285 90.56086 
L 868.67251 89.356688 
L 872.092169 88.152517 
L 875.511829 86.948345 
L 878.931488 85.744174 
L 882.351148 84.540002 
" style="fill:none;stroke:#1f77b4;stroke-linecap:square;stroke-width:1.8;"/>
   </g>
   <g id="line2d_62">
    <path clip-path="url(#p98f3b909a8)" d="M 543.804852 281.677367 
L 543.804852 248.833627 
" style="fill:none;stroke:#ff7f0e;stroke-linecap:square;stroke-width:2.1;"/>
   </g>
   <g id="line2d_63">
    <path clip-path="url(#p98f3b909a8)" d="M 611.514111 279.54228 
L 611.514111 134.048684 
" style="fill:none;stroke:#ff7f0e;stroke-linecap:square;stroke-width:2.1;"/>
   </g>
   <g id="line2d_64">
    <path clip-path="url(#p98f3b909a8)" d="M 679.22337 273.990065 
L 679.22337 252.814839 
" style="fill:none;stroke:#ff7f0e;stroke-linecap:square;stroke-width:2.1;"/>
   </g>
   <g id="line2d_65">
    <path clip-path="url(#p98f3b909a8)" d="M 746.93263 251.534048 
L 746.93263 179.516807 
" style="fill:none;stroke:#ff7f0e;stroke-linecap:square;stroke-width:2.1;"/>
   </g>
   <g id="line2d_66">
    <path clip-path="url(#p98f3b909a8)" d="M 814.641889 236.6109 
L 814.641889 172.508808 
" style="fill:none;stroke:#ff7f0e;stroke-linecap:square;stroke-width:2.1;"/>
   </g>
   <g id="line2d_67">
    <path clip-path="url(#p98f3b909a8)" d="M 882.351148 238.14033 
L 882.351148 212.454697 
" style="fill:none;stroke:#ff7f0e;stroke-linecap:square;stroke-width:2.1;"/>
   </g>
   <g id="line2d_68">
    <path clip-path="url(#p98f3b909a8)" d="M 543.804852 256.368937 
L 547.224512 255.935657 
L 550.644171 255.502377 
L 554.063831 255.069097 
L 557.48349 254.635817 
L 560.90315 254.202536 
L 564.322809 253.769256 
L 567.742469 253.335976 
L 571.162129 252.902696 
L 574.581788 252.469416 
L 578.001448 252.036135 
L 581.421107 251.602855 
L 584.840767 251.169575 
L 588.260426 250.736295 
L 591.680086 250.303015 
L 595.099745 249.869734 
L 598.519405 249.436454 
L 601.939065 249.003174 
L 605.358724 248.569894 
L 608.778384 248.136614 
L 612.198043 247.703334 
L 615.617703 247.270053 
L 619.037362 246.836773 
L 622.457022 246.403493 
L 625.876681 245.970213 
L 629.296341 245.536933 
L 632.716 245.103652 
L 636.13566 244.670372 
L 639.55532 244.237092 
L 642.974979 243.803812 
L 646.394639 243.370532 
L 649.814298 242.937251 
L 653.233958 242.503971 
L 656.653617 242.070691 
L 660.073277 241.637411 
L 663.492936 241.204131 
L 666.912596 240.77085 
L 670.332256 240.33757 
L 673.751915 239.90429 
L 677.171575 239.47101 
L 680.591234 239.03773 
L 684.010894 238.60445 
L 687.430553 238.171169 
L 690.850213 237.737889 
L 694.269872 237.304609 
L 697.689532 236.871329 
L 701.109192 236.438049 
L 704.528851 236.004768 
L 707.948511 235.571488 
L 711.36817 235.138208 
L 714.78783 234.704928 
L 718.207489 234.271648 
L 721.627149 233.838367 
L 725.046808 233.405087 
L 728.466468 232.971807 
L 731.886128 232.538527 
L 735.305787 232.105247 
L 738.725447 231.671966 
L 742.145106 231.238686 
L 745.564766 230.805406 
L 748.984425 230.372126 
L 752.404085 229.938846 
L 755.823744 229.505565 
L 759.243404 229.072285 
L 762.663064 228.639005 
L 766.082723 228.205725 
L 769.502383 227.772445 
L 772.922042 227.339165 
L 776.341702 226.905884 
L 779.761361 226.472604 
L 783.181021 226.039324 
L 786.60068 225.606044 
L 790.02034 225.172764 
L 793.44 224.739483 
L 796.859659 224.306203 
L 800.279319 223.872923 
L 803.698978 223.439643 
L 807.118638 223.006363 
L 810.538297 222.573082 
L 813.957957 222.139802 
L 817.377616 221.706522 
L 820.797276 221.273242 
L 824.216935 220.839962 
L 827.636595 220.406681 
L 831.056255 219.973401 
L 834.475914 219.540121 
L 837.895574 219.106841 
L 841.315233 218.673561 
L 844.734893 218.240281 
L 848.154552 217.807 
L 851.574212 217.37372 
L 854.993871 216.94044 
L 858.413531 216.50716 
L 861.833191 216.07388 
L 865.25285 215.640599 
L 868.67251 215.207319 
L 872.092169 214.774039 
L 875.511829 214.340759 
L 878.931488 213.907479 
L 882.351148 213.474198 
" style="fill:none;stroke:#ff7f0e;stroke-linecap:square;stroke-width:1.8;"/>
   </g>
   <g id="patch_7">
    <path d="M 514.078 300.96 
L 514.078 20.16 
" style="fill:none;stroke:#000000;stroke-linecap:square;stroke-linejoin:miter;"/>
   </g>
   <g id="patch_8">
    <path d="M 524.078 310.96 
L 902.078 310.96 
" style="fill:none;stroke:#000000;stroke-linecap:square;stroke-linejoin:miter;"/>
   </g>
  </g>
  <g id="text_24">
   <!-- MagP64 -->
   <defs>
    <path d="M 9.8125 72.90625 
L 24.515625 72.90625 
L 43.109375 23.296875 
L 61.8125 72.90625 
L 76.515625 72.90625 
L 76.515625 0 
L 66.890625 0 
L 66.890625 64.015625 
L 48.09375 14.015625 
L 38.1875 14.015625 
L 19.390625 64.015625 
L 19.390625 0 
L 9.8125 0 
z
" id="DejaVuSans-77"/>
    <path d="M 45.40625 27.984375 
Q 45.40625 37.75 41.375 43.109375 
Q 37.359375 48.484375 30.078125 48.484375 
Q 22.859375 48.484375 18.828125 43.109375 
Q 14.796875 37.75 14.796875 27.984375 
Q 14.796875 18.265625 18.828125 12.890625 
Q 22.859375 7.515625 30.078125 7.515625 
Q 37.359375 7.515625 41.375 12.890625 
Q 45.40625 18.265625 45.40625 27.984375 
z
M 54.390625 6.78125 
Q 54.390625 -7.171875 48.1875 -13.984375 
Q 42 -20.796875 29.203125 -20.796875 
Q 24.46875 -20.796875 20.265625 -20.09375 
Q 16.0625 -19.390625 12.109375 -17.921875 
L 12.109375 -9.1875 
Q 16.0625 -11.328125 19.921875 -12.34375 
Q 23.78125 -13.375 27.78125 -13.375 
Q 36.625 -13.375 41.015625 -8.765625 
Q 45.40625 -4.15625 45.40625 5.171875 
L 45.40625 9.625 
Q 42.625 4.78125 38.28125 2.390625 
Q 33.9375 0 27.875 0 
Q 17.828125 0 11.671875 7.65625 
Q 5.515625 15.328125 5.515625 27.984375 
Q 5.515625 40.671875 11.671875 48.328125 
Q 17.828125 56 27.875 56 
Q 33.9375 56 38.28125 53.609375 
Q 42.625 51.21875 45.40625 46.390625 
L 45.40625 54.6875 
L 54.390625 54.6875 
z
" id="DejaVuSans-103"/>
    <path d="M 19.671875 64.796875 
L 19.671875 37.40625 
L 32.078125 37.40625 
Q 38.96875 37.40625 42.71875 40.96875 
Q 46.484375 44.53125 46.484375 51.125 
Q 46.484375 57.671875 42.71875 61.234375 
Q 38.96875 64.796875 32.078125 64.796875 
z
M 9.8125 72.90625 
L 32.078125 72.90625 
Q 44.34375 72.90625 50.609375 67.359375 
Q 56.890625 61.8125 56.890625 51.125 
Q 56.890625 40.328125 50.609375 34.8125 
Q 44.34375 29.296875 32.078125 29.296875 
L 19.671875 29.296875 
L 19.671875 0 
L 9.8125 0 
z
" id="DejaVuSans-80"/>
   </defs>
   <g transform="translate(402.56 24.7068)scale(0.2304 -0.2304)">
    <use xlink:href="#DejaVuSans-77"/>
    <use x="86.279297" xlink:href="#DejaVuSans-97"/>
    <use x="147.558594" xlink:href="#DejaVuSans-103"/>
    <use x="211.035156" xlink:href="#DejaVuSans-80"/>
    <use x="271.337891" xlink:href="#DejaVuSans-54"/>
    <use x="334.960938" xlink:href="#DejaVuSans-52"/>
   </g>
  </g>
 </g>
 <defs>
  <clipPath id="p85b2ab92be">
   <rect height="280.8" width="378" x="70.478" y="20.16"/>
  </clipPath>
  <clipPath id="p98f3b909a8">
   <rect height="280.8" width="378" x="524.078" y="20.16"/>
  </clipPath>
 </defs>
</svg>
